<svg xmlns="http://www.w3.org/2000/svg" xmlns:xlink="http://www.w3.org/1999/xlink" width="390.846" height="349.967" viewBox="0 0 390.846 349.967"><defs><style>.a{fill:#399cf3;}.b{fill:#eff4f9;}.c{fill:#e2ebf7;}.d,.r,.z{opacity:0.3;}.d,.e{mix-blend-mode:screen;}.ab,.d,.e,.r,.z{isolation:isolate;}.e{opacity:0.6;}.f{fill:#eed7ba;}.g{fill:#e8ceb1;}.h{fill:#08e2f3;}.i{fill:url(#a);}.j{fill:url(#b);}.k{fill:#141032;}.l{fill:#131214;}.m{fill:#1d262d;}.n{fill:#d7e3f4;}.o{fill:#1c2a6b;}.p,.w{fill:#fff;}.q{fill:url(#c);}.ab,.r,.z{mix-blend-mode:multiply;}.r{fill:url(#d);}.s{fill:#3565b9;font-size:53px;}.s,.t,.u,.w{font-family:Poppins-Medium, Poppins;font-weight:500;}.t,.u,.x{fill:#00edff;}.t{font-size:31px;}.u{font-size:25px;}.v{fill:url(#e);}.w{font-size:34px;}.y{fill:#1a1a1a;}.z{fill:#666;}.aa{fill:#1e1e1e;}.ab{fill:#112c47;opacity:0.7;}</style><linearGradient id="a" y1="0.5" x2="1" y2="0.5" gradientUnits="objectBoundingBox"><stop offset="0" stop-color="#1c2a6b"/><stop offset="0.062" stop-color="#3565b9"/><stop offset="1" stop-color="#162a6f"/></linearGradient><linearGradient id="b" x1="0.085" y1="0.5" x2="1.043" y2="0.5" gradientUnits="objectBoundingBox"><stop offset="0" stop-color="#00edff"/><stop offset="1" stop-color="#00edff"/></linearGradient><linearGradient id="c" y1="0.5" x2="1" y2="0.5" gradientUnits="objectBoundingBox"><stop offset="0" stop-color="#3565b9"/><stop offset="1" stop-color="#0077ec"/></linearGradient><linearGradient id="d" y1="0.5" x2="1" y2="0.5" gradientUnits="objectBoundingBox"><stop offset="0" stop-color="#008bec"/><stop offset="1" stop-color="#0077ec"/></linearGradient><linearGradient id="e" y1="0.5" x2="1" y2="0.5" gradientUnits="objectBoundingBox"><stop offset="0" stop-color="#008bec"/><stop offset="1" stop-color="#3565b9"/></linearGradient></defs><g transform="translate(-439.744 -352.017)"><g transform="translate(358.077 248.084)"><g transform="translate(263.274 379.966)"><path class="a" d="M287.167,309.733a13.08,13.08,0,0,0-4.461-.753,13.5,13.5,0,0,0-12.9,9.777v.007l-32.441-.106-18-.052a2.759,2.759,0,0,0-2.769,2.745l-.016,4.612h.007l-.013,4.047a2.318,2.318,0,0,0,2.317,2.325h.409a2.32,2.32,0,0,0,2.332-2.31l.013-4.045,2.925.009-.013,4.047a2.32,2.32,0,0,0,2.315,2.323l.533,0a2.32,2.32,0,0,0,2.332-2.31l.013-4.045,2.945,0-.005,3.916a2.4,2.4,0,0,0,2.069,2.446,2.315,2.315,0,0,0,2.57-2.3l.013-4.047,32.441.108a13.513,13.513,0,0,0,26.511-4.239A13.619,13.619,0,0,0,287.167,309.733Zm4.11,15.671a3.463,3.463,0,1,1-1.893-6.362,3.431,3.431,0,0,1,1.932.6h.007a3.468,3.468,0,0,1-.046,5.762Z" transform="translate(-216.571 -308.98)"/><path class="a" d="M282,321.7a13.512,13.512,0,0,1-24.148,8.908c4.456,2.167,9.572,3.155,14.3.52a9.457,9.457,0,0,0,4.831-5.917,3.468,3.468,0,0,0,.046-5.762h-.007a31.2,31.2,0,0,0-4.149-9.909A13.619,13.619,0,0,1,282,321.7Z" transform="translate(-202.28 -308.786)"/></g><g transform="translate(358.292 103.933)"><path class="b" d="M401.04,154.9a57.18,57.18,0,0,0-53.4-50.866c-1.116-.065-2.245-.1-3.375-.1s-2.271.039-3.387.1a57.135,57.135,0,0,0-53.729,57v79.111a3.385,3.385,0,0,0,3.388,3.388H397.987a3.385,3.385,0,0,0,3.387-3.388V161.037A53.817,53.817,0,0,0,401.04,154.9Zm-53.4-44.079a50.27,50.27,0,0,1,35.623,18.427c.9,1.1,1.758,2.247,2.566,3.427s1.566,2.387,2.272,3.644,1.36,2.528,1.963,3.837,1.142,2.656,1.63,4.017a49.894,49.894,0,0,1,1.8,6.338c.308,1.438.565,2.9.744,4.389H347.644Zm0,50.854h46.966v32.787H347.644ZM300.1,136.926a50.343,50.343,0,0,1,40.782-26.1V154.9H294.3A49.759,49.759,0,0,1,300.1,136.926Zm-6.172,24.753h46.954v32.787H293.928Zm46.954,75.083H293.928V201.228h46.954Zm53.728,0H347.644V201.228h46.966Z" transform="translate(-287.153 -103.933)"/><rect class="c" width="46.966" height="35.532" transform="translate(60.492 97.295)"/><rect class="c" width="46.966" height="32.786" transform="translate(60.492 57.746)"/><path class="c" d="M378.671,153.131H332.088V109.052A50.4,50.4,0,0,1,378.671,153.131Z" transform="translate(-271.597 -102.161)"/><rect class="c" width="46.953" height="35.532" transform="translate(6.776 97.295)"/><rect class="c" width="46.953" height="32.786" transform="translate(6.776 57.746)"/><path class="c" d="M339.044,109.052v44.079H292.463c.012-.051.012-.114.026-.166a49.91,49.91,0,0,1,3.08-12.075,50.675,50.675,0,0,1,20.415-24.433A49.876,49.876,0,0,1,339.044,109.052Z" transform="translate(-285.315 -102.161)"/><path class="c" d="M299.341,146.418h-6.878a49.76,49.76,0,0,1,5.8-17.977C298.4,134.01,298.738,140.131,299.341,146.418Z" transform="translate(-285.315 -95.448)"/><path class="c" d="M308.42,179.615H292.186V146.828h8C301.67,158.416,304.2,170.106,308.42,179.615Z" transform="translate(-285.411 -89.083)"/><path class="c" d="M316.272,181.994c5.3,5.787,13.462,9.726,22.868,12.331V211.74H292.186V176.207h19.762A39.615,39.615,0,0,0,316.272,181.994Z" transform="translate(-285.411 -78.912)"/><path class="c" d="M379.054,193.88v12.781H332.088V190.877C347.731,194.1,365.542,194.368,379.054,193.88Z" transform="translate(-271.597 -73.833)"/><g class="d" transform="translate(30.669 6.891)"><g class="e" transform="translate(29.823 6.942)"><path class="c" d="M363.412,151.346l-31.324-37.137V147.5l3.49,3.85Z" transform="translate(-332.089 -114.209)"/></g><g class="e"><path class="c" d="M333,141.839V109.052a49.876,49.876,0,0,0-23.06,7.4Z" transform="translate(-309.935 -109.052)"/></g><g class="e" transform="translate(39.473 50.855)"><path class="c" d="M366.654,146.829h-27.4l29.8,32.786h7.52V158.6Z" transform="translate(-339.257 -146.829)"/></g></g></g><ellipse class="b" cx="70.544" cy="9.318" rx="70.544" ry="9.318" transform="translate(81.667 435.263)"/><ellipse class="b" cx="25.391" cy="3.962" rx="25.391" ry="3.962" transform="translate(415.575 438.104)"/><g transform="translate(122.218 193.918)"><path class="f" d="M120.18,289.547c-11.357-4.517-5.331,65.35-1.774,77.044s3.3-23.694,4.495-43.624S124.648,291.324,120.18,289.547Z" transform="translate(-111.165 -129.731)"/><path class="f" d="M148.52,288.14c-11.253-4.4-7.909,65.589-4.691,77.223s4.624-9.672,6.417-29.562S152.946,289.873,148.52,288.14Z" transform="translate(-101.768 -130.215)"/><path class="f" d="M150.789,341.064l-1.563,14.929-5.959-.982-1.486-16.236Z" transform="translate(-101.407 -112.616)"/><path class="f" d="M124.669,341.192l-1.7,14.914-5.95-1.037-1.336-16.249Z" transform="translate(-110.442 -112.6)"/><g transform="translate(34.931 5.305)"><path class="g" d="M165.219,218.717a5.41,5.41,0,0,1-4.282-2.616c-4.669-7.37-21.378-34.2-19.224-37.358,2.5-3.668,28.367,33.912,27.466,36.09C168.479,216.528,168.061,218.823,165.219,218.717Z" transform="translate(-136.427 -173.411)"/><path class="g" d="M144.189,184.127s-3.224-1.143-3.06-3.067-3.675-2.116-3.375-3.555,4.584-4.682,7.243-1.3a11.294,11.294,0,0,1,2.41,7.273Z" transform="translate(-137.738 -174.717)"/></g><path class="f" d="M132.8,252.195c-4.379.8-7.275,5.651-6.33,10.508a130.747,130.747,0,0,0,6,19.294c6.342,15.378,11.453,29.972,17.725,30.5s8.045-10.827,3.492-26.626c-4.117-14.28-5.8-32.914-10.32-34.251C141.083,250.945,136.636,251.492,132.8,252.195Z" transform="translate(-106.767 -142.895)"/><path class="f" d="M123.752,250.93c-4.161-.691-8.443,2.866-9.329,7.693a134.32,134.32,0,0,0-1.533,19.912c.158,16.382-.5,31.633,4.868,34.189s10.961-7.426,12.534-23.614c1.423-14.632,6.543-32.512,3.017-35.241C131.523,252.489,127.394,251.535,123.752,250.93Z" transform="translate(-111.41 -143.058)"/><path class="g" d="M126.631,207.945A5.489,5.489,0,0,0,130.858,212c9.192,2.155,42.019,8.867,44.112,2.2,2.462-7.833-27.234-12.155-35.441-12.389C132.689,201.618,125.591,202.971,126.631,207.945Z" transform="translate(-106.687 -160.039)"/><path class="h" d="M132.922,203.378c.178.046,26.427,5.686,26.427,5.686l-9.108-16.218,7.536-5.024s21.317,27.862,16.6,33.215-35.114.23-35.114.23Z" transform="translate(-104.473 -164.875)"/><path class="f" d="M124.229,203.933l11.3,5.067,1.117-7.257a6.206,6.206,0,0,0,1.054.563,8.162,8.162,0,0,0,7.681-.625,4.339,4.339,0,0,0,1.661-2.025,17.161,17.161,0,0,0,1.107-5.834,4.215,4.215,0,0,0,0-.6,65.449,65.449,0,0,0-.984-12.05c.03-.027.059-.054.088-.054l-.078-.145s-1.917-1.229-4.982-2.826c-2.131-1.111-2.254-1.058-3.8-1.08-3.151-.043-3.092.693-4.533,1.08-1.412.386-3.111,2.12-5.915,4.317-5.182,4.057-2.006,11.849-2.006,11.849l-.143-.007a2.014,2.014,0,0,0,.135.178Z" transform="translate(-107.483 -168.599)"/><path class="i" d="M152.39,251.284s11.779,43.539,12.258,56.929-3.851,68.81-3.851,68.81h-8.723s-5.12-57.811-5.837-63.071-11-26.78-11-26.78L125.65,378.7s-8.022.478-8.38.12-11.443-124.043,1.47-128.346" transform="translate(-111.543 -143.187)"/><path class="j" d="M121.579,274.148q1.466.061,2.931.071c8.789.066,17.8.812,26.209-1.737a2.473,2.473,0,0,0,1.269-.687,1.957,1.957,0,0,0,.4-1.384c-1.47-15.736-.516-30.494-2.33-45.161-.606-4.893.17-16.849-10.313-24.435l-1.146-.341a28.3,28.3,0,0,1-10.267-5.254c-5.122,2.412-9.99,6.016-12.3,11.184a21.365,21.365,0,0,0-1.672,7.4c-.082,1.28-.092,2.574-.063,3.866-.291,2.231-.478,4.424-.584,6.59q-.053,1.082-.081,2.157c-.167,6.526-.454,13.051-.427,19.582.03,6.887.646,13.411,1.109,20.268.114,1.687.3,3.718.363,5.406.027.656-.079,2.332.884,2.4S120.6,274.108,121.579,274.148Zm21.795-67.273.013.04Zm1.459,4.721h0l0-.008Z" transform="translate(-111.299 -162.314)"/><path class="f" d="M119.448,202.186a5.486,5.486,0,0,0-3.683,4.551c-1.379,9.34-5.482,40.72,1.334,42.248,8.011,1.8,9.994-26.262,9.541-34.46C126.259,207.693,124.317,200.732,119.448,202.186Z" transform="translate(-111.274 -159.97)"/><path class="k" d="M150.192,348.216a41.778,41.778,0,0,0,7.331,7.432c5.136,4.246,6.559,3.43,6.619,4.938s-22.021-.688-22.021-.688l.386-12.353S150.2,347.893,150.192,348.216Z" transform="translate(-101.288 -109.58)"/><path class="k" d="M123.784,348.462a41.8,41.8,0,0,0,7.559,7.2c5.266,4.083,6.662,3.224,6.77,4.728s-22.031,0-22.031,0V348.033S123.784,348.139,123.784,348.462Z" transform="translate(-110.303 -109.411)"/><path class="l" d="M123.794,341.185" transform="translate(-107.634 -111.782)"/><path class="f" d="M142.132,251.075" transform="translate(-101.285 -142.978)"/><path class="f" d="M142.132,251.075" transform="translate(-101.285 -142.978)"/><path class="f" d="M115.958,233.27a5.38,5.38,0,0,1,4.949.656c7.218,4.823,33.23,22.5,32.544,26.243-.8,4.344-39.473-19.423-39.532-21.768C113.873,236.576,113.33,234.319,115.958,233.27Z" transform="translate(-111.079 -149.259)"/><path class="h" d="M128.155,221.632l-2.532,22.335,18.306,15.542-6.217,7.829s-21.53-11.743-24.178-17.961-3.764-49,7.828-48.124C132.069,202.06,128.155,221.632,128.155,221.632Z" transform="translate(-111.79 -160.23)"/><path class="f" d="M142.533,250.96s3.41.258,3.756,2.158,4.1,1.08,4.188,2.547-3.2,5.72-6.649,3.153a11.3,11.3,0,0,1-4.231-6.39Z" transform="translate(-102.163 -143.017)"/><path class="m" d="M150.157,176.6a6.962,6.962,0,0,0-1.676-4.016c-2.014-2.159-4.581-2.127-7.2-1.214a36.566,36.566,0,0,1-5.188,1.459c-3.452.656-7.583.053-10.385,2.609a6.459,6.459,0,0,0-1.451,1.984,10.924,10.924,0,0,0-.613,5.694c.333,3.768.845,7.516,1.273,11.273q.341,2.987.681,5.976l1.851-1.782,3.38-3.192a3.99,3.99,0,0,0,1.144-1.969,11,11,0,0,0,.408-2.406c-.117-1.244-.553-2.643-.166-3.955.345-1.16,1.754-2.155,2.749-1.05.662.746,1.2,1.589,1.782,2.39.483.65.98,1.59,1.879,1.685,1.768.194,1.311-2.776,1.243-3.757-.246-3.507,5.608-2.931,7.649-3.93C149.608,181.368,150.388,178.927,150.157,176.6Z" transform="translate(-107.723 -170.777)"/></g><g transform="translate(214.957 207.667)"><g transform="translate(0)"><path class="n" d="M357.047,190.856V330.282a9.877,9.877,0,0,1-9.866,9.888H190.547a9.878,9.878,0,0,1-9.868-9.888V190.856a9.873,9.873,0,0,1,9.868-9.866H347.181A9.873,9.873,0,0,1,357.047,190.856Z" transform="translate(-180.679 -180.99)"/><path class="o" d="M357.047,190.856v7.718H180.679v-7.718a9.873,9.873,0,0,1,9.868-9.866H347.181A9.873,9.873,0,0,1,357.047,190.856Z" transform="translate(-180.679 -180.99)"/><circle class="p" cx="44.958" cy="44.958" r="44.958" transform="translate(43.225 34.629)"/><g transform="translate(67.105 53.234)"><g transform="translate(6.487)"><path class="m" d="M249.927,220.534a14.613,14.613,0,0,0-14.581,14.6v15.312h29.183V235.135A14.617,14.617,0,0,0,249.927,220.534Zm9.742,25.051H240.207V235.135a9.731,9.731,0,1,1,19.462,0Z" transform="translate(-235.346 -220.534)"/></g><rect class="m" width="12.426" height="13.775" transform="translate(14.707 29.479)"/><path class="q" d="M270.389,234.386H232.8a2.3,2.3,0,0,0-2.274,2.3v29.474a2.3,2.3,0,0,0,2.274,2.3h37.589a2.3,2.3,0,0,0,2.3-2.3V236.681A2.3,2.3,0,0,0,270.389,234.386Zm-15.31,19.776a3.479,3.479,0,1,1-5.194-3.025v-2.524a1.72,1.72,0,0,1,3.441,0v2.524A3.5,3.5,0,0,1,255.079,254.162Z" transform="translate(-230.527 -215.738)"/><path class="r" d="M272.678,236.673v29.486a2.284,2.284,0,0,1-2.279,2.279h-37.59a2.278,2.278,0,0,1-2.279-2.279v-1.466c8.937.124,22.243-.268,29.447-3.19,10.316-4.185,10.306-21.59,9.943-27.108h.479A2.284,2.284,0,0,1,272.678,236.673Z" transform="translate(-230.526 -215.736)"/></g></g><g transform="translate(131.519 6.921)"><path class="p" d="M283.263,188.574a2.443,2.443,0,1,1-2.443-2.443A2.444,2.444,0,0,1,283.263,188.574Z" transform="translate(-278.376 -186.131)"/><path class="p" d="M293.084,188.574a2.443,2.443,0,1,1-2.442-2.443A2.443,2.443,0,0,1,293.084,188.574Z" transform="translate(-274.975 -186.131)"/><path class="p" d="M302.907,188.574a2.443,2.443,0,1,1-2.442-2.443A2.443,2.443,0,0,1,302.907,188.574Z" transform="translate(-271.575 -186.131)"/></g></g><g transform="translate(412.31 254.908)"><text class="s" transform="translate(8.388 50.487) rotate(25.638)"><tspan x="0" y="0">?</tspan></text></g><g transform="translate(315.202 136.537)"><text class="t" transform="translate(0 33)"><tspan x="0" y="0">?</tspan></text></g><g transform="translate(271.191 165.747)"><text class="u" transform="matrix(0.848, -0.529, 0.529, 0.848, 13.764, 29.185)"><tspan x="0" y="0">?</tspan></text></g><g transform="translate(168.72 132.19)"><path class="v" d="M198.74,127.846c-23.832,0-43.151,9.563-43.151,21.361,0,3.433,1.646,6.674,4.553,9.549-4.455,4.057-13.751,12.525-13.809,12.525l22.689-6.594c7.739,3.641,18.2,5.882,29.719,5.882,23.832,0,43.151-9.563,43.151-21.361S222.572,127.846,198.74,127.846Z" transform="translate(-146.333 -123.911)"/><g transform="translate(44.967)"><text class="w" transform="translate(0 36)"><tspan x="0" y="0">?</tspan></text></g></g><g transform="translate(-235.91 -802.951)"><g transform="translate(657.011 1170.307)"><g transform="translate(0 0)"><g transform="translate(24.791 13.66)"><path class="x" d="M609.4,1262.873c-.376.19-1.456-.382-1.853-.5a6.517,6.517,0,0,1-2.384-.885,3.678,3.678,0,0,1-1.043-2.6,7.8,7.8,0,0,1-.049-1.258,7.089,7.089,0,0,1,.963-3.359,5,5,0,0,1,.41-.581,5.983,5.983,0,0,0,.794-1.015,3.9,3.9,0,0,0,.321-1.554,15.415,15.415,0,0,0-.442-4.81c-.478-1.918-1.656-3.365-1.175-5.42a7.19,7.19,0,0,1,.566-1.489,8.851,8.851,0,0,1,.848-1.324c1.33-1.749,2.893-2.856,2.428-5.573a8.391,8.391,0,0,1,.613-4.5,33.654,33.654,0,0,1,2.119-3.926.626.626,0,0,1,.234-.273.5.5,0,0,1,.418.077c2.036.987,3.18,3.379,4.07,5.575,1.33,2.96.386,6.079-1.12,9.217-1.016,2.089-2.039,4.023-1.772,6.122a11.373,11.373,0,0,0,.485,1.833,12.3,12.3,0,0,1-1.7,10.655,23.462,23.462,0,0,0-1.73,2.423C610.02,1260.4,609.978,1262.575,609.4,1262.873Z" transform="translate(-604.061 -1223.779)"/><g transform="translate(1.73 5.033)"><path class="y" d="M610.954,1276.556l.66.194a6.16,6.16,0,0,1,.825-4.978,10.359,10.359,0,0,0,1.672-3.366,17.615,17.615,0,0,0,.643-6.606,9.826,9.826,0,0,1,1.479-6.492c2.575-3.456,1.267-11.4,1.159-11.827.063.28.8,8.1-1.587,11.241a10.572,10.572,0,0,0-1.6,6.984,16.949,16.949,0,0,1-.631,6.283,9.854,9.854,0,0,1-1.553,3.155A7.069,7.069,0,0,0,610.954,1276.556Z" transform="translate(-610.833 -1243.481)"/></g></g><path class="z" d="M563.579,1217.813c-.355,1.05.062,3.727-.747,4.187-.528.3-2.286-.2-2.914-.266-.518-.057-1-.095-1.438-.135a8.024,8.024,0,0,1-2.267-.43,4.484,4.484,0,0,1-2.4-2.85,7.057,7.057,0,0,1,.012-5.671,5.208,5.208,0,0,1,.456-.757.189.189,0,0,1,.014-.018,5.682,5.682,0,0,0,.905-1.382,4.046,4.046,0,0,0,0-2.064,21.455,21.455,0,0,0-.9-3.292,22.8,22.8,0,0,0-1.378-3.089c-1.354-2.519-3.261-5.064-3.237-7.717,0-.057,0-.115,0-.172a7.347,7.347,0,0,1,.614-2.619c1.256-2.971,3.859-5.034,2.28-9.108a10.455,10.455,0,0,1-.305-6.175,25.327,25.327,0,0,1,2.226-5.532.751.751,0,0,1,.295-.367.967.967,0,0,1,.651.018c3.276.839,5.635,3.118,7.678,5.816,2.927,3.865,2.406,8.211,1.174,12.055-.859,2.68-1.743,5.6-.68,8.471a25.371,25.371,0,0,0,1.24,2.543c.054.108.108.216.16.325a8.858,8.858,0,0,1,.848-1.324c.09.169.181.342.269.518a18.426,18.426,0,0,1,.633,16.009c-.245.517-.513,1.013-.774,1.491a17.243,17.243,0,0,0-1.036,2.126,7.311,7.311,0,0,0-.117,1.375,11.151,11.151,0,0,1-.166,1.891,3.678,3.678,0,0,1-1.043-2.6A7.786,7.786,0,0,1,563.579,1217.813Z" transform="translate(-538.781 -1170.307)"/><path class="x" d="M562.832,1222c-.528.3-2.286-.2-2.914-.266-.518-.057-1-.095-1.438-.135a8.024,8.024,0,0,1-2.267-.43,4.484,4.484,0,0,1-2.4-2.85,7.057,7.057,0,0,1,.012-5.671,5.208,5.208,0,0,1,.456-.757.189.189,0,0,1,.014-.018,5.682,5.682,0,0,0,.905-1.382,4.046,4.046,0,0,0,0-2.064,21.455,21.455,0,0,0-.9-3.292,22.8,22.8,0,0,0-1.378-3.089c-1.354-2.519-3.261-5.064-3.237-7.717,0-.057,0-.115,0-.172a7.347,7.347,0,0,1,.614-2.619c1.256-2.971,3.859-5.034,2.28-9.108a10.455,10.455,0,0,1-.305-6.175,25.327,25.327,0,0,1,2.226-5.532.751.751,0,0,1,.295-.367.967.967,0,0,1,.651.018c3.276.839,5.635,3.118,7.678,5.816,2.927,3.865,2.406,8.211,1.174,12.055-.859,2.68-1.743,5.6-.68,8.471a25.371,25.371,0,0,0,1.24,2.543c.054.108.108.216.16.325a17.069,17.069,0,0,1,.427,14.477c-.591,1.25-1.356,2.405-1.847,3.706-.006.015-.011.03-.016.045C563.224,1218.863,563.641,1221.541,562.832,1222Z" transform="translate(-538.781 -1170.307)"/><g transform="translate(17.806 5.868)"><path class="y" d="M577.466,1238.554l1.042.114a5.822,5.822,0,0,1-.009-5.962,11.646,11.646,0,0,0,1.626-4.906,19.329,19.329,0,0,0-1.156-9.055,12.872,12.872,0,0,1,.033-9.694c2.782-6.207-1.783-15.308-1.956-15.774.074.3,3.66,9.475,1.066,15.269a13.831,13.831,0,0,0-.043,10.43,18.349,18.349,0,0,1,1.1,8.566,10.793,10.793,0,0,1-1.493,4.541A6.587,6.587,0,0,0,577.466,1238.554Z" transform="translate(-576.714 -1193.276)"/></g><g transform="translate(0 12.115)"><path class="z" d="M558.48,1283.486a8.024,8.024,0,0,1-2.267-.43,4.484,4.484,0,0,1-2.4-2.85,7.057,7.057,0,0,1,.012-5.671,5.208,5.208,0,0,1,.456-.757.189.189,0,0,1,.014-.018,5.682,5.682,0,0,0,.905-1.382,4.046,4.046,0,0,0,0-2.064,21.455,21.455,0,0,0-.9-3.292,22.8,22.8,0,0,0-1.378-3.089c-1.354-2.519-3.261-5.064-3.237-7.717,0-.057,0-.115,0-.172a7.347,7.347,0,0,1,.614-2.619c0,.034,0,.068,0,.1-.027,1.631.815,2.551,2.307,4.037a12.507,12.507,0,0,1,3.042,4.066,9.365,9.365,0,0,1,.093,5.7c-.087.423-.167.822-.231,1.216a13.436,13.436,0,0,0,.056,4.5,2.566,2.566,0,0,0,.281.89,1.938,1.938,0,0,0,.272.267c.076.065.154.127.231.191.1.079.194.158.289.239l.033.028a7.709,7.709,0,0,1,.718.7,7.852,7.852,0,0,1,2.008,5.36A4.07,4.07,0,0,1,558.48,1283.486Z" transform="translate(-538.781 -1244.308)"/><path class="x" d="M524.443,1256.481c-.528.139-1.168.22-1.909.365-.454.089-1.643.567-2.125.373-.75-.3-1.186-2.406-1.759-3.15-.734-.954-1.635-1.781-2.43-2.689a14.669,14.669,0,0,1-3.694-11.209,15.342,15.342,0,0,0,.225-1.993c0-2.234-1.484-4.382-2.882-6.354-2-2.83-3.613-6.08-2.484-9.17.788-2.157,1.932-4.016,4.171-4.843a.7.7,0,0,1,.485-.052.892.892,0,0,1,.325.259,28.237,28.237,0,0,1,3.227,4.046,8.921,8.921,0,0,1,1.5,4.679,5.092,5.092,0,0,0,.823,2.9c1.258,1.992,3.619,3.306,4.64,5.784.686,1.666.312,3.356-.025,5.021-.077.376-.151.75-.211,1.124a14.858,14.858,0,0,0,.061,4.952,6.126,6.126,0,0,0,.149.662,2.739,2.739,0,0,0,.426.9,6.781,6.781,0,0,0,1.085,1,5.814,5.814,0,0,1,.556.545,6.242,6.242,0,0,1,1.594,4.28C526.129,1255.68,525.516,1256.2,524.443,1256.481Z" transform="translate(-507.011 -1217.733)"/><g transform="translate(4.958 4.542)"><path class="y" d="M538.855,1269.72l-.755.147a5.047,5.047,0,0,0-1.66-4.5,12.619,12.619,0,0,1-2.6-3.608,15.516,15.516,0,0,1-1.659-6.9,11.281,11.281,0,0,0-2.735-7.316c-3.835-4.521-2.933-11.661-2.933-12.023.029.234-.114,7.369,3.463,11.589a12.123,12.123,0,0,1,2.948,7.871,14.731,14.731,0,0,0,1.567,6.531,11.682,11.682,0,0,0,2.4,3.34A5.863,5.863,0,0,1,538.855,1269.72Z" transform="translate(-526.422 -1235.515)"/></g></g></g><g transform="translate(4.554 46.088)"><path class="aa" d="M562.063,1370.067l-.419,1.947-4.506,20.881c-6.406,1.6-12.538,1.776-18.293,0l-4.506-20.881-.419-1.947Z" transform="translate(-531.6 -1365.126)"/><path class="ab" d="M557.622,1358.347v2.994H555.3l-.419,1.947H527.578l-.419-1.947H524.84v-2.994Z" transform="translate(-524.839 -1356.4)"/><rect class="aa" width="32.784" height="4.94"/></g></g></g></g></g></svg>