<svg xmlns="http://www.w3.org/2000/svg" width="553.804" height="387.875" viewBox="0 0 553.804 387.875"><defs><style>.a,.p{fill:#80b2ff;}.b{fill:#0041a6;}.c{fill:#399cf3;}.d{fill:#005cea;}.e{fill:#97c6ff;}.f{fill:#3565b9;}.g{fill:#4d93ff;}.h{fill:#0046b3;}.i{fill:#d1f5ff;}.j{fill:#ffbd73;}.k{fill:none;stroke:#1c2a6b;stroke-miterlimit:10;stroke-width:3.927px;}.l{fill:#141032;}.m{fill:#b3d1ff;}.n{fill:#bdf;}.o{fill:#1c2a6b;}.p{opacity:0.3;}.q{fill:#fff;}.r{fill:#4d4d4d;}.s{fill:#f7a58e;}.t{fill:#00050d;}.u{fill:#ff7268;}.v{fill:#e6856a;}.w{fill:#50318f;}.x{fill:#16579a;}.y{fill:#f7a28a;}.z{fill:#f0896c;}.aa{fill:#3d3d3d;}.ab{fill:#f7b28a;}.ac{fill:#00d2e1;}.ad{fill:#333;}.ae{fill:#00edff;}.af{fill:#00e1f2;}.ag{fill:#ffeac2;}.ah{fill:#d9ffff;}.ai{fill:#162a6f;}</style></defs><g transform="translate(-354.196 -266.109)"><g transform="translate(163.076 -63.59)"><g transform="translate(162.699 331.929)"><g transform="translate(57.727 11.421)"><g transform="translate(476.785 97.43)"><path class="a" d="M2155.833,758.527h-20.071v-24.79h20.071Zm-19.008-1.064h17.944V734.8h-17.944Z" transform="translate(-2135.762 -733.737)"/><rect class="b" width="9.832" height="1.543" transform="translate(6.75 4.427)"/><rect class="b" width="12.74" height="1.543" transform="translate(3.842 8.053)"/><rect class="b" width="12.74" height="1.543" transform="translate(3.842 11.678)"/><rect class="b" width="12.74" height="1.543" transform="translate(3.842 15.304)"/><rect class="b" width="12.74" height="1.543" transform="translate(3.842 18.929)"/><g transform="translate(3.574 3.44)"><rect class="c" width="19.008" height="23.727"/><rect class="d" width="9.832" height="1.543" transform="translate(6.219 3.895)"/><rect class="d" width="12.74" height="1.543" transform="translate(3.311 7.521)"/><rect class="d" width="12.74" height="1.543" transform="translate(3.311 11.146)"/><rect class="d" width="12.74" height="1.543" transform="translate(3.311 14.772)"/><rect class="d" width="12.74" height="1.543" transform="translate(3.311 18.397)"/></g></g><g transform="translate(387.88 29.127)"><rect class="e" width="1.773" height="1.33"/><path class="e" d="M1809.355,544.031h-1.773v-2.78h1.773Zm0-5.56h-1.773v-2.78h1.773Zm0-5.56h-1.773v-2.78h1.773Zm0-5.56h-1.773v-2.78h1.773Zm0-5.56h-1.773v-2.78h1.773Zm0-5.559h-1.773v-2.78h1.773Zm0-5.56h-1.773v-2.78h1.773Zm0-5.56h-1.773v-2.78h1.773Zm0-5.56h-1.773v-2.78h1.773Z" transform="translate(-1807.582 -492.666)"/><rect class="e" width="1.773" height="1.33" transform="translate(0 54.145)"/></g><g transform="translate(0 29.127)"><rect class="e" width="1.773" height="1.33" transform="translate(373.393)"/><path class="e" d="M377.56,611.2h-1.773v-2.664h1.773Zm.034-5.262-1.768-.13a14.151,14.151,0,0,1,.49-2.794l1.707.481A12.379,12.379,0,0,0,377.594,605.94Zm1.338-4.751-1.575-.813A14.221,14.221,0,0,1,378.9,598l1.382,1.11A12.455,12.455,0,0,0,378.932,601.189Zm3.093-3.851-1.135-1.362a14.227,14.227,0,0,1,2.35-1.589l.841,1.56A12.448,12.448,0,0,0,382.025,597.338ZM386.371,595l-.512-1.7a14.123,14.123,0,0,1,2.785-.541l.162,1.765A12.368,12.368,0,0,0,386.371,595Zm348.679-.525h-2.664V592.7h2.664Zm-5.328,0h-2.664V592.7h2.664Zm-5.328,0H721.73V592.7h2.664Zm-5.328,0H716.4V592.7h2.664Zm-5.328,0h-2.664V592.7h2.664Zm-5.328,0h-2.664V592.7h2.664Zm-5.328,0h-2.664V592.7h2.664Zm-5.328,0H695.09V592.7h2.664Zm-5.328,0h-2.664V592.7h2.664Zm-5.328,0h-2.664V592.7H687.1Zm-5.328,0h-2.664V592.7h2.664Zm-5.328,0h-2.664V592.7h2.664Zm-5.328,0h-2.664V592.7h2.664Zm-5.328,0h-2.664V592.7h2.664Zm-5.328,0h-2.664V592.7h2.664Zm-5.328,0h-2.664V592.7h2.664Zm-5.328,0h-2.664V592.7H649.8Zm-5.328,0h-2.664V592.7h2.664Zm-5.328,0h-2.664V592.7h2.664Zm-5.328,0h-2.664V592.7h2.664Zm-5.328,0h-2.664V592.7h2.664Zm-5.328,0H620.5V592.7h2.664Zm-5.328,0h-2.664V592.7h2.664Zm-5.328,0H609.84V592.7H612.5Zm-5.328,0h-2.664V592.7h2.664Zm-5.328,0h-2.664V592.7h2.664Zm-5.328,0h-2.664V592.7h2.664Zm-5.328,0h-2.664V592.7h2.664Zm-5.328,0H583.2V592.7h2.664Zm-5.328,0h-2.664V592.7h2.664Zm-5.328,0h-2.664V592.7h2.664Zm-5.328,0h-2.664V592.7h2.664Zm-5.328,0h-2.664V592.7h2.664Zm-5.328,0h-2.664V592.7h2.664Zm-5.328,0h-2.664V592.7h2.664Zm-5.328,0H545.9V592.7h2.664Zm-5.328,0h-2.664V592.7h2.664Zm-5.328,0h-2.664V592.7h2.664Zm-5.328,0h-2.664V592.7h2.664Zm-5.328,0H524.59V592.7h2.664Zm-5.328,0h-2.664V592.7h2.664Zm-5.328,0h-2.664V592.7H516.6Zm-5.328,0h-2.664V592.7h2.664Zm-5.328,0h-2.664V592.7h2.664Zm-5.328,0H497.95V592.7h2.664Zm-5.328,0h-2.664V592.7h2.664Zm-5.328,0h-2.664V592.7h2.664Zm-5.328,0h-2.664V592.7h2.664Zm-5.328,0h-2.664V592.7H479.3Zm-5.328,0h-2.664V592.7h2.664Zm-5.328,0h-2.664V592.7h2.664Zm-5.328,0h-2.664V592.7h2.664Zm-5.328,0h-2.664V592.7h2.664Zm-5.328,0H450V592.7h2.664Zm-5.328,0h-2.664V592.7h2.664Zm-5.328,0h-2.664V592.7H442Zm-5.328,0h-2.664V592.7h2.664Zm-5.328,0h-2.664V592.7h2.664Zm-5.328,0h-2.664V592.7h2.664Zm-5.328,0h-2.664V592.7h2.664Zm-5.328,0H412.7V592.7h2.664Zm-5.328,0h-2.664V592.7h2.664Zm-5.328,0h-2.664V592.7h2.664Zm-5.328,0h-2.664V592.7h2.664Zm-5.328,0h-2.664V592.7h2.664Zm343.723-.034-.122-1.769a12.377,12.377,0,0,0,2.445-.417l.472,1.709A14.154,14.154,0,0,1,737.775,594.438Zm5.441-1.505-.805-1.579a12.426,12.426,0,0,0,2.086-1.343l1.1,1.387A14.21,14.21,0,0,1,743.215,592.932Zm4.417-3.513-1.357-1.141a12.447,12.447,0,0,0,1.4-2.049l1.557.849A14.212,14.212,0,0,1,747.632,589.42Zm2.7-4.957-1.7-.52a12.353,12.353,0,0,0,.485-2.433l1.764.17A14.108,14.108,0,0,1,750.333,584.462Zm.62-5.529h-1.773v-2.664h1.773Zm0-5.328h-1.773v-2.664h1.773Zm0-5.328h-1.773v-2.664h1.773Zm0-5.328h-1.773v-2.664h1.773Zm0-5.328h-1.773v-2.664h1.773Zm0-5.328h-1.773v-2.664h1.773Zm0-5.328h-1.773V544.3h1.773Zm0-5.328h-1.773v-2.664h1.773Zm0-5.328h-1.773v-2.664h1.773Zm0-5.328h-1.773v-2.664h1.773Zm0-5.328h-1.773v-2.664h1.773Zm0-5.328h-1.773V517.66h1.773Zm0-5.328h-1.773v-2.664h1.773Zm0-5.328h-1.773V507h1.773Zm0-5.328h-1.773v-2.664h1.773Zm0-5.328h-1.773v-2.664h1.773Z" transform="translate(-375.787 -492.354)"/><rect class="e" width="1.773" height="1.33" transform="translate(0 121.539)"/></g><g transform="translate(398.54 29.127)"><rect class="e" width="1.773" height="1.33" transform="translate(0)"/><path class="e" d="M1848.708,521.625h-1.773v-2.766h1.773Zm0-5.533h-1.773v-2.767h1.773Zm0-5.533h-1.773v-2.766h1.773Zm0-5.533h-1.773v-2.767h1.773Zm0-5.533h-1.773v-2.766h1.773Z" transform="translate(-1846.935 -492.63)"/><path class="e" d="M1849.152,601.063h-2.216v-2.216h1.773v.443h.443Z" transform="translate(-1846.935 -567.086)"/><path class="e" d="M1926.173,680.462H1924.4v-2.645h1.773Zm0-5.289H1924.4v-2.645h1.773Zm0-5.289H1924.4v-2.645h1.773Zm0-5.289H1924.4v-2.645h1.773Zm0-5.289H1924.4V656.66h1.773Zm0-5.289H1924.4V651.37h1.773Zm0-5.289H1924.4v-2.645h1.773Zm0-5.289H1924.4v-2.645h1.773Zm0-5.289H1924.4V635.5h1.773Zm0-5.289H1924.4v-2.645h1.773Zm0-5.289H1924.4v-2.645h1.773Zm0-5.289H1924.4v-2.645h1.773Zm0-5.289H1924.4v-2.645h1.773Zm-1.782-5.253a9.907,9.907,0,0,0-.394-2.388l1.7-.5a11.682,11.682,0,0,1,.465,2.816Zm-1.359-4.607a9.943,9.943,0,0,0-1.475-1.919l1.263-1.244a11.707,11.707,0,0,1,1.739,2.262Zm-3.372-3.426a9.826,9.826,0,0,0-2.2-1l.529-1.692a11.624,11.624,0,0,1,2.6,1.181Zm-4.584-1.433q-.285-.016-.575-.017h-2.018v-1.773h2.018c.226,0,.454.007.677.02Zm-5.238-.017h-2.645v-1.773h2.645Zm-5.289,0H1901.9v-1.773h2.645Zm-5.289,0h-2.645v-1.773h2.645Zm-5.289,0h-2.645v-1.773h2.645Zm-5.289,0h-2.644v-1.773h2.644Zm-5.289,0h-2.645v-1.773h2.645Zm-5.289,0h-2.645v-1.773h2.645Zm-5.289,0h-2.645v-1.773h2.645Zm-5.289,0h-2.645v-1.773h2.645Z" transform="translate(-1860.018 -568.279)"/><rect class="e" width="1.773" height="1.33" transform="translate(64.382 114.839)"/></g><g transform="translate(341.707)"><path class="f" d="M1672.224,430.2c.035-.455.059-.913.059-1.376a17.57,17.57,0,1,0-35.14,0c0,.464.023.922.059,1.376Z" transform="translate(-1637.143 -401.183)"/><path class="f" d="M1885.289,430.2c.036-.455.059-.913.059-1.376a17.57,17.57,0,0,0-35.14,0c0,.464.024.922.059,1.376Z" transform="translate(-1792.488 -401.183)"/><path class="f" d="M1767.115,403.1a25.739,25.739,0,1,0-51.064,0Z" transform="translate(-1694.523 -374.088)"/></g></g><g transform="translate(28.421 163.417)"><rect class="g" width="128.843" height="77.053" rx="16.846" transform="translate(0)"/><rect class="h" width="128.843" height="13.296" transform="translate(0 14.552)"/><path class="i" d="M319.7,1165.014H300.754a2.181,2.181,0,0,0-2.181,2.181h0a2.18,2.18,0,0,0,2.181,2.18H319.7a2.18,2.18,0,0,0,2.18-2.18h0A2.18,2.18,0,0,0,319.7,1165.014Z" transform="translate(-290.185 -1102.744)"/><path class="i" d="M427.235,1165.014H408.291a2.18,2.18,0,0,0-2.18,2.181h0a2.18,2.18,0,0,0,2.18,2.18h18.944a2.18,2.18,0,0,0,2.181-2.18h0A2.181,2.181,0,0,0,427.235,1165.014Z" transform="translate(-368.591 -1102.744)"/><path class="i" d="M534.772,1165.014H515.829a2.181,2.181,0,0,0-2.181,2.181h0a2.18,2.18,0,0,0,2.181,2.18h18.944a2.18,2.18,0,0,0,2.18-2.18h0A2.181,2.181,0,0,0,534.772,1165.014Z" transform="translate(-446.995 -1102.744)"/><path class="i" d="M642.31,1165.014H623.365a2.181,2.181,0,0,0-2.18,2.181h0a2.18,2.18,0,0,0,2.18,2.18H642.31a2.18,2.18,0,0,0,2.18-2.18h0A2.18,2.18,0,0,0,642.31,1165.014Z" transform="translate(-525.4 -1102.744)"/><path class="i" d="M296.923,949.591h0A2.406,2.406,0,0,0,294.517,952v.845a2.406,2.406,0,0,0,2.406,2.406h0a2.406,2.406,0,0,0,2.406-2.406V952A2.406,2.406,0,0,0,296.923,949.591Z" transform="translate(-287.228 -945.68)"/><rect class="i" width="15.686" height="5.658" rx="2.829" transform="translate(14.88 3.911)"/><path class="j" d="M9.341,0h1.785a9.341,9.341,0,0,1,9.341,9.341v0a9.341,9.341,0,0,1-9.341,9.341H9.341A9.341,9.341,0,0,1,0,9.341v0A9.341,9.341,0,0,1,9.341,0Z" transform="translate(9.806 35)"/></g><g transform="translate(64.207)"><g transform="translate(72.566)"><path class="k" d="M780.8,405.758a54.234,54.234,0,0,0,1.082-21.39l2.2-.331,4.346-.65.055-.012a60.715,60.715,0,0,0-7.947-22.267l-5.724,3.41a54.254,54.254,0,0,0-14.376-15.873l3.974-5.37a60.459,60.459,0,0,0-21.367-10.145l-1.643,6.483a54.142,54.142,0,0,0-21.391-1.082l-.993-6.6a61.1,61.1,0,0,0-22.267,7.947l3.41,5.725a54.25,54.25,0,0,0-15.874,14.376L678.917,356a60.469,60.469,0,0,0-10.145,21.367l6.483,1.643a54.14,54.14,0,0,0-1.083,21.391l-4.671.7-1.906.3-.025-.006a61.114,61.114,0,0,0,7.947,22.267l5.725-3.41a54.362,54.362,0,0,0,14.4,15.88l-3.974,5.37a60.344,60.344,0,0,0,21.343,10.139l1.643-6.483a54.271,54.271,0,0,0,21.415,1.089l.763,5.132.229,1.469a61,61,0,0,0,22.243-7.953l-3.41-5.725a54.821,54.821,0,0,0,15.9-14.394l5.369,3.974A60.787,60.787,0,0,0,787.282,407.4Zm-60.034,15.285a29.551,29.551,0,1,1,35.895-21.4A29.548,29.548,0,0,1,720.765,421.043Z" transform="translate(-667.571 -331.929)"/></g><g transform="translate(0 68.14)"><path class="k" d="M454.1,597.573a28.555,28.555,0,0,0-8.621-7.269l.563-1.028,1.112-2.029.013-.027a31.968,31.968,0,0,0-11.865-3.764l-.395,3.486a28.567,28.567,0,0,0-11.234.968l-.984-3.377a31.829,31.829,0,0,0-11.06,5.723l2.194,2.754a28.5,28.5,0,0,0-7.269,8.621l-3.084-1.688a32.179,32.179,0,0,0-3.764,11.865l3.486.395a28.564,28.564,0,0,0,.967,11.234l-3.377.984a31.832,31.832,0,0,0,5.723,11.06l2.754-2.194a28.505,28.505,0,0,0,8.621,7.269l-1.2,2.181-.481.895-.011.008a32.176,32.176,0,0,0,11.865,3.764l.395-3.486a28.625,28.625,0,0,0,11.244-.976l.984,3.376a31.77,31.77,0,0,0,11.05-5.715l-2.194-2.754a28.571,28.571,0,0,0,7.28-8.629l2.395,1.316.689.372a32.114,32.114,0,0,0,3.754-11.857l-3.486-.395a28.862,28.862,0,0,0-.966-11.252l3.377-.984a32,32,0,0,0-5.726-11.042ZM441.38,627.606a15.559,15.559,0,1,1,2.467-21.864A15.557,15.557,0,0,1,441.38,627.606Z" transform="translate(-399.707 -583.456)"/></g><g transform="translate(424.441 281.468)"><path class="k" d="M2029.233,1387.214a32.951,32.951,0,0,0-9.948-8.388l.649-1.186,1.284-2.341.015-.031a36.889,36.889,0,0,0-13.692-4.344l-.455,4.023a32.956,32.956,0,0,0-12.964,1.117l-1.136-3.9a36.734,36.734,0,0,0-12.763,6.6l2.531,3.178a32.9,32.9,0,0,0-8.389,9.948l-3.558-1.948a37.126,37.126,0,0,0-4.344,13.692l4.023.456a32.97,32.97,0,0,0,1.116,12.964l-3.9,1.136a36.737,36.737,0,0,0,6.6,12.764l3.179-2.532a32.892,32.892,0,0,0,9.948,8.389l-1.38,2.516-.555,1.032-.012.01a37.133,37.133,0,0,0,13.692,4.344l.456-4.023a33.028,33.028,0,0,0,12.975-1.126l1.136,3.9a36.66,36.66,0,0,0,12.752-6.6l-2.531-3.179a32.973,32.973,0,0,0,8.4-9.957l2.763,1.518.795.43a37.067,37.067,0,0,0,4.332-13.682l-4.023-.456a33.313,33.313,0,0,0-1.114-12.985l3.9-1.136a36.934,36.934,0,0,0-6.607-12.742Zm-14.681,34.658a17.954,17.954,0,1,1,2.847-25.231A17.953,17.953,0,0,1,2014.551,1421.872Z" transform="translate(-1966.462 -1370.924)"/></g></g></g><g transform="translate(211.466 711.645)"><path class="l" d="M845.946,1739.517H345.678a2.964,2.964,0,0,1-2.964-2.964h0a2.964,2.964,0,0,1,2.964-2.965H845.946a2.964,2.964,0,0,1,2.964,2.965h0A2.964,2.964,0,0,1,845.946,1739.517Z" transform="translate(-342.714 -1733.588)"/></g><g transform="translate(221.312 427.857)"><g transform="translate(0 0)"><g transform="translate(34.23)"><rect class="m" width="421.069" height="268.728" rx="36.106"/></g><path d="M29.4,0H235.692a29.4,29.4,0,0,1,29.4,29.4V388.033a29.4,29.4,0,0,1-29.4,29.4H29.406A29.406,29.406,0,0,1,0,388.032V29.4A29.4,29.4,0,0,1,29.4,0Z" transform="translate(453.483 1.815) rotate(90)"/><g transform="translate(48.452 10.864)"><rect class="n" width="393.05" height="245.75"/></g><path class="f" d="M863.159,1677.993v6.545a7.652,7.652,0,0,1-.06.986,8.513,8.513,0,0,1-8.457,7.531H387.573a8.51,8.51,0,0,1-8.454-7.531,7.691,7.691,0,0,1-.06-.986v-6.545Z" transform="translate(-379.059 -1409.266)"/><path class="o" d="M863.26,1705.793a8.513,8.513,0,0,1-8.457,7.531H387.733a8.51,8.51,0,0,1-8.454-7.531Z" transform="translate(-379.219 -1429.535)"/></g><g transform="translate(126.633 62.993)"><rect class="p" width="239.166" height="147.635" rx="39.769"/><g transform="translate(39.262 20.556)"><rect class="f" width="45.945" height="10.81" rx="5.405" transform="translate(76.025 77.971)"/><rect class="q" width="87.475" height="10.81" rx="5.405" transform="translate(60.01 34.905)"/><rect class="q" width="87.475" height="10.81" rx="5.405" transform="translate(60.01 55.253)"/><g transform="translate(74.581 59.235)"><path class="a" d="M1270.543,1215a1.9,1.9,0,1,1-1.9-1.9A1.9,1.9,0,0,1,1270.543,1215Z" transform="translate(-1266.737 -1213.094)"/><path class="a" d="M1294.627,1215a1.9,1.9,0,1,1-1.9-1.9A1.9,1.9,0,0,1,1294.627,1215Z" transform="translate(-1284.297 -1213.094)"/><path class="a" d="M1318.712,1215a1.9,1.9,0,1,1-1.9-1.9A1.9,1.9,0,0,1,1318.712,1215Z" transform="translate(-1301.857 -1213.094)"/><path class="a" d="M1342.8,1215a1.9,1.9,0,1,1-1.9-1.9A1.9,1.9,0,0,1,1342.8,1215Z" transform="translate(-1319.416 -1213.094)"/><path class="a" d="M1366.881,1215a1.9,1.9,0,1,1-1.9-1.9A1.9,1.9,0,0,1,1366.881,1215Z" transform="translate(-1336.976 -1213.094)"/><path class="a" d="M1390.965,1215a1.9,1.9,0,1,1-1.9-1.9A1.9,1.9,0,0,1,1390.965,1215Z" transform="translate(-1354.536 -1213.094)"/><path class="a" d="M1415.049,1215a1.9,1.9,0,1,1-1.9-1.9A1.9,1.9,0,0,1,1415.049,1215Z" transform="translate(-1372.096 -1213.094)"/><path class="a" d="M1439.134,1215a1.9,1.9,0,1,1-1.9-1.9A1.9,1.9,0,0,1,1439.134,1215Z" transform="translate(-1389.656 -1213.094)"/><path class="a" d="M1463.218,1215a1.9,1.9,0,1,1-1.9-1.9A1.9,1.9,0,0,1,1463.218,1215Z" transform="translate(-1407.215 -1213.094)"/></g><g transform="translate(90.096)"><circle class="q" cx="11.29" cy="11.29" r="11.29"/><g transform="translate(5.014 3.713)"><g transform="translate(2.731)"><path class="d" d="M1356.159,1015.268a3.566,3.566,0,0,0,2.77-1.357,3.476,3.476,0,0,0,.763-2.2,3.547,3.547,0,1,0-7.095,0,3.473,3.473,0,0,0,.763,2.2A3.578,3.578,0,0,0,1356.159,1015.268Z" transform="translate(-1352.597 -1008.145)"/></g><path class="d" d="M1355.066,1043.435c0,2.248-12.551,2.248-12.551,0l0-2.619c.5-3.581,11.527-3.731,12.549,0Z" transform="translate(-1342.515 -1029.966)"/></g></g><path class="r" d="M1263.4,1208.168v-.29a2.127,2.127,0,0,0-4.254,0v.29h-.323V1212c0,.662,4.913.662,4.913,0v-3.833Zm-3.5-.29a1.376,1.376,0,1,1,2.752,0v.29H1259.9Zm1.73,2.221v1.107a.352.352,0,0,1-.37.341.328.328,0,0,1-.341-.341V1210.1a.647.647,0,0,1-.341-.568.681.681,0,1,1,1.051.568Z" transform="translate(-1193.385 -1148.465)"/><g transform="translate(62.929 27.15)"><g transform="translate(2.39 9.987)"><g transform="translate(1.091)"><path class="r" d="M1237.964,1134.307a1.392,1.392,0,0,0,1.081-.529,1.358,1.358,0,0,0,.3-.861,1.385,1.385,0,1,0-2.769,0,1.356,1.356,0,0,0,.3.861A1.4,1.4,0,0,0,1237.964,1134.307Z" transform="translate(-1236.574 -1131.527)"/></g><path class="r" d="M1237.47,1145.3c0,.877-4.924.877-4.924,0l.027-1.022c.193-1.4,4.5-1.456,4.9,0Z" transform="translate(-1232.546 -1140.044)"/></g><path class="a" d="M1288.232,1140.554h-19.909a1.591,1.591,0,0,1-1.586-1.586h0a1.591,1.591,0,0,1,1.586-1.586h19.909a1.591,1.591,0,0,1,1.586,1.586h0A1.591,1.591,0,0,1,1288.232,1140.554Z" transform="translate(-1255.085 -1125.808)"/><path class="a" d="M1244.534,1097.832h-19.223a1.591,1.591,0,0,1-1.586-1.586h0a1.591,1.591,0,0,1,1.586-1.586h19.223a1.591,1.591,0,0,1,1.586,1.586h0A1.591,1.591,0,0,1,1244.534,1097.832Z" transform="translate(-1223.725 -1094.66)"/><path class="a" d="M1385.159,1140.554H1365.25a1.591,1.591,0,0,1-1.586-1.586h0a1.591,1.591,0,0,1,1.586-1.586h19.909a1.591,1.591,0,0,1,1.586,1.586h0A1.591,1.591,0,0,1,1385.159,1140.554Z" transform="translate(-1325.754 -1125.808)"/></g><g transform="translate(0 19.994)"><path class="q" d="M991.434,1140.618v28.038c0,3.116,38.124,3.116,38.124,0v-28.038Z" transform="translate(-991.434 -1121.011)"/><g transform="translate(14.355 25.49)"><circle class="o" cx="4.707" cy="4.707" r="4.707"/><path class="o" d="M1056.606,1197.788h0a1.929,1.929,0,0,1-1.929-1.929v-10.8h3.858v10.8A1.929,1.929,0,0,1,1056.606,1197.788Z" transform="translate(-1051.899 -1178.906)"/></g><path class="q" d="M1035.208,1085.852h-3.859v-1.888a11.863,11.863,0,1,0-23.726,0v1.888h-3.858v-1.888a15.721,15.721,0,0,1,31.443,0Z" transform="translate(-1000.424 -1068.242)"/></g></g></g></g><g transform="translate(289.354 373.839)"><g transform="translate(225.206 151.512)"><path class="s" d="M1667.048,1130.785l1.822,7.324.331,1.362c.368,1.73,11.8.994,10.986-1.031l-.681-1.491-3.515-7.711Z" transform="translate(-1611.374 -1106.666)"/><g transform="translate(46.577)"><g transform="translate(2.413 2.184)"><path class="s" d="M1642.376,1065.044c-.116,7.942,3.57,14.4,9.339,14.372s11.351-4.923,11.553-14.473a10.645,10.645,0,0,0-10.5-10.969C1647,1054,1642.465,1058.958,1642.376,1065.044Z" transform="translate(-1642.373 -1053.974)"/></g><path d="M1646.1,1045.913s-11.5.568-12.452,9.274c-1.276,7.641,4.456,2.023,6.8,7.152,2.681,5.874-.051,10.172-3.536,11.34,3.1,4.325,20.811,4.169,25.369-3.419C1665.4,1060.741,1660.984,1046.441,1646.1,1045.913Z" transform="translate(-1633.466 -1045.913)"/><circle class="s" cx="2.142" cy="2.142" r="2.142" transform="matrix(0.762, -0.647, 0.647, 0.762, 3.69, 16.04)"/></g><path class="q" d="M1645.629,1649.713c-.539-.571-3.081-.58-3.313.264s.216,1.447-.857,2.785a10.875,10.875,0,0,0,3.477,0C1645.606,1652.567,1646.167,1650.283,1645.629,1649.713Z" transform="translate(-1592.717 -1485.847)"/><path class="t" d="M1654.533,1397.051h-6.194c-.579-26.212-.468-54.746-.26-76.236.075-7.7.287-11.589,1.683-16.209,2.819-9.33,16.074-6.457,17.014,2,.392,4.693.679,13.848-8,44.957C1662.536,1365.259,1655.982,1381.681,1654.533,1397.051Z" transform="translate(-1597.421 -1230.301)"/><path class="q" d="M1628.286,1657.831a6.727,6.727,0,0,0,3.444-1.534c.592.662,1.825.845,3.313.623,1.758-.262,1.99-1.079,3.251-.97.532,1.478,1.826,4.794.577,5.564h-13.023C1624.686,1660.452,1624.716,1658.186,1628.286,1657.831Z" transform="translate(-1580.838 -1490.681)"/><g transform="translate(63.66 69.159)"><path class="q" d="M1763.832,1652.334c-.453-.48-2.589-.487-2.784.222s.181,1.216-.72,2.34a9.132,9.132,0,0,0,2.922,0C1763.813,1654.733,1764.285,1652.814,1763.832,1652.334Z" transform="translate(-1743.044 -1556.964)"/><path class="t" d="M1696.9,1308.108c1.267-9.664,18.459-8.671,19.6-.233.413,4.541,1.674,11.375-1.557,45.1,6.815,12.87,4.89,31.336,6.925,44.93.225,2.068-5.634,2.565-6.089.722-6.244-25.22-14.969-53.516-18.212-74.5C1696.392,1316.521,1696.273,1312.894,1696.9,1308.108Z" transform="translate(-1696.525 -1301.201)"/><path class="q" d="M1746.782,1656.486a4.794,4.794,0,0,0,2.659-1.842,3.655,3.655,0,0,0,3.21,1.331c1.758-.262,1.99-1.079,3.251-.97.532,1.478,1.827,4.794.577,5.564h-12.668C1742.649,1659.507,1743.212,1656.842,1746.782,1656.486Z" transform="translate(-1730.604 -1558.895)"/></g><g transform="translate(0 33.316)"><path class="s" d="M1493.992,1259.629l-.641-3.221c1.573-.613,3.958-1.885,6.733-2.965l1.524,5.221C1498.535,1259.121,1495.813,1259.454,1493.992,1259.629Z" transform="translate(-1484.732 -1230.538)"/><path class="u" d="M1518.206,1191.8c5.348-2.486,14.509-7.893,16.616-8.874l22.606-13.879c4.876-1.48,10.561,8.17,4.4,12.525,0,0-34.956,14.388-42.094,15.449Z" transform="translate(-1502.854 -1168.892)"/><g transform="translate(0 25.733)"><path class="s" d="M1479.205,1269.829c-2.187-.656-2.944-3.877-3-4.122l4.524-1.651c2.2-.89,3.461,1.771,2.072,3.693C1482.8,1267.75,1481.288,1270.314,1479.205,1269.829Z" transform="translate(-1472.231 -1263.88)"/><path class="s" d="M1466.56,1270.748c-5.226,1.122-5.023-.158-5.023-.158s1.763-.586,4.947-1.455C1468.323,1268.724,1467.817,1270.341,1466.56,1270.748Z" transform="translate(-1461.536 -1267.663)"/></g></g><path class="u" d="M1647.094,1176.7c-1.086-5.287-1.669-10.508,3.781-13.791,3.231-1.946,13.617-3.337,18.474-1.729,4.894,2.187,3.835,11.725,4.752,26.787,3.372,7.516,4.838,9.986,5.836,17.307,0,0-1.8,5.516-14.513,5.523-5.771,0-14.271-.51-18.137-3.453.386-4.992,2.473-9.8,3.344-16.871C1650.629,1190.472,1647.172,1177.306,1647.094,1176.7Z" transform="translate(-1596.301 -1129.44)"/><g transform="translate(66.432 31.521)"><path class="u" d="M1715.984,1163.549c5.965,4.554,11.783,11.716,14.533,15.519s9.872,19.087,9.872,19.087l-4.533,3.342L1723.6,1184.79l-14.978-12.286C1703.42,1167.2,1710.175,1159.113,1715.984,1163.549Z" transform="translate(-1706.759 -1162.267)"/><path class="s" d="M1816.49,1292.709l-2.938-6.071c-.691,1.826-4.055,3.491-5.021,3.456,0,0,3.159,4.546,3.932,5.319S1816.427,1294.877,1816.49,1292.709Z" transform="translate(-1780.961 -1252.945)"/><g transform="translate(30.546 39.031)"><path class="s" d="M1820.3,1308.945c.012.045,0,.107.01.152a4.362,4.362,0,0,0,2.305,3.5.264.264,0,0,0,.118.047c-1.6-.32-2.075,1.82-1.263,2.313,2.35,1.591,5.7-.6,5.983-1.925.288-1.347-2.39-5.8-2.39-5.8C1823.694,1306.127,1820.2,1306.3,1820.3,1308.945Z" transform="translate(-1820.083 -1306.523)"/><path class="v" d="M1820.339,1314.306a4.211,4.211,0,0,0,2.386,3.532c1.316-.036,1.785-.116,3.042-.113a2.9,2.9,0,0,1-1.851-3.529C1822.628,1313.211,1820.691,1314.073,1820.339,1314.306Z" transform="translate(-1820.115 -1311.733)"/><path class="s" d="M1819.7,1308.634a15.228,15.228,0,0,0,.29,6.29s1.264.067,1.145-2.32c-.031-.621.059-1.97.673-2.418,1.892-1.25,2.2-2.4,1.5-3.338C1822.39,1305.595,1819.777,1306.867,1819.7,1308.634Z" transform="translate(-1819.514 -1306.345)"/><path class="s" d="M1830.449,1332.2c-1.026.712-3.743,2.091-4.171,1.75s1.744-2.652,3.145-2.958S1830.975,1331.835,1830.449,1332.2Z" transform="translate(-1824.406 -1324.277)"/></g></g></g><g transform="translate(184.648)"><path class="w" d="M1441.536,626.026c2.935-4.25.234-17.477-12.3-21.277-10.586-2.729-16.095.619-30.413,4.517l2.136,16.76Z" transform="translate(-1375.258 -572.026)"/><path class="f" d="M1352.56,609.971s-25.648,5.3-35.116,8.78c-5.43,2-6.777,6.488-4.684,9.943,3.1,5.118,39.9,1.488,39.9,1.488C1365.349,626.629,1358.63,609.749,1352.56,609.971Z" transform="translate(-1311.823 -576.556)"/><path class="f" d="M1484.585,604.625s16.379,5.556,25.591,9.669c8.94.7,8.354,11.806,4.122,12.522-9.732,2.641-31.17-2.032-31.17-2.032C1470.7,620.384,1478.543,604,1484.585,604.625Z" transform="translate(-1431.909 -572.648)"/><path class="x" d="M1407.633,602.6s-5.164-7.859,7.652-13.946,21.437,0,19.3,7.367-9.689,12.284-9.689,12.284S1412.119,608.372,1407.633,602.6Z" transform="translate(-1380.928 -559.203)"/><path class="y" d="M1434.371,587.035c6.168-4.281,3.689-12.614,3.689-12.614l-2.335-4.456-1.946-3.71-10.29,3.964,1.873,7.618a19.729,19.729,0,0,0,1.627,3.779C1428.409,584.147,1430.8,587.023,1434.371,587.035Z" transform="translate(-1393.239 -544.685)"/><path class="z" d="M1426.989,581.615a22.411,22.411,0,0,0,8.737-11.65l-1.946-3.71-10.29,3.964,1.873,7.618A19.729,19.729,0,0,0,1426.989,581.615Z" transform="translate(-1393.239 -544.685)"/><g transform="translate(15.673)"><path class="aa" d="M1372.414,529.741a3.992,3.992,0,0,0-2.709,3.461c-.341,2.828,2.468,3.983,2.468,3.983a3.4,3.4,0,0,0,2.047,4.958C1382.138,545.052,1381.366,527.976,1372.414,529.741Z" transform="translate(-1369.676 -517.969)"/><path class="y" d="M1384.9,518.942c2.427,7.159,7.476,13.866,11.54,12.2,6.892-2.831,12.677-10.531,9.816-18.638s-9.007-11.832-15.526-9.532S1382.138,510.8,1384.9,518.942Z" transform="translate(-1379.906 -498.054)"/><path class="aa" d="M1372.452,498.276c1.456,1.235,6.849,3.331,18-2.071a13.021,13.021,0,0,1,4.175,5.637c1.051-.249,1.477-.8,2.2.1,1,1.243,1.527,3.964.284,4.965a2.888,2.888,0,0,1-1.034.532c-.446,1.907-.022,4,1.514,4.47,2.372-1.909,2.085-2.351,2.961-4.549,2.768-1.943,2.774-6.206.546-7.373,2.115-1.983-.439-6.329-3.57-6.474.021-2.4-3.038-6.7-6.883-4.185.111-2.584-4.58-4.279-7.118-.474-2.045-2.789-8.251-1.1-8.012,2.606C1371.761,490.813,1369.7,495.858,1372.452,498.276Z" transform="translate(-1370.778 -486.633)"/></g><g transform="translate(0.937 45.083)"><path class="y" d="M1315.29,658.178s-.649,6.227,10.822,7.224a231.3,231.3,0,0,0,24.091.805l1.175-4.934s-23.176-7.861-28.848-8.2C1315.774,652.661,1315.29,658.178,1315.29,658.178Z" transform="translate(-1315.283 -653.047)"/><path class="y" d="M1442.7,678.947l7.319-1.529s4.716,2.256,6.183,5.189c-1.074,1.2-4-1.334-4-1.334s.3,4.906-.423,5.838-4.313,1.553-5.491.542.872-2.216.872-2.216l-5.353-1.462S1439.317,680.24,1442.7,678.947Z" transform="translate(-1406.888 -670.816)"/></g><path class="y" d="M1461.145,528.325a.2.2,0,1,0-.2.2A.2.2,0,0,0,1461.145,528.325Z" transform="translate(-1420.399 -516.883)"/><g transform="translate(49.892 44.543)"><path class="y" d="M1540,653.163s3.864,4.926-5.317,11.876a231.308,231.308,0,0,1-19.967,13.5l-3.621-3.552s15.436-18.99,20.056-22.3C1536.65,648.751,1540,653.163,1540,653.163Z" transform="translate(-1507.001 -651.054)"/><path class="y" d="M1500.074,735.991l-4.084,6.263s.388,5.214,2.587,7.646c1.512-.563.212-4.212.212-4.212s4.463,2.058,5.593,1.728,3.015-3.454,2.5-4.919-2.381.007-2.381.007l.886-4.662C1506.111,735.242,1501.787,733.367,1500.074,735.991Z" transform="translate(-1495.99 -712.059)"/></g></g><g transform="translate(0 148.463)"><path class="ab" d="M708.473,1055.475c.709,6.685-2.659,13.812-6.9,13.76-5.814-.071-13.331-4.855-14.04-11.54s3.4-12.6,9.186-13.214S707.764,1048.79,708.473,1055.475Z" transform="translate(-671.952 -1041.783)"/><path class="q" d="M630.718,1652.434a51.522,51.522,0,0,1,10.867,0c3.948,2.607,5.651,2.455,5.651,2.455,1.687.442,2.439,2.759.975,2.759H630.225Z" transform="translate(-630.225 -1484.855)"/><path class="q" d="M739.564,1652.434a51.246,51.246,0,0,1,10.866,0c4.348,2.607,6.028,2.455,6.028,2.455,1.755.442,2.862,2.759,1.4,2.759H739.871Z" transform="translate(-709.944 -1484.855)"/><path class="ab" d="M688.488,1109.034l-11.3-3.817,8.189-17.054,7.948,3.817Z" transform="translate(-664.462 -1073.669)"/><path class="ac" d="M736.35,1208.282s8.77,6.426,4.49,13.244c-3.19,5.081-13.4-.422-13.4-6.333C727.439,1209.865,731.541,1206.723,736.35,1208.282Z" transform="translate(-701.103 -1160.956)"/><path class="ad" d="M638.382,1307s-2.109,3.656-3.519,10.937c-.5,2.588.085,14.29-.081,34a413.206,413.206,0,0,0-4.556,51.013l11.36-2.151,17.389-92.738Z" transform="translate(-630.225 -1233.225)"/><path class="ad" d="M694.852,1315.728c2.232,17.5,3.846,33.205,3.991,44.661l2.625,46.776-10.8,2.065c-2.214-14.515-5.9-32.644-6.482-49.459l-11.777-43.906Z" transform="translate(-660.981 -1239.585)"/><path class="ae" d="M647.283,1186.844c.749,4.523,1.156,4.828,1.156,4.828l28.774.636s-.855-4.566-.132-6.928a14.132,14.132,0,0,0-.025-3.846c-.273-2.929-.894-7.2-1.729-11.878-1.795-10.053-4.575-21.976-7.022-26.454l-12.561-3.014s-5.6,5.682-6.835,10.711S646.534,1182.324,647.283,1186.844Z" transform="translate(-642.487 -1111.599)"/><path class="ac" d="M722.644,1236.761l9.533,15.184c-.272-2.929-.895-7.2-1.729-11.878Z" transform="translate(-697.607 -1182.011)"/><path class="ac" d="M706.018,1222.793s-3.379,7.278.13,9.228,7.018-4.289,7.018-4.289Z" transform="translate(-684.418 -1171.827)"/><path class="af" d="M696.5,1151.2l-2.432,15.705-7.569-8.909s-6.8-6.9-12.263-.671,3.066,12.454,3.066,12.454,12.454,10.137,20.406,9.083S700.7,1151.5,700.7,1151.5Z" transform="translate(-660.981 -1119.627)"/><path class="ab" d="M758.03,1121.96l-1.226-5.982,3.127-4.748s1.165-.858,1.594,1.778c.856,1.226,1.9,2.135,1.778,3.52s-1.076,5.73-1.076,5.73Z" transform="translate(-722.513 -1090.39)"/><path class="ag" d="M679.166,1134l.889-2.3,13.307,5.282,1.047,5.778Z" transform="translate(-665.908 -1105.41)"/><path d="M684.235,1057.417s-4.34-6.248-2.982-13.717,12.427-9.032,12.427-9.032,11.544-.679,14.125,11.069c-1.222,1.562-6.248-1.018-6.248-1.018l-8.26,7.538s.1-5.908-2.816-4.414-2.043,6.247-2.043,6.247S685.723,1056.941,684.235,1057.417Z" transform="translate(-667.237 -1034.66)"/></g></g><g transform="translate(623.81 477.575)"><g transform="translate(0 0)"><path class="ah" d="M1864.815,973.77h0c0-.2,0-.292,0-.313Z" transform="translate(-1864.815 -945.31)"/><path class="ah" d="M1864.815,973.77h0c0-.2,0-.292,0-.313Z" transform="translate(-1864.815 -945.31)"/><path class="ah" d="M2311.882,975.769v-.313c0,.021,0,.11,0,.313Z" transform="translate(-2190.769 -946.768)"/><path class="ah" d="M2311.882,975.769v-.313c0,.021,0,.11,0,.313Z" transform="translate(-2190.769 -946.768)"/><path class="ai" d="M1933.316,869.558c-13.407,14.361-34.8,26.131-57.691,31.145-.007,1.529-.045,10-.219,49.042-.233,52.082,49.334,77.534,57.029,81.44,7.456-3.432,57.649-28.844,57.881-80.926.175-39.043.212-47.513.219-49.042C1967.689,896,1946.594,884.038,1933.316,869.558Z" transform="translate(-1872.536 -869.558)"/><g transform="translate(6.428 5.649)"><path class="f" d="M1942.776,890.409c-13.821,12.678-32.968,22.643-54.023,28.075l-.208,46.455c-.095,21.256,8.35,40.486,25.1,57.156a120.064,120.064,0,0,0,28.449,20.8c.252-.128.53-.272.8-.414V890.517C1942.856,890.481,1942.814,890.446,1942.776,890.409Z" transform="translate(-1888.544 -890.409)"/><path class="c" d="M2089.176,890.808v151.965a120.127,120.127,0,0,0,27.832-20.132c16.9-16.52,25.514-35.673,25.609-56.93l.208-46.456C2121.879,913.653,2102.873,903.558,2089.176,890.808Z" transform="translate(-2034.824 -890.7)"/></g><path class="ae" d="M2007.462,1062.688c-11.9,1.834-28.093,12.684-38.312,25.729-1.433-6.151-7.868-11.766-11.234-12.994l-10.2,10.252c6.368,2.87,13.327,11,14.25,19.326l10.189,1.579c4.3-8.485,15.39-28.782,37.462-39.7A16.725,16.725,0,0,0,2007.462,1062.688Z" transform="translate(-1914.502 -1002.742)"/></g></g></g></g></svg>