<svg xmlns="http://www.w3.org/2000/svg" width="324.494" height="257.598" viewBox="0 0 324.494 257.598"><defs><style>.a{fill:#ecf3fe;}.b{fill:#dfe5ea;}.c{fill:#5b97ef;}.d{fill:#fff;}.e{fill:#e4ecf9;}.f{fill:#162a6f;}.g{fill:#474747;opacity:0.29;}.h{fill:#3565b9;}.i{fill:#3b82f4;}.j{fill:#232323;opacity:0.1;}.k{fill:#727272;}.l{fill:#302f2f;}.m{fill:#f4b698;}.n{opacity:0.28;}.o{fill:#e29586;}.p{fill:#565656;}.q{fill:#363636;opacity:0.2;}.r{fill:#eee;}.s{fill:#f4b545;}.t{fill:#ffdca4;}.u{fill:#e09f36;}.v{fill:#f4cb95;}.w{fill:#d8a471;}.x{fill:#edc28e;}.y{fill:#e5b67f;}.z{fill:#cc8e2b;}.aa{fill:#e29d2d;}.ab{fill:#4786d1;}</style></defs><g transform="translate(-844.453 -681.186)"><g transform="translate(844.453 681.186)"><path class="a" d="M919.936,729.66a82.181,82.181,0,0,1,10.4-17.179c33.721-42.743,99.983-39.142,138.837-4.688C1112.268,746,1108.284,810.315,1107.4,821.3c-3.064,38.226-22.218,100.45-66.275,113.125-20.467,5.888-40-.733-57.035-13.017-13.456-9.7-31.2-8.8-44.041,2.576a60.676,60.676,0,0,1-16.29,10.513c-13.616,5.828-25.736,4.266-30.986,3.521-40.925-5.808-80.9-54.086-80.526-99.227C812.683,786.995,866.187,747.263,919.936,729.66Z" transform="translate(-812.248 -681.186)"/><g transform="translate(63.373 41.273)"><path class="b" d="M1785.5,1840.235v101.841c0,.124-.006.248-.012.378,0,.059-.006.118-.012.177s-.006.112-.012.171c0,.023-.006.047-.006.07-.006.042-.012.077-.018.112-.006.089-.023.177-.035.266s-.03.171-.047.254a.9.9,0,0,1-.03.124.266.266,0,0,1-.018.094.923.923,0,0,1-.03.124c-.018.077-.041.153-.059.224a.107.107,0,0,1-.012.041c-.041.13-.077.26-.124.384a.022.022,0,0,1-.006.018c-.024.065-.047.13-.071.189s-.047.112-.065.165a.242.242,0,0,0-.018.047c-.071.159-.142.325-.224.478-.024.047-.053.106-.083.159s-.059.1-.088.153-.053.1-.089.147c-.059.1-.124.2-.189.295-.041.065-.083.118-.118.177-.1.13-.195.26-.3.384q-.115.142-.23.265c-.077.088-.159.171-.242.254-.035.042-.077.077-.118.118a.876.876,0,0,1-.112.1c-.041.042-.088.083-.136.124-.012.012-.03.024-.042.035-.112.1-.23.195-.348.283a.167.167,0,0,0-.035.029c-.094.065-.189.136-.289.2-.035.023-.065.047-.094.065-.053.035-.106.071-.159.1a.909.909,0,0,1-.13.077,1.6,1.6,0,0,1-.141.083,6.642,6.642,0,0,1-1.038.478c-.023.006-.041.018-.065.024s-.053.018-.077.024c-.083.03-.166.059-.254.083-.148.047-.3.083-.443.118l-.23.053a1.3,1.3,0,0,1-.147.024l-.183.035c-.012,0-.018,0-.024.006l-.147.018c-.024,0-.047.006-.071.006l-.13.018c-.024,0-.047.006-.077.006l-.272.018c-.13.006-.259.012-.389.012H1598.286c-.13,0-.26-.006-.389-.012l-.271-.018a2.7,2.7,0,0,1-.3-.036,1.509,1.509,0,0,1-.171-.023c-.141-.018-.283-.047-.419-.077a.832.832,0,0,1-.118-.029c-.148-.035-.3-.071-.442-.118-.089-.03-.171-.053-.254-.083a7.94,7.94,0,0,1-1.144-.5l-.266-.159c-.1-.059-.2-.124-.3-.189a7.362,7.362,0,0,1-1.552-1.41,4.9,4.9,0,0,1-.3-.39,6.967,6.967,0,0,1-.808-1.451c-.047-.118-.094-.248-.141-.372s-.083-.254-.124-.384-.071-.26-.1-.389-.053-.242-.077-.366c-.006-.018-.006-.041-.012-.059-.018-.118-.035-.242-.047-.36a.045.045,0,0,1-.006-.03c-.012-.094-.018-.183-.024-.277-.018-.183-.024-.366-.024-.554V1840.235a7.259,7.259,0,0,1,2.655-5.623.348.348,0,0,1,.047-.036l.377-.289a7.23,7.23,0,0,1,4.207-1.339h179.925a4.949,4.949,0,0,1,.519.024.252.252,0,0,1,.094.006c.165.012.336.03.5.053l.112.018c.141.024.283.053.419.089a.661.661,0,0,1,.106.023c.171.041.336.088.5.142s.313.106.46.165a5.891,5.891,0,0,1,.619.289,3.492,3.492,0,0,1,.33.177,4.73,4.73,0,0,1,.543.354c.006-.006.006,0,.006,0l.377.289a.337.337,0,0,1,.047.036c.1.077.189.159.278.242.07.059.135.124.2.189a6.315,6.315,0,0,1,.566.625q.124.15.23.3a6.868,6.868,0,0,1,.773,1.357c.059.13.112.266.165.4,0,.006.006.012.006.018a6.8,6.8,0,0,1,.206.667c.03.112.053.218.077.33.018.088.035.171.048.26s.029.177.041.266a2.9,2.9,0,0,1,.035.319,2.128,2.128,0,0,1,.018.271C1785.491,1839.982,1785.5,1840.111,1785.5,1840.235Z" transform="translate(-1591 -1764.689)"/><path class="c" d="M1789.214,1188.238H1595.59a7.283,7.283,0,0,1,2.218-3.133.332.332,0,0,1,.047-.036l.377-.289,89.706-68.095a7.372,7.372,0,0,1,8.926,0l89.7,68.095c.006-.006.006,0,.006,0l.378.289a.338.338,0,0,1,.047.036c.1.077.189.159.277.242.07.059.136.124.2.189a6.416,6.416,0,0,1,.567.625c.082.1.159.2.23.3a6.837,6.837,0,0,1,.773,1.357c.059.13.112.266.165.4C1789.208,1188.226,1789.214,1188.232,1789.214,1188.238Z" transform="translate(-1595.154 -1115.181)"/><path class="d" d="M84.484,0h0a84.484,84.484,0,0,1,84.484,84.484v81.873a0,0,0,0,1,0,0H0a0,0,0,0,1,0,0V84.484A84.484,84.484,0,0,1,84.484,0Z" transform="translate(11.563 13.015)"/><rect class="e" width="130.483" height="7.67" rx="3.835" transform="translate(30.806 42.156)"/><path class="e" d="M3.835,0H126.648a3.835,3.835,0,0,1,3.835,3.835v0a3.835,3.835,0,0,1-3.835,3.835H3.835A3.835,3.835,0,0,1,0,3.835v0A3.835,3.835,0,0,1,3.835,0Z" transform="translate(30.806 58.541)"/><path class="e" d="M3.835,0H126.648a3.835,3.835,0,0,1,3.835,3.835v0a3.835,3.835,0,0,1-3.835,3.835H3.835A3.835,3.835,0,0,1,0,3.835v0A3.835,3.835,0,0,1,3.835,0Z" transform="translate(30.806 74.926)"/><path class="e" d="M3.835,0H126.648a3.835,3.835,0,0,1,3.835,3.835v0a3.835,3.835,0,0,1-3.835,3.835H3.835A3.835,3.835,0,0,1,0,3.835v0A3.835,3.835,0,0,1,3.835,0Z" transform="translate(30.806 91.311)"/><path class="e" d="M3.835,0H126.648a3.835,3.835,0,0,1,3.835,3.835v0a3.835,3.835,0,0,1-3.835,3.835H3.835A3.835,3.835,0,0,1,0,3.835v0A3.835,3.835,0,0,1,3.835,0Z" transform="translate(30.806 107.696)"/><path class="f" d="M1688.252,1893.888v.006a4.778,4.778,0,0,1-1,.826l-88.561,54.643h-.4a7.124,7.124,0,0,1-2.112-.312c-.094-.03-.189-.059-.277-.089a7.215,7.215,0,0,1-3-1.988q-.115-.124-.23-.265a6.764,6.764,0,0,1-.608-.855c-.065-.1-.118-.2-.177-.3s-.112-.212-.159-.319a7.245,7.245,0,0,1-.72-3.156V1840.235a7.259,7.259,0,0,1,2.655-5.623.348.348,0,0,1,.047-.036l.377-.289a7.23,7.23,0,0,1,4.207-1.339h1.664l7.776,4.8,71.682,44.23,2.7,1.664,5.144,3.174a4.777,4.777,0,0,1,1,.826v.006A4.661,4.661,0,0,1,1688.252,1893.888Z" transform="translate(-1591 -1764.689)"/><path class="f" d="M2699.409,1840.235v101.841c0,.124-.006.248-.012.378,0,.059-.006.118-.011.177s-.006.112-.012.171c0,.023-.006.047-.006.07-.006.042-.012.077-.018.112-.006.089-.023.177-.035.266s-.03.171-.047.254c0,.012-.006.03-.006.041a.627.627,0,0,1-.024.083.264.264,0,0,1-.018.094.983.983,0,0,1-.03.124c-.018.077-.035.147-.059.224a.107.107,0,0,1-.012.041c-.036.13-.076.26-.124.384a.022.022,0,0,1-.006.018c-.023.065-.041.124-.071.189s-.042.106-.065.165a.424.424,0,0,0-.018.047c-.071.159-.141.325-.224.478-.024.047-.053.106-.083.159s-.059.1-.088.153-.053.1-.089.147c-.059.1-.124.2-.189.295-.041.065-.083.118-.118.177-.1.136-.2.26-.3.384q-.115.142-.23.265c-.077.088-.159.171-.242.254-.035.042-.076.077-.118.118a.894.894,0,0,1-.112.1c-.041.042-.089.083-.136.124-.012.012-.029.024-.041.035-.112.1-.23.195-.348.283a.163.163,0,0,0-.035.029c-.094.065-.189.136-.289.2-.035.023-.065.047-.094.065-.053.035-.106.071-.159.1a.886.886,0,0,1-.13.077,1.6,1.6,0,0,1-.142.083,6.632,6.632,0,0,1-1.038.478c-.023.006-.047.018-.065.024s-.053.018-.077.024c-.083.03-.165.059-.254.083-.147.047-.295.083-.442.118l-.23.053a1.291,1.291,0,0,1-.147.024l-.183.035h-.018c-.053.006-.106.018-.153.024-.023,0-.047.006-.071.006l-.13.018c-.024,0-.047.006-.076.006l-.271.018c-.13.006-.26.012-.389.012h-.4l-88.561-54.643a4.6,4.6,0,0,1-1-.826v-.006a4.648,4.648,0,0,1,0-6.242v-.006a4.6,4.6,0,0,1,1-.826l5.138-3.174,2.7-1.664,71.688-44.23,7.776-4.8h1.664a4.946,4.946,0,0,1,.519.024.252.252,0,0,1,.094.006c.165.012.336.03.5.053l.113.018c.141.024.283.053.419.089a.668.668,0,0,1,.106.023c.171.041.336.088.5.142s.313.106.46.165a5.879,5.879,0,0,1,.619.289,3.524,3.524,0,0,1,.331.177,4.742,4.742,0,0,1,.543.354c.006-.006.006,0,.006,0l.378.289a.362.362,0,0,1,.047.036c.1.077.189.159.277.242.071.059.136.124.2.189a6.31,6.31,0,0,1,.566.625q.125.15.23.3a6.849,6.849,0,0,1,.773,1.357c.059.13.112.266.165.4,0,.006.006.012.006.018a6.669,6.669,0,0,1,.206.667c.03.112.053.218.077.33.018.088.035.171.047.26s.029.177.041.266a2.929,2.929,0,0,1,.035.319,2.106,2.106,0,0,1,.018.271C2699.4,1839.982,2699.409,1840.111,2699.409,1840.235Z" transform="translate(-2504.912 -1764.689)"/><path class="g" d="M1785.5,2373.1v1.059a7.452,7.452,0,0,1-7.286,7.605H1598.286a7.452,7.452,0,0,1-7.286-7.605V2373.1l92.543-60.888a8.507,8.507,0,0,1,9.4,0Z" transform="translate(-1591 -2197.095)"/><path class="h" d="M1785.5,2401.822v1.015a7.287,7.287,0,0,1-7.286,7.286H1598.286a7.287,7.287,0,0,1-7.286-7.286v-1.015l92.543-58.331a8.818,8.818,0,0,1,9.4,0Z" transform="translate(-1591 -2225.449)"/><rect class="i" width="60.472" height="7.67" rx="3.835" transform="translate(30.806 25.771)"/></g><path class="j" d="M3009.016,1929.874a2.094,2.094,0,0,0-2.217-1.952l-80.509,5.117a2.1,2.1,0,0,0-1.952,2.217l2.079,32.7a2.1,2.1,0,0,0,2.217,1.952l80.509-5.118a2.1,2.1,0,0,0,1.952-2.217Z" transform="translate(-2734.159 -1809.353)"/><g transform="translate(190.349 115.558)"><path class="d" d="M3030.552,1933.179l-80.509,5.118a2.1,2.1,0,0,1-2.217-1.952l-2.079-32.7a2.1,2.1,0,0,1,1.952-2.217l80.509-5.117a2.1,2.1,0,0,1,2.217,1.952l2.079,32.7A2.1,2.1,0,0,1,3030.552,1933.179Z" transform="translate(-2943.881 -1896.303)"/><path class="i" d="M3396.893,1967.556l-35.132,2.233a1.656,1.656,0,0,1-1.753-1.543l-.005-.083a1.657,1.657,0,0,1,1.543-1.753l35.133-2.233a1.656,1.656,0,0,1,1.753,1.543l.005.083A1.657,1.657,0,0,1,3396.893,1967.556Z" transform="translate(-3318.742 -1957.719)"/><path class="a" d="M3401.82,2045.062l-35.133,2.233a1.657,1.657,0,0,1-1.753-1.544l-.005-.083a1.656,1.656,0,0,1,1.544-1.753l35.132-2.233a1.656,1.656,0,0,1,1.753,1.543l.005.083A1.657,1.657,0,0,1,3401.82,2045.062Z" transform="translate(-3323.2 -2027.854)"/><path class="a" d="M3406.746,2122.568l-35.132,2.233a1.656,1.656,0,0,1-1.753-1.543l-.005-.083a1.657,1.657,0,0,1,1.543-1.753l35.133-2.233a1.656,1.656,0,0,1,1.753,1.544l.005.082A1.657,1.657,0,0,1,3406.746,2122.568Z" transform="translate(-3327.657 -2097.989)"/><path class="a" d="M3411.673,2200.073l-35.133,2.233a1.657,1.657,0,0,1-1.753-1.543l-.005-.083a1.657,1.657,0,0,1,1.543-1.753l35.133-2.233a1.657,1.657,0,0,1,1.753,1.543l.005.083A1.656,1.656,0,0,1,3411.673,2200.073Z" transform="translate(-3332.116 -2168.123)"/><g transform="translate(0 0.552)"><circle class="a" cx="15.506" cy="15.506" r="15.506" transform="translate(0 21.929) rotate(-45)"/><g transform="translate(13.427 9.557)"><path class="k" d="M3099.41,2201.216a12.227,12.227,0,0,1-2.652,1.779,11.845,11.845,0,0,1-1.521.632,12.02,12.02,0,0,1-1.717.446,12.346,12.346,0,0,1-9.154-1.9,7.15,7.15,0,0,1,4.088-3.737h0a0,0,0,0,1,0,0,6.634,6.634,0,0,1,.969-.265l.04-.009a6.985,6.985,0,0,1,.9-.115l2.575-.164a6.8,6.8,0,0,1,.9,0,.165.165,0,0,1,.041,0,6.724,6.724,0,0,1,1,.141h0A7.146,7.146,0,0,1,3099.41,2201.216Z" transform="translate(-3082.749 -2179.295)"/><path class="l" d="M3091.614,2009.2l.527,8.3a3.314,3.314,0,0,1-3.1,3.52l-7.8.5a3.316,3.316,0,0,1-3.519-3.1l-.527-8.3c-.469-7.368,6.76-7.494,6.76-7.494a8.588,8.588,0,0,1,3.766.572,6.143,6.143,0,0,1,3.821,5.3C3091.576,2008.725,3091.6,2008.96,3091.614,2009.2Z" transform="translate(-3076.244 -2002.601)"/><path class="m" d="M3141.155,2167.953l.155,2.44a2.263,2.263,0,0,1-4.454.283l-.155-2.44a1.69,1.69,0,0,1,.386-1.167,1.97,1.97,0,0,1,.205-.222,2.245,2.245,0,0,1,.488-.347,2.586,2.586,0,0,1,2.084-.133,2.252,2.252,0,0,1,.527.281l.025.017a1.9,1.9,0,0,1,.208.178A1.692,1.692,0,0,1,3141.155,2167.953Z" transform="translate(-3130.104 -2150.649)"/><path class="n" d="M3102.89,2040.954l.226,3.553a5.841,5.841,0,0,1-3.472,5.7l.06.937a5.761,5.761,0,0,1-1.967.48l-.476.031a5.762,5.762,0,0,1-2.011-.227l-.06-.937a5.84,5.84,0,0,1-4.165-5.211l-.226-3.553a5.838,5.838,0,0,1,5.439-6.149l.476-.03a5.783,5.783,0,0,1,3.69,1.038h0A5.82,5.82,0,0,1,3102.89,2040.954Z" transform="translate(-3088.561 -2032.4)"/><path class="m" d="M3102.28,2031.122l.284,4.463a5.784,5.784,0,0,1-.821,3.357l0,0a6.188,6.188,0,0,1-.454.649,5.859,5.859,0,0,1-2.193,1.687,5.756,5.756,0,0,1-1.967.479l-.476.03a5.732,5.732,0,0,1-2.01-.226,5.842,5.842,0,0,1-4.167-5.212l-.282-4.439c0-.062-.006-.124-.008-.186a5.832,5.832,0,0,1,5.445-6.015l.476-.03a5.833,5.833,0,0,1,6.176,5.438Z" transform="translate(-3088.01 -2023.478)"/><g transform="translate(14.272 7.664)"><path class="m" d="M3219.908,2085.369a2.331,2.331,0,0,1-2.178,2.474l-.3-4.653a2.323,2.323,0,0,1,.921.127l0,0A2.331,2.331,0,0,1,3219.908,2085.369Z" transform="translate(-3217.434 -2083.186)"/><path class="o" d="M3219.556,2093.872a1.443,1.443,0,0,1-1.349,1.532l-.183-2.881A1.443,1.443,0,0,1,3219.556,2093.872Z" transform="translate(-3217.968 -2091.633)"/></g><path class="p" d="M3133.773,2199.54h0l-1.361,6.048a12.4,12.4,0,0,1-2.95.188l-2.116-5.827v0l1.229-.078.047.042,2.067,1.883,1.816-2.13.04-.047Z" transform="translate(-3121.642 -2180.811)"/><g transform="translate(0 8.437)"><path class="m" d="M3069.54,2091.317l.3,4.653a2.331,2.331,0,0,1-.814-4.56c.035-.011.071-.021.107-.028l.058-.012A2.253,2.253,0,0,1,3069.54,2091.317Z" transform="translate(-3067.358 -2091.317)"/><path class="o" d="M3076.689,2102.163a1.443,1.443,0,0,0,1.532,1.349l-.183-2.881A1.444,1.444,0,0,0,3076.689,2102.163Z" transform="translate(-3075.799 -2099.745)"/></g><path class="p" d="M3199.873,2251.807a11.775,11.775,0,0,1-1.521.632l-.034-.533Z" transform="translate(-3185.864 -2228.107)"/><path class="q" d="M3162.5,2201.789l1.806,1.116,1.278-3.372Z" transform="translate(-3153.454 -2180.805)"/><path class="r" d="M3165.586,2197.583l-1.315,3.259-1.769-1,1.855-2.178.242-.283Z" transform="translate(-3153.454 -2178.854)"/><path class="q" d="M3127.351,2203.829l1.678,3.184,1.665-1.336Z" transform="translate(-3121.646 -2184.692)"/><path class="r" d="M3130.694,2202.553l-1.625,1.219-1.718-3.066.953-.328.276.25Z" transform="translate(-3121.646 -2181.569)"/><path class="l" d="M3191.1,2019.923c-4.313.588-4.15-3.359-3.82-5.3A6.142,6.142,0,0,1,3191.1,2019.923Z" transform="translate(-3175.742 -2013.476)"/><path class="l" d="M3090.321,2019.271c-.134.248-1.457,3.031-4.145,3.2s-6.855,2.057-6.815,4.743-3.887-7.962,4.224-9.327S3090.321,2019.271,3090.321,2019.271Z" transform="translate(-3077.39 -2016.091)"/></g></g></g><path class="j" d="M3032.019,1564.283l-7.727-31.846a2.1,2.1,0,0,0-2.522-1.537l-78.4,19.022a2.1,2.1,0,0,0-1.537,2.522l7.727,31.846a2.1,2.1,0,0,0,2.522,1.537l78.4-19.022A2.1,2.1,0,0,0,3032.019,1564.283Z" transform="translate(-2749.943 -1450.039)"/><g transform="translate(193.162 77.486)"><rect class="s" width="84.849" height="36.947" rx="18.473" transform="translate(0 20.007) rotate(-13.639)"/><g transform="translate(1.017 11.771)"><circle class="t" cx="15.363" cy="15.363" r="15.363" transform="translate(0 21.727) rotate(-45)"/><g transform="translate(13.387 8.253)"><path class="s" d="M3153.852,1926.311a2.32,2.32,0,0,1-.252.052h0a13.093,13.093,0,0,1-7.471-.615,7.232,7.232,0,0,1,3.461-4.657h0a6.38,6.38,0,0,1,.914-.433,6.977,6.977,0,0,1,.906-.287l2.529-.614a7.011,7.011,0,0,1,.932-.159h0a6.459,6.459,0,0,1,1.011-.034,7.182,7.182,0,0,1,3.926,1.36A7.307,7.307,0,0,1,3161,1922a13.164,13.164,0,0,1-6.156,4.051c-.111.037-.224.069-.342.1a.24.24,0,0,1-.053.018h0a.2.2,0,0,1-.073.017.151.151,0,0,1-.063.016c-.084.03-.175.052-.266.074l-.064.015-.077.019-.023.006Z" transform="translate(-3142.425 -1899.297)"/><path class="u" d="M3111.672,1719.025s-2.869-8.362,1.767-9.666,6.259-2.952,7.474-2.829,3.96,7.687,4.03,9.274S3111.672,1719.025,3111.672,1719.025Z" transform="translate(-3110.455 -1706.524)"/><path class="v" d="M3192.911,1893.516l.581,2.393a2.28,2.28,0,0,1-4.369,1.06l-.58-2.393a1.7,1.7,0,0,1,.179-1.226,1.847,1.847,0,0,1,.165-.256,2.238,2.238,0,0,1,.423-.429,2.6,2.6,0,0,1,2.044-.5,2.244,2.244,0,0,1,.572.187l.027.013a1.957,1.957,0,0,1,.238.14A1.7,1.7,0,0,1,3192.911,1893.516Z" transform="translate(-3180.768 -1874.475)"/><path class="w" d="M3138.652,1767.078l.846,3.485a5.882,5.882,0,0,1-2.447,6.258l.223.919a5.8,5.8,0,0,1-1.867.82l-.467.114a5.8,5.8,0,0,1-2.035.127l-.223-.919a5.883,5.883,0,0,1-5.043-4.441l-.846-3.485a5.881,5.881,0,0,1,4.321-7.051l.467-.113a5.829,5.829,0,0,1,3.843.383h0A5.861,5.861,0,0,1,3138.652,1767.078Z" transform="translate(-3124.788 -1757.291)"/><path class="v" d="M3136.31,1757.46l1.062,4.379a5.8,5.8,0,0,1-.127,3.2c-.051.157-.114.312-.178.462a5.207,5.207,0,0,1-.26.537,5.836,5.836,0,0,1-3.748,2.879l-.464.113a5.875,5.875,0,0,1-7.078-4.314l-1.1-4.542a5.859,5.859,0,0,1,.983-4.641,5.383,5.383,0,0,1,.483-.586,5.805,5.805,0,0,1,2.888-1.688l.464-.112a5.689,5.689,0,0,1,2.634-.02,4.636,4.636,0,0,1,.5.13,5.477,5.477,0,0,1,.589.22A5.855,5.855,0,0,1,3136.31,1757.46Z" transform="translate(-3122.665 -1748.563)"/><g transform="translate(13.653 8.852)"><path class="x" d="M3253.62,1801.4a2.348,2.348,0,0,1-1.728,2.835l-1.107-4.563a2.337,2.337,0,0,1,.936-.035h0A2.348,2.348,0,0,1,3253.62,1801.4Z" transform="translate(-3250.784 -1799.604)"/><path class="w" d="M3254.755,1810.119a1.453,1.453,0,0,1-1.07,1.756l-.686-2.826A1.454,1.454,0,0,1,3254.755,1810.119Z" transform="translate(-3252.788 -1808.113)"/></g><g transform="translate(0 11.796)"><path class="x" d="M3109.016,1830.562l1.107,4.563a2.348,2.348,0,0,1-1.605-4.381c.033-.017.067-.033.1-.047l.056-.022A2.235,2.235,0,0,1,3109.016,1830.562Z" transform="translate(-3107.222 -1830.562)"/><path class="w" d="M3116.663,1841.453a1.454,1.454,0,0,0,1.756,1.07l-.686-2.826A1.454,1.454,0,0,0,3116.663,1841.453Z" transform="translate(-3115.728 -1838.828)"/></g><path class="y" d="M3184.483,1760.073l1.063,4.379a5.8,5.8,0,0,1-.127,3.2c-.051.157-.114.312-.178.462-.871-8.531-2.546-9.391-4.5-8.9-2.1.522-3.214-1.954-3.214-1.954l3.016-1.39a5.461,5.461,0,0,1,.589.22A5.854,5.854,0,0,1,3184.483,1760.073Z" transform="translate(-3170.838 -1751.177)"/><path class="z" d="M3233.982,1924.153l.784.814-1.486,2.889c-.111.037-.224.069-.342.1a.24.24,0,0,1-.054.018h0a.2.2,0,0,1-.073.018l.7-4.434,0-.01.116-.73,0-.006.01-.074-.287-1.18,1.71,1.758-1.023.8Z" transform="translate(-3220.864 -1901.106)"/><path class="d" d="M3196.418,1935.609l.063-.015a2.6,2.6,0,0,0,.266-.074.152.152,0,0,0,.063-.015.2.2,0,0,0,.073-.018h0l.171-.522.9-2.811-.177-.731.4-.636-.5-.926a2.492,2.492,0,0,1-.081.241l-.007.011,0,.009a4.847,4.847,0,0,1-1.247,1.937,2.848,2.848,0,0,1-.51.354,3.021,3.021,0,0,1-.84-.152,4.724,4.724,0,0,1-1.764-1.091l-.007-.008a2.424,2.424,0,0,1-.182-.177l-.023,1.054.65.381.177.731,1.8,1.794.68.681.006,0Z" transform="translate(-3184.867 -1908.621)"/><path class="u" d="M3233.434,1922.684l.727.857-1.828,2.987a.241.241,0,0,1-.053.018h0a.2.2,0,0,1-.073.018.156.156,0,0,1-.064.015l.674-4.254v0l.18-1.14,0-.009.007-.011-.287-1.18,1.747,1.908-1.116.689Z" transform="translate(-3220.26 -1899.68)"/><path class="z" d="M3189.074,1938.214a2.279,2.279,0,0,1-.252.051h0l-2.749-1.876.324-1.083-.07-.011-1.274-.239.714-2.346.25,1.031.036.15.007.008.022.033.007.008.452.616v0l2.659,3.628-.077.019-.022.005Z" transform="translate(-3177.647 -1911.2)"/><path class="u" d="M3189.074,1936.788l-3-1.824.254-1.095.033-.138-1.308-.1.678-2.5.036.15.25,1.031.007.008.689.938v0l2.551,3.481-.064.016-.077.019-.022.006Z" transform="translate(-3177.647 -1909.774)"/><path class="u" d="M3127.528,1745.351a30.856,30.856,0,0,0-3.609-.035,10.137,10.137,0,0,0-2.276.9,11.072,11.072,0,0,0-2.388,2.115l-.167.663a2.032,2.032,0,0,0-.25.527c0,.057.01.245.013.416l-.137.547c.032-.022.111-.068.205-.133l.26.43a5.069,5.069,0,0,1,1.223-1.734,4.672,4.672,0,0,1,4.181-.685c2.539,1.058,6.333-.839,6.333-.839Z" transform="translate(-3117.62 -1741.58)"/></g></g><path class="aa" d="M3409.509,1579.085l-34.211,8.3a1.656,1.656,0,0,1-1.994-1.216l-.02-.08a1.656,1.656,0,0,1,1.216-1.995l34.21-8.3a1.657,1.657,0,0,1,1.995,1.216l.02.08A1.657,1.657,0,0,1,3409.509,1579.085Z" transform="translate(-3333.534 -1568.16)"/><path class="t" d="M1.693,0h35.12a1.693,1.693,0,0,1,1.693,1.693v0a1.693,1.693,0,0,1-1.693,1.693H1.693A1.693,1.693,0,0,1,0,1.693v0A1.693,1.693,0,0,1,1.693,0Z" transform="translate(41.102 23.501) rotate(-13.639)"/><path class="t" d="M1.693,0H36.814a1.693,1.693,0,0,1,1.693,1.693v0a1.693,1.693,0,0,1-1.693,1.693H1.693A1.693,1.693,0,0,1,0,1.693v0A1.693,1.693,0,0,1,1.693,0Z" transform="translate(42.843 30.679) rotate(-13.639)"/><path class="t" d="M1.693,0H36.814a1.693,1.693,0,0,1,1.693,1.693v0a1.693,1.693,0,0,1-1.693,1.693H1.693A1.693,1.693,0,0,1,0,1.693v0A1.693,1.693,0,0,1,1.693,0Z" transform="translate(44.585 37.856) rotate(-13.639)"/></g><g transform="translate(258.684 118.003)"><circle class="j" cx="23.267" cy="23.267" r="23.267" transform="translate(0 32.905) rotate(-45)"/><g transform="translate(14.583 6.858)"><circle class="s" cx="23.267" cy="23.267" r="23.267"/><g transform="translate(7 7.196)"><path class="d" d="M3892.091,2079.125l.551-1.827,4.416.314-3.4,11.814a9.513,9.513,0,0,0-.341,1.49.874.874,0,0,0,.15.615.592.592,0,0,0,.444.25,4.155,4.155,0,0,0,2.417-1.013,10.248,10.248,0,0,0,2.722-3.034,9.82,9.82,0,0,0,.886-8.2,8.813,8.813,0,0,0-1.981-3.234,10.223,10.223,0,0,0-3.41-2.294,14.577,14.577,0,0,0-4.74-1.078,16.754,16.754,0,0,0-5.053.355,12.678,12.678,0,0,0-4.143,1.757,11.472,11.472,0,0,0-3.111,3.082,14.308,14.308,0,0,0-1.825,3.67,16.909,16.909,0,0,0-.837,4.194,12.018,12.018,0,0,0,.772,5.343,10.681,10.681,0,0,0,3.045,4.236,13.7,13.7,0,0,0,5.114,2.667,22.206,22.206,0,0,0,6.974.774,16.633,16.633,0,0,0,5.344-1.032,10.348,10.348,0,0,0,3.846-2.652l3.563.253a11.855,11.855,0,0,1-2.494,3.034,12.868,12.868,0,0,1-3.438,2.135,17.061,17.061,0,0,1-4.3,1.165,24.1,24.1,0,0,1-5.1.141,23.808,23.808,0,0,1-7.333-1.606,15.233,15.233,0,0,1-5.325-3.506,13.222,13.222,0,0,1-3.059-5.094,16.343,16.343,0,0,1-.711-6.313,18.49,18.49,0,0,1,1.662-6.574,15.345,15.345,0,0,1,9.512-8.318,19.009,19.009,0,0,1,7.193-.783,17.584,17.584,0,0,1,5.764,1.343,12.947,12.947,0,0,1,4.352,2.991,11.651,11.651,0,0,1,2.593,4.329,13.559,13.559,0,0,1,.621,5.332,12.683,12.683,0,0,1-3.691,8.035,11.212,11.212,0,0,1-3.714,2.459,9.78,9.78,0,0,1-4.437.685,4.054,4.054,0,0,1-2.075-.61,2.274,2.274,0,0,1-.9-1.535,6.5,6.5,0,0,1-3.475,1.577,6.253,6.253,0,0,1-3.639-.612,6.1,6.1,0,0,1-2.694-2.655,7.781,7.781,0,0,1-.793-4.327,12.659,12.659,0,0,1,1.5-5.089,10.7,10.7,0,0,1,3.509-3.937,7.486,7.486,0,0,1,4.825-1.288A4.835,4.835,0,0,1,3892.091,2079.125Zm-9.767,8.014a4.921,4.921,0,0,0,.617,3.138,2.656,2.656,0,0,0,2.116,1.227,3.728,3.728,0,0,0,2.857-1.058,8.165,8.165,0,0,0,2.041-3.041,12.076,12.076,0,0,0,.882-3.661,5.682,5.682,0,0,0-.1-1.613,3.8,3.8,0,0,0-.53-1.291,2.712,2.712,0,0,0-.929-.881,3.007,3.007,0,0,0-1.293-.37,3.72,3.72,0,0,0-2.733.958,7.494,7.494,0,0,0-2.027,2.848A11.492,11.492,0,0,0,3882.324,2087.14Z" transform="translate(-3871.678 -2069.796)"/></g></g></g></g><path class="ab" d="M3262.938,868.979l2.515-1.322a.777.777,0,0,1,1.127.819l-.48,2.8a.776.776,0,0,0,.223.687l2.034,1.983a.777.777,0,0,1-.43,1.325l-2.812.409a.778.778,0,0,0-.585.425l-1.257,2.548a.777.777,0,0,1-1.393,0l-1.257-2.548a.777.777,0,0,0-.585-.425l-2.812-.409a.777.777,0,0,1-.43-1.325l2.034-1.983a.777.777,0,0,0,.224-.687l-.48-2.8a.777.777,0,0,1,1.127-.819l2.515,1.322A.776.776,0,0,0,3262.938,868.979Z" transform="translate(-2190.339 -168.655)"/><g transform="translate(861.375 889.202)"><path class="ab" d="M1109.238,2881.884a6.685,6.685,0,1,1,6.686-6.685A6.692,6.692,0,0,1,1109.238,2881.884Zm0-11.531a4.846,4.846,0,1,0,4.846,4.846A4.852,4.852,0,0,0,1109.238,2870.353Z" transform="translate(-1102.553 -2868.513)"/><circle class="ab" cx="3.405" cy="3.405" r="3.405" transform="translate(1.87 6.685) rotate(-45)"/></g><circle class="ab" cx="3.073" cy="3.073" r="3.073" transform="translate(1003.204 929.681)"/><circle class="ab" cx="3.073" cy="3.073" r="3.073" transform="translate(952.199 685.605)"/></g></svg>