<svg xmlns="http://www.w3.org/2000/svg" xmlns:xlink="http://www.w3.org/1999/xlink" width="369.119" height="258.96" viewBox="0 0 369.119 258.96"><defs><style>.a{fill:#ebebeb;}.b{fill:#00edff;}.c{fill:#f5f5f5;}.d{clip-path:url(#a);}.e{fill:#07d1db;}.f{fill:#fafafa;}.g{fill:#e0e0e0;}.h{fill:#162a6f;}.i{fill:#263238;}.j{fill:#455a64;}.k{fill:#3565b9;}.l{fill:#1e1e1e;}.m{fill:#ffbe9d;}.n{fill:#eb996e;}.o{fill:#bebebe;}</style><clipPath id="a"><path class="a" d="M83.561,82.951" transform="translate(-83.561 -82.951)"/></clipPath></defs><g transform="translate(-73.256 -50.706)"><g transform="translate(73.256 50.706)"><g transform="translate(0 15.192)"><g transform="translate(5.288 2.939)"><g transform="translate(1.015 1.592)"><rect class="b" width="67.988" height="118.95"/></g><g transform="translate(0 0.236)"><path class="c" d="M104.1,202.182s-7.447-53.516-11.351-59.4c0,0,22.275-16.725,22.957-62.051H81.9V202.182Z" transform="translate(-81.901 -80.734)"/></g><g transform="translate(36.209)"><path class="c" d="M152.707,201.8s7.447-53.516,11.35-59.4c0,0-22.275-16.724-22.957-62.05h33.8V201.8Z" transform="translate(-141.1 -80.348)"/></g><g transform="translate(1.015 1.592)"><path class="a" d="M83.561,82.951" transform="translate(-83.561 -82.951)"/><g class="d"><path class="a" d="M83.561,82.951Z" transform="translate(-83.561 -82.951)"/><path class="a" d="M83.561,82.951Z" transform="translate(-83.561 -82.951)"/><path class="a" d="M83.561,82.951Z" transform="translate(-83.561 -82.951)"/><path class="a" d="M83.561,82.951Z" transform="translate(-83.561 -82.951)"/><path class="a" d="M83.561,82.951Z" transform="translate(-83.561 -82.951)"/><path class="a" d="M83.561,82.951Z" transform="translate(-83.561 -82.951)"/><path class="a" d="M83.561,82.951Z" transform="translate(-83.561 -82.951)"/><path class="a" d="M83.561,82.951Z" transform="translate(-83.561 -82.951)"/><path class="a" d="M83.561,82.951Z" transform="translate(-83.561 -82.951)"/><path class="a" d="M83.561,82.951Z" transform="translate(-83.561 -82.951)"/><path class="a" d="M83.561,82.951Z" transform="translate(-83.561 -82.951)"/><path class="a" d="M83.561,82.951Z" transform="translate(-83.561 -82.951)"/><path class="a" d="M83.561,82.951Z" transform="translate(-83.561 -82.951)"/><path class="a" d="M83.561,82.951Z" transform="translate(-83.561 -82.951)"/><path class="a" d="M83.561,82.951Z" transform="translate(-83.561 -82.951)"/><path class="a" d="M83.561,82.951Z" transform="translate(-83.561 -82.951)"/><path class="a" d="M83.561,82.951Z" transform="translate(-83.561 -82.951)"/><path class="a" d="M83.561,82.951Z" transform="translate(-83.561 -82.951)"/><path class="a" d="M83.561,82.951Z" transform="translate(-83.561 -82.951)"/><path class="a" d="M83.561,82.951Z" transform="translate(-83.561 -82.951)"/><path class="a" d="M83.561,82.951Z" transform="translate(-83.561 -82.951)"/><path class="a" d="M83.561,82.951Z" transform="translate(-83.561 -82.951)"/><path class="a" d="M83.561,82.951Z" transform="translate(-83.561 -82.951)"/><path class="a" d="M83.561,82.951Z" transform="translate(-83.561 -82.951)"/><path class="a" d="M83.561,82.951Z" transform="translate(-83.561 -82.951)"/><path class="a" d="M83.561,82.951Z" transform="translate(-83.561 -82.951)"/><path class="a" d="M83.561,82.951Z" transform="translate(-83.561 -82.951)"/><path class="a" d="M83.561,82.951Z" transform="translate(-83.561 -82.951)"/><path class="a" d="M83.561,82.951Z" transform="translate(-83.561 -82.951)"/><path class="a" d="M83.561,82.951Z" transform="translate(-83.561 -82.951)"/><path class="a" d="M83.561,82.951Z" transform="translate(-83.561 -82.951)"/><path class="a" d="M83.561,82.951Z" transform="translate(-83.561 -82.951)"/><path class="a" d="M83.561,82.951Z" transform="translate(-83.561 -82.951)"/><path class="a" d="M83.561,82.951Z" transform="translate(-83.561 -82.951)"/><path class="a" d="M83.561,82.951Z" transform="translate(-83.561 -82.951)"/><path class="a" d="M83.561,82.951Z" transform="translate(-83.561 -82.951)"/><path class="a" d="M83.561,82.951Z" transform="translate(-83.561 -82.951)"/></g></g></g><path class="e" d="M149.337,75.543H73.256V202.958h79.232V75.543Zm-56.113,66.2v30.3H79.559v-30.3ZM79.559,139.55V108.191H93.224V139.55Zm34.466,0V108.191h17.094V139.55Zm17.094,2.192v30.3H114.025v-30.3ZM93.833,139.55V108.191h18V139.55Zm18,2.192v30.3h-18v-30.3Zm-18-34.093V80.074h18v27.574Zm18,64.934v26.453h-18V172.583Zm2.191,0h17.094v26.453H114.025Zm0-64.934V80.074h17.094v27.574Zm17.7,34.093h14.459v30.3H131.727Zm0-2.192V108.191h14.459V139.55Zm14.459-31.9H131.727V80.074h14.459ZM93.224,80.074v27.574H79.559V80.074ZM79.559,172.583H93.224v26.453H79.559Zm52.168,26.453V172.583h14.459v26.453Z" transform="translate(-73.256 -75.543)"/></g><g transform="translate(98.923 43.287)"><rect class="c" width="206.862" height="138.549"/><rect class="a" width="206.862" height="13.84"/><g transform="translate(5.616 5.366)"><path class="f" d="M247.516,131.8a1.676,1.676,0,1,1-1.672-1.554A1.616,1.616,0,0,1,247.516,131.8Z" transform="translate(-244.172 -130.249)"/></g><g transform="translate(11.012 5.366)"><path class="f" d="M256.337,131.8a1.676,1.676,0,1,1-1.672-1.554A1.616,1.616,0,0,1,256.337,131.8Z" transform="translate(-252.994 -130.249)"/></g><g transform="translate(16.407 5.366)"><path class="f" d="M265.159,131.8a1.676,1.676,0,1,1-1.672-1.554A1.616,1.616,0,0,1,265.159,131.8Z" transform="translate(-261.815 -130.249)"/></g></g><g transform="translate(327.558 70.667)"><path class="a" d="M650.355,166.242H608.793v54.2l41.561,1.043Z" transform="translate(-608.793 -166.242)"/><g transform="translate(2.459 1.928)"><path class="f" d="M649.182,169.395H612.814v49.154l36.368,1.227Z" transform="translate(-612.814 -169.395)"/></g><g transform="translate(8.325 9.941)"><path class="a" d="M646.537,183.414,622.4,182.5v34.357h24.134Z" transform="translate(-622.404 -182.495)"/></g><g transform="translate(8.325 9.941)"><path class="c" d="M622.4,216.852,646.537,199.2,622.4,182.5Z" transform="translate(-622.404 -182.495)"/></g></g><g transform="translate(341.406 31.81)"><path class="a" d="M654.565,103.433l-23.13-.721v30.163l23.13.581Z" transform="translate(-631.435 -102.712)"/><g transform="translate(1.368 1.073)"><path class="f" d="M653.913,105.427l-20.24-.96v27.357l20.24.683Z" transform="translate(-633.672 -104.467)"/></g><g transform="translate(4.633 5.533)"><path class="a" d="M652.441,112.27l-13.432-.511v19.121h13.432Z" transform="translate(-639.009 -111.758)"/></g><g transform="translate(4.633 5.533)"><path class="c" d="M639.009,130.879l13.432-9.823-13.432-9.3Z" transform="translate(-639.009 -111.758)"/></g></g><g transform="translate(184.086)"><g transform="translate(0)"><g transform="translate(19.089 6.982)"><path class="a" d="M407.651,62.121l-2.216,20.563h28.391l2.355-20.563Z" transform="translate(-405.435 -62.121)"/><g transform="translate(1.227 1.353)"><path class="f" d="M409.6,64.332l-2.156,17.994h25.623l2.073-17.994Z" transform="translate(-407.442 -64.332)"/></g><g transform="translate(6.368 4.504)"><path class="a" d="M417.174,69.484l-1.327,11.941h16.17l.83-11.941Z" transform="translate(-415.847 -69.484)"/></g></g><g transform="translate(55.377)"><path class="a" d="M467.732,50.706l-2.968,27.545h38.031l3.154-27.545Z" transform="translate(-464.764 -50.706)"/><g transform="translate(1.644 1.812)"><path class="f" d="M470.34,53.668l-2.888,24.1h34.322l2.777-24.1Z" transform="translate(-467.452 -53.668)"/></g><g transform="translate(8.531 6.033)"><path class="a" d="M480.488,60.569l-1.777,15.995h21.66l1.111-15.995Z" transform="translate(-478.711 -60.569)"/></g></g><g transform="translate(0 27.545)"><rect class="a" width="110.754" height="3.171"/><g transform="translate(14.103 3.171)"><path class="a" d="M402.131,108.628l-4.848-7.7h7.2v7.7Z" transform="translate(-397.284 -100.924)"/><g transform="translate(2.34)"><path class="g" d="M401.11,100.924l4.288,7.7h.574v-7.7Z" transform="translate(-401.11 -100.924)"/></g></g><g transform="translate(78.008 3.171)"><path class="a" d="M506.613,108.628l-4.848-7.7h7.2v7.7Z" transform="translate(-501.765 -100.924)"/><g transform="translate(2.34)"><path class="g" d="M505.591,100.924l4.288,7.7h.574v-7.7Z" transform="translate(-505.591 -100.924)"/></g></g></g></g></g></g><g transform="translate(84.482 197.52)"><path class="h" d="M131.986,359.827c10.192-6.671,12.78-19.444,12.667-30.982-.019-1.927.245-3.951-.642-5.661s-3.022-2.916-4.789-2.147c-1.464.638-2.136,2.285-2.981,3.641a11.354,11.354,0,0,1-4.679,4.2,4.395,4.395,0,0,1-4.012.262c-1.66-.956-1.8-3.254-1.743-5.168q.165-5.351.33-10.7a17.638,17.638,0,0,0-.446-5.7,5.966,5.966,0,0,0-3.683-4.1c-1.833-.554-4.14.441-4.576,2.306a17.411,17.411,0,0,0-.113,2.382,2.015,2.015,0,0,1-1.24,1.867,2.361,2.361,0,0,1-2.108-.929,25.418,25.418,0,0,1-4.461-7.009,35.245,35.245,0,0,0-4.144-7.222,10.515,10.515,0,0,0-7.01-4.1c-2.773-.221-5.775,1.4-6.543,4.074s.758,5.458,2.441,7.684a43.048,43.048,0,0,0,8.805,8.7,3.525,3.525,0,0,1,1.469,1.636c.39,1.286-.867,2.525-2.154,2.913a22.7,22.7,0,0,1-4.538.394c-1.517.14-3.171.759-3.779,2.156-.842,1.938.766,4.028,2.365,5.41a37.194,37.194,0,0,0,10.822,6.515,12.571,12.571,0,0,1,4.031,2.054,3.516,3.516,0,0,1,1.051,4.085c-.729,1.334-2.524,1.722-4.012,1.413a26.071,26.071,0,0,1-4.217-1.706c-2.641-1.058-6.088-.958-7.85,1.275a6,6,0,0,0-.785,5.342,13.945,13.945,0,0,0,2.825,4.8,37.272,37.272,0,0,0,15.653,11.424c6.131,2.264,11.846,2.973,18.045.9" transform="translate(-91.61 -290.739)"/><g transform="translate(3.071 1.535)"><path class="i" d="M96.631,293.249a1.472,1.472,0,0,0,.184.186l.564.521c.5.455,1.23,1.127,2.149,2.017a72.154,72.154,0,0,1,7.215,8.068c1.4,1.809,2.85,3.853,4.367,6.076s3.114,4.615,4.7,7.189A86.167,86.167,0,0,1,120.4,325.6c.712,1.481,1.341,3.028,1.983,4.606l1.941,4.8a174.218,174.218,0,0,1,6.46,18.585,84.466,84.466,0,0,1,2.848,15.784,61.927,61.927,0,0,1-.083,10.815c-.133,1.272-.256,2.259-.363,2.924-.046.319-.082.571-.109.76a1.552,1.552,0,0,0-.025.26,1.341,1.341,0,0,0,.061-.254c.035-.187.083-.437.143-.754.131-.662.276-1.647.431-2.92a59.14,59.14,0,0,0,.2-10.849A83.061,83.061,0,0,0,131.1,353.5a170,170,0,0,0-6.446-18.631q-.984-2.429-1.944-4.8c-.642-1.574-1.278-3.133-2-4.622a85.484,85.484,0,0,0-4.621-8.318c-1.6-2.575-3.214-4.962-4.738-7.183s-3-4.259-4.412-6.063a68.331,68.331,0,0,0-7.318-8.013c-.936-.876-1.684-1.533-2.2-1.971l-.587-.495A1.523,1.523,0,0,0,96.631,293.249Z" transform="translate(-96.631 -293.249)"/></g><g transform="translate(27.042 12.729)"><path class="i" d="M135.831,332.543a3.771,3.771,0,0,0,.21-.812c.115-.527.255-1.294.415-2.244.321-1.9.673-4.537,1.051-7.447s.767-5.537,1.117-7.426c.172-.945.319-1.708.428-2.235a3.8,3.8,0,0,0,.128-.828,3.742,3.742,0,0,0-.264.8c-.15.518-.336,1.276-.539,2.218-.415,1.884-.845,4.515-1.223,7.428-.365,2.872-.695,5.471-.947,7.456-.12.9-.221,1.651-.3,2.257A3.775,3.775,0,0,0,135.831,332.543Z" transform="translate(-135.823 -311.551)"/></g><g transform="translate(2.229 28.508)"><path class="i" d="M95.254,337.366a5.342,5.342,0,0,0,.991.142c.639.071,1.563.169,2.7.328,2.278.3,5.409.818,8.839,1.541s6.505,1.52,8.713,2.155c1.106.31,2,.585,2.611.771a5.44,5.44,0,0,0,.967.259,5.306,5.306,0,0,0-.922-.391c-.6-.226-1.483-.538-2.582-.88-2.2-.7-5.272-1.531-8.712-2.263a89.225,89.225,0,0,0-8.884-1.442c-1.145-.126-2.077-.187-2.72-.216A5.351,5.351,0,0,0,95.254,337.366Z" transform="translate(-95.254 -337.349)"/></g><g transform="translate(37.241 30.196)"><path class="i" d="M152.5,371.239a1.253,1.253,0,0,0,.178-.3l.449-.88c.385-.766.914-1.888,1.549-3.284,1.272-2.79,2.906-6.7,4.652-11.037s3.34-8.258,4.552-11.071l1.445-3.328.388-.907a1.279,1.279,0,0,0,.113-.327,1.254,1.254,0,0,0-.178.3l-.449.88c-.386.766-.914,1.889-1.549,3.285-1.272,2.79-2.906,6.7-4.652,11.04s-3.34,8.256-4.551,11.069L153,370c-.155.363-.283.662-.388.907A1.29,1.29,0,0,0,152.5,371.239Z" transform="translate(-152.497 -340.108)"/></g><g transform="translate(4.366 49.993)"><path class="i" d="M98.748,372.478a1.325,1.325,0,0,0,.325.142l.955.341,3.521,1.219c2.972,1.031,7.061,2.5,11.577,4.131s8.624,3.064,11.619,4.035c1.5.486,2.713.866,3.559,1.112l.975.277a1.313,1.313,0,0,0,.347.074,1.359,1.359,0,0,0-.326-.142l-.954-.341-3.52-1.219c-2.972-1.031-7.061-2.5-11.579-4.132s-8.622-3.064-11.617-4.034c-1.5-.486-2.713-.866-3.559-1.113l-.975-.278A1.319,1.319,0,0,0,98.748,372.478Z" transform="translate(-98.748 -372.475)"/></g></g><g transform="translate(96.141 289.618)"><g transform="translate(0)"><path class="i" d="M417.055,441.474c0,.087-68.591.158-153.183.158-84.623,0-153.2-.071-153.2-.158s68.577-.16,153.2-.16C348.463,441.314,417.055,441.385,417.055,441.474Z" transform="translate(-110.672 -441.314)"/></g></g><g transform="translate(131.307 105.776)"><g transform="translate(0)"><path class="i" d="M382.886,140.743H174.665a6.5,6.5,0,0,0-6.5,6.5V294.313a6.5,6.5,0,0,0,6.5,6.5H254.58s5.083,15.719-10.675,23.853h74.724s-17.792-6.1-13.218-23.853h77.474a6.5,6.5,0,0,0,6.5-6.5V147.242A6.5,6.5,0,0,0,382.886,140.743Z" transform="translate(-168.166 -140.743)"/><g transform="translate(106.717 143.307)"><path class="j" d="M349.531,376.283c2.833,4.048-1.6,8.481-5.65,5.649a1.438,1.438,0,0,1-.347-.349c-2.825-4.047,1.6-8.475,5.649-5.649A1.427,1.427,0,0,1,349.531,376.283Z" transform="translate(-342.641 -375.041)"/></g><g transform="translate(4.915 7.427)"><path class="g" d="M3.272,0H208.116a3.273,3.273,0,0,1,3.273,3.273V122.115a3.273,3.273,0,0,1-3.273,3.273H3.272A3.272,3.272,0,0,1,0,122.115V3.272A3.272,3.272,0,0,1,3.272,0Z"/><g transform="translate(0 9.187)"><rect class="f" width="211.389" height="116.201"/></g><g transform="translate(13.961 3.154)"><path class="k" d="M202.4,159.731a1.688,1.688,0,1,1-1.688-1.688A1.688,1.688,0,0,1,202.4,159.731Z" transform="translate(-199.027 -158.043)"/></g><g transform="translate(3.728 3.154)"><path class="k" d="M185.675,159.731a1.688,1.688,0,1,1-1.688-1.688A1.689,1.689,0,0,1,185.675,159.731Z" transform="translate(-182.298 -158.043)"/></g><g transform="translate(8.64 3.154)"><path class="k" d="M193.7,159.731a1.688,1.688,0,1,1-1.689-1.688A1.689,1.689,0,0,1,193.7,159.731Z" transform="translate(-190.328 -158.043)"/></g><g transform="translate(69.567 15.993)"><g transform="translate(0 47.128)"><path class="j" d="M324.531,256.259c0,.095-7.744.172-17.294.172s-17.3-.077-17.3-.172,7.743-.172,17.3-.172S324.531,256.163,324.531,256.259Z" transform="translate(-289.94 -256.087)"/></g><g transform="translate(0 51.757)"><path class="j" d="M324.531,263.827c0,.1-7.744.172-17.294.172s-17.3-.077-17.3-.172,7.743-.172,17.3-.172S324.531,263.732,324.531,263.827Z" transform="translate(-289.94 -263.655)"/></g><g transform="translate(0 56.386)"><path class="j" d="M310.672,271.395c0,.1-4.641.172-10.365.172s-10.366-.077-10.366-.172,4.641-.172,10.366-.172S310.672,271.3,310.672,271.395Z" transform="translate(-289.94 -271.223)"/></g><rect class="j" width="16.445" height="2.086"/><g transform="translate(0 6.716)"><rect class="e" width="36.142" height="34.967"/><g transform="translate(2.802 13.981)"><path class="k" d="M294.521,230.866l10-17.993,8.178,11.5,4.969-6.107,7.393,12.6Z" transform="translate(-294.521 -212.873)"/></g><g transform="translate(19.26 7.88)"><circle class="k" cx="2.601" cy="2.601" r="2.601"/></g><g transform="translate(2.592 2.721)"><path class="j" d="M324.926,223.814a1,1,0,0,1-.009-.143c0-.105,0-.238-.008-.408,0-.372-.01-.9-.017-1.573-.009-1.387-.022-3.392-.039-5.938-.018-5.108-.045-12.381-.076-21.113l.148.148-30.535.025c-.041.036.324-.324.169-.168v1.983q0,.991,0,1.974,0,1.965,0,3.893c0,2.57,0,5.086,0,7.535-.006,4.9-.011,9.527-.016,13.786l-.15-.15,22.08.076,6.228.039,1.652.017.428.009a1.124,1.124,0,0,1,.15.009.712.712,0,0,1-.134.009l-.412.009-1.623.017-6.194.04-22.176.076h-.15v-.15c0-4.259-.01-8.889-.017-13.786,0-2.449,0-4.965,0-7.535q0-1.927,0-3.893,0-.983,0-1.974v-1.983c-.154.151.209-.215.175-.177l30.535.024h.148v.147c-.031,8.772-.057,16.077-.075,21.207-.017,2.532-.029,4.527-.039,5.905q-.011,1-.017,1.545c0,.163-.006.291-.009.392A.626.626,0,0,1,324.926,223.814Z" transform="translate(-294.178 -194.463)"/></g></g></g><g transform="translate(113.627 15.993)"><g transform="translate(0 47.128)"><path class="j" d="M396.567,256.259c0,.095-7.744.172-17.3.172s-17.3-.077-17.3-.172,7.742-.172,17.3-.172S396.567,256.163,396.567,256.259Z" transform="translate(-361.976 -256.087)"/></g><g transform="translate(0 51.757)"><path class="j" d="M396.567,263.827c0,.1-7.744.172-17.3.172s-17.3-.077-17.3-.172,7.742-.172,17.3-.172S396.567,263.732,396.567,263.827Z" transform="translate(-361.976 -263.655)"/></g><g transform="translate(0 56.386)"><path class="j" d="M382.707,271.395c0,.1-4.641.172-10.366.172s-10.366-.077-10.366-.172,4.64-.172,10.366-.172S382.707,271.3,382.707,271.395Z" transform="translate(-361.976 -271.223)"/></g><rect class="j" width="16.445" height="2.086"/><g transform="translate(0 6.716)"><rect class="e" width="36.142" height="34.967"/><g transform="translate(2.802 13.981)"><path class="k" d="M366.557,230.866l10-17.993,8.178,11.5,4.969-6.107,7.393,12.6Z" transform="translate(-366.557 -212.873)"/></g><g transform="translate(19.259 7.88)"><path class="k" d="M398.665,205.5a2.6,2.6,0,1,1-2.6-2.6A2.6,2.6,0,0,1,398.665,205.5Z" transform="translate(-393.463 -202.899)"/></g><g transform="translate(2.592 2.721)"><path class="j" d="M396.961,223.814a1.115,1.115,0,0,1-.009-.143c0-.105,0-.238-.007-.408,0-.372-.01-.9-.018-1.573-.009-1.387-.022-3.392-.039-5.938-.018-5.108-.045-12.381-.075-21.113l.147.148-30.534.025c-.042.036.323-.324.169-.168v1.983q0,.991,0,1.974,0,1.965,0,3.893c0,2.57,0,5.086,0,7.535-.006,4.9-.012,9.527-.017,13.786l-.15-.15,22.08.076,6.227.039,1.653.017.427.009a1.114,1.114,0,0,1,.151.009.7.7,0,0,1-.133.009l-.412.009-1.623.017-6.193.04-22.176.076h-.15v-.15c-.005-4.259-.011-8.889-.016-13.786,0-2.449,0-4.965,0-7.535q0-1.927,0-3.893,0-.983,0-1.974v-1.983c-.153.151.209-.215.176-.177l30.534.024h.149v.147c-.032,8.772-.058,16.077-.076,21.207-.016,2.532-.029,4.527-.038,5.905q-.012,1-.018,1.545c0,.163-.006.291-.008.392A.651.651,0,0,1,396.961,223.814Z" transform="translate(-366.213 -194.463)"/></g></g></g><g transform="translate(70.724 79.002)"><rect class="j" width="16.445" height="2.086"/><g transform="translate(0 6.716)"><rect class="e" width="36.142" height="34.967"/><g transform="translate(2.802 13.981)"><path class="k" d="M296.414,333.882l10-17.993,8.178,11.5,4.969-6.108,7.393,12.6Z" transform="translate(-296.414 -315.888)"/></g><g transform="translate(19.26 7.881)"><path class="k" d="M328.523,308.516a2.6,2.6,0,1,1-2.6-2.6A2.6,2.6,0,0,1,328.523,308.516Z" transform="translate(-323.321 -305.915)"/></g><g transform="translate(2.592 2.72)"><path class="j" d="M326.818,326.829a1.218,1.218,0,0,1-.008-.143c0-.1,0-.238-.009-.407q-.005-.558-.017-1.574c-.009-1.387-.022-3.392-.039-5.938-.018-5.108-.044-12.381-.075-21.113l.147.147-30.535.024c-.04.037.324-.323.169-.167v3.957q0,1.964,0,3.893c0,2.57,0,5.085,0,7.534-.005,4.9-.012,9.527-.017,13.786l-.15-.15,22.08.076,6.227.039,1.652.018.428.009a1.342,1.342,0,0,1,.15.008.646.646,0,0,1-.133.009l-.412.009q-.575,0-1.623.017l-6.193.04-22.176.076h-.15v-.151c0-4.259-.011-8.889-.016-13.786,0-2.449,0-4.965,0-7.534q0-1.927,0-3.893v-3.957c-.153.151.209-.216.175-.177l30.535.024h.149v.148c-.031,8.771-.058,16.076-.076,21.207-.017,2.532-.029,4.526-.039,5.9q-.011,1-.016,1.546c0,.163-.007.29-.009.391A.575.575,0,0,1,326.818,326.829Z" transform="translate(-296.07 -297.478)"/></g></g></g><g transform="translate(114.816 79.002)"><rect class="j" width="16.445" height="2.086"/><g transform="translate(0 6.716)"><rect class="e" width="36.142" height="34.967"/><g transform="translate(2.802 13.981)"><path class="k" d="M368.5,333.882l10-17.993,8.178,11.5,4.969-6.108,7.393,12.6Z" transform="translate(-368.5 -315.888)"/></g><g transform="translate(19.259 7.881)"><path class="k" d="M400.609,308.516a2.6,2.6,0,1,1-2.6-2.6A2.6,2.6,0,0,1,400.609,308.516Z" transform="translate(-395.407 -305.915)"/></g><g transform="translate(2.591 2.72)"><path class="j" d="M398.9,326.829a1.05,1.05,0,0,1-.008-.143c0-.1,0-.238-.009-.407q-.005-.558-.016-1.574c-.009-1.387-.023-3.392-.039-5.938-.018-5.108-.044-12.381-.075-21.113l.147.147-30.534.024c-.042.037.323-.323.169-.167v3.957q0,1.964,0,3.893c0,2.57,0,5.085,0,7.534-.005,4.9-.012,9.527-.016,13.786l-.15-.15,22.08.076,6.228.039,1.652.018.428.009a1.359,1.359,0,0,1,.15.008.641.641,0,0,1-.134.009l-.411.009q-.575,0-1.623.017l-6.194.04-22.175.076h-.15v-.151c-.005-4.259-.011-8.889-.017-13.786,0-2.449,0-4.965,0-7.534q0-1.927,0-3.893v-3.957c-.154.151.209-.216.175-.177l30.534.024h.148v.148c-.031,8.771-.056,16.076-.075,21.207-.017,2.532-.029,4.526-.038,5.9q-.012,1-.017,1.546c0,.163-.006.29-.009.391A.633.633,0,0,1,398.9,326.829Z" transform="translate(-368.156 -297.478)"/></g></g></g><g transform="translate(160.312 79.002)"><rect class="j" width="16.445" height="2.086"/><g transform="translate(0 6.716)"><rect class="e" width="36.142" height="34.967"/><g transform="translate(2.802 13.981)"><path class="k" d="M442.883,333.882l10-17.993,8.178,11.5,4.969-6.108,7.393,12.6Z" transform="translate(-442.883 -315.888)"/></g><g transform="translate(19.26 7.881)"><path class="k" d="M474.992,308.516a2.6,2.6,0,1,1-2.6-2.6A2.6,2.6,0,0,1,474.992,308.516Z" transform="translate(-469.791 -305.915)"/></g><g transform="translate(2.592 2.72)"><path class="j" d="M473.288,326.829a.975.975,0,0,1-.009-.143c0-.1,0-.238-.008-.407q-.006-.558-.017-1.574c-.009-1.387-.022-3.392-.039-5.938-.018-5.108-.044-12.381-.075-21.113l.147.147-30.535.024c-.041.037.323-.323.17-.167v3.957q0,1.964,0,3.893c0,2.57,0,5.085,0,7.534-.006,4.9-.012,9.527-.016,13.786l-.151-.15,22.08.076,6.228.039,1.652.018.428.009a1.363,1.363,0,0,1,.151.008.652.652,0,0,1-.134.009l-.412.009q-.575,0-1.623.017l-6.194.04-22.176.076H442.6v-.151c0-4.259-.01-8.889-.016-13.786,0-2.449,0-4.965,0-7.534q0-1.927,0-3.893,0-.984,0-1.974v-1.982c-.154.151.209-.216.175-.177l30.535.024h.148v.148c-.031,8.771-.057,16.076-.075,21.207-.016,2.532-.029,4.526-.038,5.9q-.011,1-.017,1.546c0,.163-.005.29-.008.391A.664.664,0,0,1,473.288,326.829Z" transform="translate(-442.54 -297.478)"/></g></g></g><g transform="translate(161.879 15.944)"><g transform="translate(0 6.574)"><g transform="translate(31.191 31.19)"><path class="j" d="M491.859,244.665a23.012,23.012,0,0,1,3.966-.173c-.343.344-.095.095-.172.171v-.4c0-.133,0-.264,0-.394,0-.253.007-.5.01-.744.013-.434.025-.853.037-1.261a3.968,3.968,0,0,1,.122-1.162,3.993,3.993,0,0,1,.122,1.162c.012.408.024.827.037,1.261,0,.244.007.491.01.744q0,.195,0,.394v.4c-.077.077.172-.171-.173.173A23.054,23.054,0,0,1,491.859,244.665Z" transform="translate(-491.859 -240.698)"/></g><g transform="translate(13.167 34.985)"><path class="j" d="M462.392,247.074a58.913,58.913,0,0,1,9.011,0,59.153,59.153,0,0,1-9.011,0Z" transform="translate(-462.392 -246.902)"/></g><g transform="translate(0.016 31.19)"><path class="j" d="M441.063,240.7a22.938,22.938,0,0,1,.172,3.967c-.344-.344-.095-.1-.171-.173h.4l.394,0,.745.01,1.261.037a3.972,3.972,0,0,1,1.162.122,3.972,3.972,0,0,1-1.162.122l-1.261.037-.745.01-.394,0h-.4c-.077-.076.171.172-.173-.172A23.07,23.07,0,0,1,441.063,240.7Z" transform="translate(-440.891 -240.698)"/></g><g transform="translate(0.016 13.167)"><path class="j" d="M441.063,211.231a29.542,29.542,0,0,1,.172,4.505,29.539,29.539,0,0,1-.172,4.506,29.71,29.71,0,0,1-.172-4.506A29.712,29.712,0,0,1,441.063,211.231Z" transform="translate(-440.891 -211.231)"/></g><g transform="translate(0 0.016)"><path class="j" d="M445.02,189.9a22.938,22.938,0,0,1-3.967.173c.344-.344.1-.095.172-.171h0v.4c0,.133,0,.264,0,.394,0,.253-.007.5-.01.745-.012.434-.024.853-.036,1.261a4.005,4.005,0,0,1-.122,1.161,3.972,3.972,0,0,1-.122-1.161c-.012-.409-.024-.827-.037-1.261,0-.244-.007-.492-.01-.745,0-.13,0-.261,0-.394v-.4h0c.076-.078-.173.17.172-.174A23.061,23.061,0,0,1,445.02,189.9Z" transform="translate(-440.864 -189.73)"/></g><g transform="translate(13.167 0.016)"><path class="j" d="M471.4,189.9a58.913,58.913,0,0,1-9.011,0,59.153,59.153,0,0,1,9.011,0Z" transform="translate(-462.392 -189.73)"/></g><g transform="translate(31.191)"><path class="j" d="M495.826,193.859a23.007,23.007,0,0,1-.172-3.967c.344.343.095.095.171.172h-.4l-.394,0-.744-.01-1.262-.036a3.982,3.982,0,0,1-1.161-.122,3.994,3.994,0,0,1,1.161-.122l1.262-.037.744-.01.394,0h.4c.078.076-.17-.172.174.172A23.054,23.054,0,0,1,495.826,193.859Z" transform="translate(-491.859 -189.703)"/></g><g transform="translate(34.985 13.167)"><path class="j" d="M498.235,220.242a29.645,29.645,0,0,1-.172-4.505,29.651,29.651,0,0,1,.172-4.506,29.7,29.7,0,0,1,.172,4.506A29.693,29.693,0,0,1,498.235,220.242Z" transform="translate(-498.063 -211.231)"/></g></g><g transform="translate(0.059)"><g transform="translate(0 47.129)"><path class="j" d="M475.551,256.179c0,.095-7.744.172-17.295.172s-17.3-.077-17.3-.172,7.743-.173,17.3-.173S475.551,256.084,475.551,256.179Z" transform="translate(-440.96 -256.007)"/></g><g transform="translate(0 51.757)"><path class="j" d="M475.551,263.748c0,.095-7.744.172-17.295.172s-17.3-.077-17.3-.172,7.743-.173,17.3-.173S475.551,263.652,475.551,263.748Z" transform="translate(-440.96 -263.575)"/></g><g transform="translate(0)"><rect class="j" width="16.445" height="2.086"/></g></g></g><g transform="translate(15.385 25.43)"><g transform="translate(1.922)"><path class="e" d="M239.942,212.185a17.722,17.722,0,1,1-17.722-17.722A17.723,17.723,0,0,1,239.942,212.185Z" transform="translate(-204.497 -194.463)"/></g><g transform="translate(0.217 56.181)"><path class="j" d="M242.369,286.487c0,.095-9.1.172-20.329.172s-20.33-.077-20.33-.172,9.1-.172,20.33-.172S242.369,286.392,242.369,286.487Z" transform="translate(-201.71 -286.315)"/></g><g transform="translate(0.217 60.679)"><path class="j" d="M242.369,293.841c0,.095-9.1.172-20.329.172s-20.33-.077-20.33-.172,9.1-.172,20.33-.172S242.369,293.745,242.369,293.841Z" transform="translate(-201.71 -293.669)"/></g><g transform="translate(0.217 65.175)"><path class="j" d="M242.369,301.194c0,.095-9.1.172-20.329.172s-20.33-.077-20.33-.172,9.1-.173,20.33-.173S242.369,301.1,242.369,301.194Z" transform="translate(-201.71 -301.021)"/></g><g transform="translate(0 69.769)"><path class="j" d="M224.931,308.7c0,.095-5.278.172-11.788.172s-11.789-.077-11.789-.172,5.277-.172,11.789-.172S224.931,308.609,224.931,308.7Z" transform="translate(-201.355 -308.532)"/></g><g transform="translate(0.217 47.177)"><g transform="translate(0 0)"><path class="k" d="M0,0H28.013V2.048H0Z" transform="translate(28.013 2.048) rotate(180)"/></g></g><g transform="translate(8.537 9.952)"><path class="k" d="M215.313,232.044a17.169,17.169,0,0,0,22.48-.015,10.352,10.352,0,0,0-8.785-7.851,6.963,6.963,0,0,0,4.149-6.445,6.547,6.547,0,1,0-13.067-.061,6.958,6.958,0,0,0,4.163,6.506A10.522,10.522,0,0,0,215.313,232.044Z" transform="translate(-215.313 -210.734)"/></g><g transform="translate(0.217 76.961)"><rect class="k" width="15.704" height="1.911"/></g></g></g></g></g><g transform="translate(313.169 138.634)"><g transform="translate(50.033)"><g transform="translate(0 10.52)"><path class="l" d="M571.057,211.662l2.679,8.985a4.18,4.18,0,0,1,.238,1.254,2.868,2.868,0,0,1-2.466,2.493,8.37,8.37,0,0,1-3.735-.442c-.331,1.29-1.841,1.833-3.149,2.08a28.829,28.829,0,0,1-17.324-2.156,47.206,47.206,0,0,0,5.586-10.679l13.665.6a6.275,6.275,0,0,0,2.4-.2,2.136,2.136,0,0,0,1.494-1.728" transform="translate(-547.3 -211.662)"/></g><g transform="translate(3.675 2.565)"><path class="m" d="M557.732,224.156a41.122,41.122,0,0,0-.236-5.222s-3.85-.408-4.084-4.226,0-12.624,0-12.624l7.013-3.428,7.715,5.844-1.169,19.091-8.329,7.448Z" transform="translate(-553.308 -198.656)"/></g><g transform="translate(4.061 11.287)"><g transform="translate(0.481 0.636)"><path class="i" d="M554.726,214.445a.489.489,0,1,0,.489-.489A.489.489,0,0,0,554.726,214.445Z" transform="translate(-554.726 -213.956)"/></g><path class="i" d="M553.948,213.508c.063.063.424-.244.95-.272s.921.225.976.155c.027-.031-.038-.148-.211-.267a1.3,1.3,0,0,0-1.537.094C553.968,213.356,553.917,213.48,553.948,213.508Z" transform="translate(-553.939 -212.916)"/></g><g transform="translate(9.893 11.287)"><g transform="translate(0.312 0.636)"><path class="i" d="M563.986,214.445a.488.488,0,1,0,.489-.489A.489.489,0,0,0,563.986,214.445Z" transform="translate(-563.986 -213.956)"/></g><path class="i" d="M563.484,213.508c.063.063.424-.244.95-.272s.921.225.976.155c.027-.031-.038-.148-.211-.267a1.3,1.3,0,0,0-1.537.094C563.5,213.356,563.453,213.48,563.484,213.508Z" transform="translate(-563.475 -212.916)"/></g><g transform="translate(7.198 16.821)"><path class="f" d="M561.612,221.964a9.659,9.659,0,0,1-2.544.876,1.48,1.48,0,0,0,1.744.495A1.087,1.087,0,0,0,561.612,221.964Z" transform="translate(-559.068 -221.964)"/></g><g transform="translate(7.86 21.134)"><path class="n" d="M560.151,230.725a9.536,9.536,0,0,0,5.059-1.709,4.927,4.927,0,0,1-4.975,2.645Z" transform="translate(-560.151 -229.016)"/></g><g transform="translate(2.112)"><path class="l" d="M578.256,213.849a2.743,2.743,0,0,1-1.384-.313,3.845,3.845,0,0,1-1.509-1.463,15.811,15.811,0,0,1-1.128-2.419c-.713-1.775-1.252-3.422-1.616-4.623l-.158-.53c-.033-.2-.066-.387-.1-.521a12.215,12.215,0,0,0-10.467-9.447c-1.484,0-4.083-.817-7.869,3.118a17.079,17.079,0,0,0-3.124,5.579,4.333,4.333,0,0,0-.089,1.9c.072,0,.084-.722.38-1.826a9.2,9.2,0,0,1,.732-1.88,7.255,7.255,0,0,0,.388,4.4l1.359-.374,4.862-1.655a7.011,7.011,0,0,1,.576-4.248l.037-.034c1.113,5.716,7.411,6.31,7.411,6.31l-.315,10.849c6.464-1.382,6.549-8.442,6.508-10.2.293.991.675,2.129,1.154,3.321a14.327,14.327,0,0,0,1.183,2.464,3.939,3.939,0,0,0,1.677,1.513,2.638,2.638,0,0,0,1.508.223c.359-.069.529-.184.521-.2S578.6,213.826,578.256,213.849Z" transform="translate(-550.754 -194.463)"/></g><g transform="translate(6.655 11.733)"><path class="i" d="M559.53,218.236a3.564,3.564,0,0,0-.861-.108c-.134-.007-.266-.026-.294-.125a.744.744,0,0,1,.075-.425q.171-.518.36-1.091c.251-.776.465-1.482.611-2a3.479,3.479,0,0,0,.194-.846,3.578,3.578,0,0,0-.336.8c-.182.5-.419,1.2-.67,1.976l-.345,1.1a.852.852,0,0,0-.052.55.327.327,0,0,0,.224.189.87.87,0,0,0,.228.021A3.53,3.53,0,0,0,559.53,218.236Z" transform="translate(-558.181 -213.646)"/></g><g transform="translate(1.421 9.091)"><path class="i" d="M565.085,213.453c-1.19-.235-2.191-.4-2.535-.424a3.186,3.186,0,0,0,.073-.621,3.1,3.1,0,0,0-.6-1.83,3.044,3.044,0,0,0-1.44-1.072,3.077,3.077,0,0,0-1.621-.124,3.026,3.026,0,0,0-1.288.587,2.984,2.984,0,0,0-1.083,1.7,2.353,2.353,0,0,0-.065.549.656.656,0,0,0,.012.192c.024,0,.012-.267.133-.72a2.988,2.988,0,0,1,1.094-1.6,2.91,2.91,0,0,1,2.751-.4,2.871,2.871,0,0,1,1.341,1.011,2.882,2.882,0,0,1,0,3.415,2.873,2.873,0,0,1-1.341,1.012,2.912,2.912,0,0,1-2.751-.4,2.989,2.989,0,0,1-1.094-1.6,3.86,3.86,0,0,1-.106-.553c.1-.019.156-.045.156-.073s-.07-.058-.179-.078c0,0,0-.017,0-.017s0,.012,0,.016a2.142,2.142,0,0,0-.362-.028,1.755,1.755,0,0,0-.446.048c0-.012,0-.024,0-.036a3.1,3.1,0,0,0-.6-1.83,3.062,3.062,0,0,0-4.35-.608,2.979,2.979,0,0,0-1.083,1.7,2.345,2.345,0,0,0-.065.549.644.644,0,0,0,.011.192c.024,0,.012-.267.134-.72a2.978,2.978,0,0,1,1.093-1.6,2.911,2.911,0,0,1,2.751-.4,2.861,2.861,0,0,1,1.339,1.011,2.883,2.883,0,0,1,0,3.415,2.872,2.872,0,0,1-1.34,1.012,2.912,2.912,0,0,1-2.751-.4,2.979,2.979,0,0,1-1.093-1.6c-.122-.454-.11-.722-.134-.721a.641.641,0,0,0-.011.192,2.349,2.349,0,0,0,.065.549,2.98,2.98,0,0,0,1.083,1.7,3.027,3.027,0,0,0,1.287.588,3.075,3.075,0,0,0,1.621-.124,3.043,3.043,0,0,0,1.442-1.073,3.079,3.079,0,0,0,.592-1.68,1.719,1.719,0,0,0,.455.05,2.221,2.221,0,0,0,.353-.026v.018a2.356,2.356,0,0,0,.065.549,2.984,2.984,0,0,0,1.083,1.7,3.023,3.023,0,0,0,1.288.588,3.077,3.077,0,0,0,1.621-.124,3.042,3.042,0,0,0,1.44-1.073,3,3,0,0,0,.517-1.149c.324.108,1.315.336,2.508.572a17.392,17.392,0,0,0,2.672.42A17.179,17.179,0,0,0,565.085,213.453Z" transform="translate(-549.623 -209.327)"/></g><g transform="translate(18.902 13.086)"><path class="m" d="M578.214,218.936a4.748,4.748,0,0,1,.205-1.886,1.778,1.778,0,0,1,1.373-1.186,1.5,1.5,0,0,1,1.551,1.253,1.853,1.853,0,0,1-.945,1.836,2.431,2.431,0,0,1-2.12.06" transform="translate(-578.204 -215.857)"/><g transform="translate(1.114 0.801)"><path class="n" d="M580.035,218.888c.023-.042.206.052.476-.03a.858.858,0,0,0,.572-.812.647.647,0,0,0-.136-.509.574.574,0,0,0-.417-.124c-.286.025-.487.1-.5.053-.012-.032.129-.178.47-.275a.753.753,0,0,1,.641.124.876.876,0,0,1,.263.752,1.189,1.189,0,0,1-.285.714.885.885,0,0,1-.562.3C580.177,219.116,580,218.911,580.035,218.888Z" transform="translate(-580.026 -217.167)"/></g></g></g><g transform="translate(80.244 149.177)"><path class="l" d="M601.3,450.147l-4.6-3.125,5.8-8.663,6.785,4.5-.325.56c-1.468,2.48-7.637,12.5-9.191,13.777C598.029,458.617,601.3,450.147,601.3,450.147Z" transform="translate(-596.694 -438.359)"/><g transform="translate(2.506 4.343)"><path class="i" d="M600.794,459.871c-.081-.055,2.042-3.327,4.743-7.3s4.957-7.161,5.04-7.106-2.043,3.325-4.744,7.306S600.875,459.927,600.794,459.871Z" transform="translate(-600.791 -445.46)"/></g><g transform="translate(4.172 12.394)"><path class="i" d="M604.784,458.805c-.008.1-.289.154-.626.176s-.622,0-.642-.1.255-.235.621-.257S604.794,458.709,604.784,458.805Z" transform="translate(-603.515 -458.622)"/></g><g transform="translate(3.971 13.061)"><path class="i" d="M604.587,459.986c-.021.1-.335.109-.708.087s-.683-.077-.692-.177.311-.206.714-.179S604.608,459.891,604.587,459.986Z" transform="translate(-603.187 -459.713)"/></g><g transform="translate(9.867 3.441)"><path class="i" d="M613.454,447.465c-.045.017-.162-.163-.3-.476a3.674,3.674,0,0,1-.325-1.324,2.106,2.106,0,0,1,.391-1.337c.227-.291.45-.371.473-.335s-.119.188-.26.47a2.476,2.476,0,0,0-.247,1.19,6.617,6.617,0,0,0,.207,1.256C613.468,447.236,613.5,447.448,613.454,447.465Z" transform="translate(-612.826 -443.984)"/></g><g transform="translate(4.551 11.363)"><path class="i" d="M604.142,457.59c-.043-.089.126-.259.348-.424s.435-.275.508-.208-.043.308-.3.495S604.183,457.678,604.142,457.59Z" transform="translate(-604.135 -456.937)"/></g><g transform="translate(4.179 10.549)"><path class="i" d="M603.552,456.636c-.076-.063.018-.337.21-.613s.418-.458.5-.409-.009.324-.21.613S603.629,456.7,603.552,456.636Z" transform="translate(-603.526 -455.607)"/></g></g><g transform="translate(23.533 162.453)"><path class="l" d="M511.007,465.7v-5.565l10.424-.067.086,8.141-.646.046c-2.876.178-14.634.7-16.56.132C502.163,467.748,511.007,465.7,511.007,465.7Z" transform="translate(-503.975 -460.065)"/><g transform="translate(0.09 7.632)"><path class="i" d="M504.122,472.721c0-.1,3.9-.178,8.709-.178s8.708.08,8.708.178-3.9.178-8.708.178S504.122,472.819,504.122,472.721Z" transform="translate(-504.122 -472.543)"/></g><g transform="translate(6.055 5.744)"><path class="i" d="M514.668,470.479c-.087.048-.29-.152-.5-.419s-.348-.516-.279-.587.338.078.562.37S514.754,470.433,514.668,470.479Z" transform="translate(-513.875 -469.456)"/></g><g transform="translate(5.449 5.915)"><path class="i" d="M513.617,470.955c-.092.037-.279-.216-.47-.537s-.319-.609-.242-.672.345.143.55.491S513.709,470.919,513.617,470.955Z" transform="translate(-512.883 -469.735)"/></g><g transform="translate(14.357 5.812)"><path class="i" d="M527.458,471.528c-.039-.029.044-.225.225-.517A3.654,3.654,0,0,1,528.6,470a2.105,2.105,0,0,1,1.326-.427c.368.024.56.163.542.2s-.223.009-.536.049a2.491,2.491,0,0,0-1.123.464,6.624,6.624,0,0,0-.922.876C527.655,471.411,527.5,471.558,527.458,471.528Z" transform="translate(-527.448 -469.568)"/></g><g transform="translate(6.809 5.675)"><path class="i" d="M515.116,469.39c.05-.086.284-.042.546.049s.473.206.457.3-.279.137-.576.032S515.066,469.474,515.116,469.39Z" transform="translate(-515.108 -469.344)"/></g><g transform="translate(6.981 5.013)"><path class="i" d="M515.388,468.432c.009-.1.289-.175.625-.17s.614.088.62.187-.273.174-.625.17S515.379,468.53,515.388,468.432Z" transform="translate(-515.388 -468.262)"/></g></g><g transform="translate(3.86 35.795)"><path class="m" d="M524.816,256.759l-11.283-3.773s-4.986,14.365-6.515,14.5c-8.467.772-17.527-2.035-20.7-3.145-.322-.362-.691-.8-1.1-1.329a5.076,5.076,0,0,1-.8-1.521,7.767,7.767,0,0,1-.453-2.092.664.664,0,0,0-1.141-.523c-.367.473-.46,2.288.376,4.24s-2.122.4-3.211-.147-4.534-2.079-4.967-1.878c-.635.3-.436,1.03.664,1.551s4.286,2.313,3.97,2.874-5.813-2.305-5.813-2.305-1.077-.8-1.464-.165c-.7,1.147,5.374,3.754,5.958,3.987.405.163.084.785-.343.587s-5.421-2.979-6.143-1.817c-.554.891,4.975,2.191,5.689,3.34s-4.092-1.412-4.587-.539c-.184.325-.276.593,2.7,1.665a63.368,63.368,0,0,0,6.625,1.691l-.01.031s29.694,13.279,36.1.478C525.156,258.89,524.816,256.759,524.816,256.759Z" transform="translate(-471.81 -252.986)"/></g><g transform="translate(27.869 67.159)"><g transform="translate(15.818)"><path class="h" d="M543.191,308.231s-7.2,47.84-6.164,50.128,38.055,41.6,38.055,41.6l8.663-14.838s-29.21-32.6-28.99-33.479,10.35-47.38,10.35-47.38Z" transform="translate(-536.925 -304.264)"/><g transform="translate(7.84 36.328)"><path class="h" d="M549.744,390.388l6.084-13.365,6.084-13.365-10.251,17.768Z" transform="translate(-549.744 -363.658)"/></g><g transform="translate(11.388 51.139)"><path class="h" d="M555.619,387.874a2.749,2.749,0,0,1,.038.523c.009.382.021.884.036,1.516l-.018-.048c2.319,2.62,7.459,8.57,13.389,15.513l10.309,12.148,3.093,3.708.828,1.02a2.266,2.266,0,0,1,.27.371,2.165,2.165,0,0,1-.325-.324l-.878-.977-3.179-3.634L568.792,405.61c-5.93-6.943-11.005-12.949-13.229-15.648l-.019-.023v-.026c.015-.632.027-1.134.036-1.516A2.687,2.687,0,0,1,555.619,387.874Z" transform="translate(-555.544 -387.874)"/></g><g transform="translate(34.717 77.803)"><path class="h" d="M603.01,431.469c.082.054-1.938,3.264-4.512,7.168s-4.727,7.027-4.81,6.973,1.938-3.264,4.513-7.169S602.928,431.414,603.01,431.469Z" transform="translate(-593.686 -431.468)"/></g><g transform="translate(3.659 4.457)"><path class="h" d="M542.908,329.029c.071-.5,5.82-13.433,5.82-13.433l-2.792-3.938-.5-.107Z" transform="translate(-542.908 -311.551)"/></g></g><path class="h" d="M538.785,307.768l-5.711.953,3.287,4.045c-5.306,12-16.261,37.408-17.577,45.593-1.745,10.854-8.334,44.744-7.675,45.26s15.85,0,15.85,0l9.679-45.26,21.391-37.078a20.688,20.688,0,0,0,2.174-15.26l-.431-1.757" transform="translate(-511.064 -304.264)"/><g transform="translate(10.609 1.358)"><path class="h" d="M528.411,399.465a1.308,1.308,0,0,1,.027-.254c.028-.183.065-.428.113-.738.112-.668.271-1.618.472-2.833.431-2.478,1.047-6.027,1.809-10.405l2.755-15.419c.535-2.9,1.1-5.943,1.678-9.1q.227-1.182.46-2.384c.083-.4.152-.8.248-1.208.05-.2.084-.409.146-.609l.226-.591c.628-1.549,1.31-3.077,1.994-4.638,5.535-12.436,10.686-23.628,14.412-31.731,1.868-4.031,3.384-7.3,4.442-9.581.525-1.113.937-1.984,1.226-2.6l.327-.672a1.283,1.283,0,0,1,.123-.223,1.427,1.427,0,0,1-.09.238c-.073.171-.171.4-.295.686l-1.165,2.625c-1.033,2.292-2.513,5.576-4.339,9.628-3.667,8.128-8.782,19.338-14.315,31.77-.682,1.555-1.371,3.1-1.988,4.617l-.218.566c-.061.193-.093.394-.142.591-.093.391-.164.8-.246,1.2q-.234,1.2-.463,2.38c-.588,3.152-1.156,6.193-1.7,9.091l-2.83,15.4c-.807,4.37-1.463,7.913-1.92,10.385-.231,1.209-.411,2.155-.537,2.821l-.149.732A1.333,1.333,0,0,1,528.411,399.465Z" transform="translate(-528.409 -306.485)"/></g><g transform="translate(0.521 94.633)"><path class="h" d="M528.2,459.361c0,.1-3.648.113-8.143.032s-8.139-.226-8.137-.324,3.647-.113,8.144-.032S528.2,459.262,528.2,459.361Z" transform="translate(-511.915 -458.984)"/></g><g transform="translate(22.01 0)"><path class="h" d="M547.049,308.721l.219.52,27.444-2.221-.964-2.755Z" transform="translate(-547.049 -304.264)"/></g></g><g transform="translate(39.056 25.177)"><path class="h" d="M551.513,237.355l-1.844,7.411-.064-5.331.136-1.186.167-.894-2.434-.825-1.257,1.958-.366.025s-9.883-.983-13.34,12.071l-3.157,7.734,9.567,4.774.013.619.582,18.461,27.646-4.477c.109-4.145-4.119-11.656-3.187-15.412l3.187-12.853-4.179-11.973-2.89.09h0l-1.63-1.921-6.95,1.729" transform="translate(-529.354 -235.626)"/><g transform="translate(7.195 12.452)"><path class="j" d="M543.655,270.862a1.679,1.679,0,0,1-.594-.313,4.774,4.774,0,0,1-1.278-1.318,4.206,4.206,0,0,1-.652-2.64,5.85,5.85,0,0,1,1.074-3.154,5.774,5.774,0,0,1,1.96-1.752l-.084.116c.229-1.7.436-3.152.6-4.184a10.39,10.39,0,0,1,.305-1.633,10.617,10.617,0,0,1-.117,1.659c-.107,1.039-.275,2.5-.483,4.2l-.009.073-.075.042a5.716,5.716,0,0,0-2.874,4.651,4.071,4.071,0,0,0,.549,2.5,5.248,5.248,0,0,0,1.161,1.337C543.464,270.718,543.666,270.841,543.655,270.862Z" transform="translate(-541.117 -255.984)"/></g><g transform="translate(9.823 12.972)"><path class="j" d="M546.366,258.739c-.079.038-.351-.356-.609-.881s-.4-.982-.322-1.021.351.356.608.881S546.445,258.7,546.366,258.739Z" transform="translate(-545.414 -256.834)"/></g></g><g transform="translate(0 34.837)"><path class="k" d="M487.066,251.419l86.966,16.7c6.2,1.191,10.1,6.858,9.4,13.312-.01.09-.031.179-.048.268A11.717,11.717,0,0,1,569.519,291l-85.226-17.187L465.5,258.769Z" transform="translate(-465.499 -251.419)"/><path class="g" d="M487.066,251.419s4.747,1.779,3.769,6.332a5.515,5.515,0,0,1-5.57,4.362s4.463.99,3.224,7.371c-.8,4.108-4.2,4.324-4.2,4.324L465.5,258.769Z" transform="translate(-465.499 -251.419)"/><g transform="translate(0 5.338)"><path class="j" d="M469.587,265.43a4.363,4.363,0,0,0,1.815-5.283l-5.9,2.012Z" transform="translate(-465.499 -260.147)"/></g><g transform="translate(19.766 10.693)"><path class="j" d="M585.412,286.648a1.343,1.343,0,0,1-.23-.028l-.669-.111-2.563-.459c-2.226-.4-5.442-1.009-9.413-1.774-7.942-1.528-18.9-3.724-30.98-6.217l-30.941-6.436-9.374-1.963-2.546-.545-.661-.15a1.2,1.2,0,0,1-.223-.061,1.227,1.227,0,0,1,.229.03l.667.118,2.557.487,9.394,1.864,30.96,6.345c12.084,2.494,23.03,4.724,30.959,6.308l9.392,1.874,2.552.518.663.142A1.148,1.148,0,0,1,585.412,286.648Z" transform="translate(-497.815 -268.901)"/></g><g transform="translate(104.02 16.705)"><path class="o" d="M635.566,301.6a11.717,11.717,0,0,0,13.864-9.291c.017-.089.038-.178.048-.268.7-6.454-3.2-12.122-9.4-13.312Z" transform="translate(-635.566 -278.73)"/></g></g><g transform="translate(25.187 27.01)"><g transform="translate(0 11.307)"><path class="m" d="M550.949,257.11s-5.29,16.695-6.778,17.074c-8.241,2.1-17.633.76-20.942.166-.374-.305-.809-.681-1.294-1.138a5.042,5.042,0,0,1-1.028-1.376,7.739,7.739,0,0,1-.779-1.994.664.664,0,0,0-1.21-.336c-.287.526-.092,2.333,1.041,4.127,0,0-6.634,4.208-8.085,4.175s-5.6-.141-5.166.432,5.166,1.365,5.166,1.365l8.57,2.907s31.414,8.449,35.714-5.2c2.635-8.367,4.453-13.292,4.863-15.29Z" transform="translate(-506.678 -257.11)"/></g><g transform="translate(38.248)"><path class="e" d="M578.521,238.625s6.91,1.244,7.18,12.539a44.128,44.128,0,0,1-4.329,19.906l-12.161-6.385a75.372,75.372,0,0,0,6.133-17.206l3.157-8.855Z" transform="translate(-569.211 -238.623)"/></g><g transform="translate(38.248 9.487)"><path class="j" d="M574.971,254.133a2.81,2.81,0,0,1-.076.692c-.067.442-.187,1.078-.356,1.86a53.272,53.272,0,0,1-4.085,11.79c-.351.718-.65,1.293-.87,1.682a2.909,2.909,0,0,1-.369.59,2.943,2.943,0,0,1,.258-.646l.778-1.722c.649-1.456,1.495-3.488,2.292-5.784s1.386-4.417,1.778-5.962l.454-1.833A2.936,2.936,0,0,1,574.971,254.133Z" transform="translate(-569.212 -254.133)"/></g></g></g></g></svg>