<svg xmlns="http://www.w3.org/2000/svg" xmlns:xlink="http://www.w3.org/1999/xlink" width="453.649" height="367.143" viewBox="0 0 453.649 367.143"><defs><style>.a,.aw,.c,.g{opacity:0.95;}.a{fill:url(#a);}.b{fill:#96bfe6;}.c{fill:url(#b);}.d{fill:#3565b9;}.e{fill:#162a6f;}.f{fill:#dddfe1;opacity:0.38;}.g{fill:url(#c);}.h{fill:#1c2a6b;}.i{fill:#e65353;}.j{fill:#eea987;}.k{fill:#d98b52;}.l{fill:#b84343;}.m{fill:#c78d71;}.n{fill:#eea886;}.o{fill:#16202e;}.p{fill:#faa146;}.q{fill:#8e4f3a;}.r{fill:#633029;}.s{fill:#323657;}.t{fill:#fccca2;}.u{fill:#e55353;}.v{fill:#a77860;}.w{fill:#ebeeff;}.x{fill:#353a3d;}.y{fill:#81807e;}.z{fill:#2d3133;}.aa{fill:#decbc4;}.ab{fill:#495055;}.ac{fill:#252e3b;}.ad{fill:#3c4145;}.ae{fill:#b3a5a0;}.af{fill:#51565c;}.ag{fill:#f5e2d9;}.ah{fill:#00e3f4;}.ai{fill:#ad9f99;}.aj{fill:#69737a;}.ak{fill:#00edff;}.al{fill:#181929;}.am{fill:#22243b;}.an{fill:#292c47;}.ao{fill:#cfbeb6;}.ap{fill:#3a3f47;}.aq{fill:#23263d;}.ar{fill:#02e5f6;}.as{fill:#14286c;}.at{fill:#eddad3;}.au{fill:#03e6f7;}.av{fill:#02e0f1;}.ax{fill:url(#e);}.ay{fill:#1a1a1a;}.az{fill:#666;opacity:0.3;}.az,.bb{mix-blend-mode:multiply;isolation:isolate;}.ba{fill:#1e1e1e;}.bb{fill:#112c47;opacity:0.7;}</style><linearGradient id="a" x1="0.571" y1="1.795" x2="0.493" y2="0.379" gradientUnits="objectBoundingBox"><stop offset="0" stop-color="#d1d7e0"/><stop offset="1" stop-color="#ebebff"/></linearGradient><linearGradient id="b" x1="0.5" y1="1.147" x2="0.5" y2="0.24" xlink:href="#a"/><linearGradient id="c" x1="0.5" y1="2.165" x2="0.5" y2="0.322" xlink:href="#a"/><linearGradient id="e" x1="0" y1="0.5" x2="1" y2="0.5" xlink:href="#a"/></defs><g transform="translate(-107.9 -48.074)"><path class="a" d="M57.046,0h0a57.046,57.046,0,0,1,57.046,57.046v0a57.046,57.046,0,0,1-57.046,57.046h0A57.046,57.046,0,0,1,0,57.046v0A57.046,57.046,0,0,1,57.046,0Z" transform="translate(272.539 107.387)"/><rect class="b" width="52.823" height="2.609" transform="translate(303.173 195.505)"/><rect class="b" width="37.86" height="2.61" transform="translate(310.655 203.728)"/><path class="c" d="M69.116,0H87.034a69.115,69.115,0,0,1,69.115,69.115v45.053a69.115,69.115,0,0,1-69.115,69.115H69.115A69.115,69.115,0,0,1,0,114.168V69.116A69.116,69.116,0,0,1,69.116,0Z" transform="translate(405.401 146.958)"/><g transform="translate(476.2 255.083)"><rect class="d" width="12.384" height="2.294"/></g><g transform="translate(429.182 276.101)"><rect class="b" width="72.064" height="4.441"/><rect class="b" width="58.275" height="4.441" transform="translate(0 21.321)"/><rect class="b" width="34.163" height="4.441" transform="translate(0 10.66)"/></g><g transform="translate(430.422 165.235)"><path class="e" d="M2079.569,763.9v2.243h13.206v12.394h2.242V763.9Zm-89.677,14.637h2.243V766.145h13.206V763.9h-15.448Zm102.883,63.952v12.4h-13.206v2.243h15.448V842.491Zm-100.64,0h-2.243v14.641h15.448v-2.243h-13.206Z" transform="translate(-1989.892 -763.902)"/></g><g transform="translate(515.35 275.775)"><path class="e" d="M2395.728,1301.354a13.207,13.207,0,1,1,13.207-13.207A13.222,13.222,0,0,1,2395.728,1301.354Zm0-23.857a10.651,10.651,0,1,0,10.651,10.651A10.663,10.663,0,0,0,2395.728,1277.5Z" transform="translate(-2382.521 -1274.94)"/><g transform="translate(6.364 8.913)"><path class="e" d="M2417.944,1325.636l-6-6,1.807-1.807,4.193,4.193,5.877-5.877,1.808,1.807Z" transform="translate(-2411.944 -1316.144)"/></g></g><path class="f" d="M927.433,1836.886c0,5.539-95.945,10.03-214.3,10.03s-214.3-4.49-214.3-10.03,95.945-10.03,214.3-10.03S927.433,1831.346,927.433,1836.886Z" transform="translate(-390.935 -1431.699)"/><rect class="g" width="76.903" height="65.982" transform="translate(291.134 111.653)"/><rect class="c" width="83.824" height="75.494" rx="37.747" transform="translate(397.839 65.137)"/><g transform="translate(436.108 126.353)"><rect class="d" width="6.648" height="1.231"/></g><g transform="translate(411.534 78.799)"><path class="h" d="M1950.708,364.3v1.2h7.089v6.653h1.2V364.3Zm-48.141,7.857h1.2V365.5h7.089v-1.2h-8.293Zm55.23,34.331v6.656h-7.089v1.2H1959v-7.86Zm-54.026,0h-1.2v7.86h8.293v-1.2h-7.089Z" transform="translate(-1902.567 -364.297)"/></g><g transform="translate(325.145 182.757)"><rect class="d" width="8.88" height="1.645"/></g><g transform="translate(291.896 119.239)"><path class="h" d="M1413.768,551.257v1.608h9.469v8.887h1.608V551.257Zm-64.3,10.495h1.608v-8.887h9.469v-1.608h-11.077Zm73.77,45.856v8.89h-9.469v1.608h11.077v-10.5Zm-72.162,0h-1.608v10.5h11.077V616.5h-9.469Z" transform="translate(-1349.467 -551.257)"/></g><g transform="translate(431.357 125.144)"><g transform="translate(0 51.047)"><path class="i" d="M2093.486,872.961h-14.813c-.975-7.093-2.172-15.189-2.172-15.189s-.6,6.682-1.327,15.189H2015.9c-.54-7.65-1.192-13.375-1.427-13.492-.341-.17-2.454,6.617-4.21,13.492h-16.046c4.128-17.779,11.825-46.3,16.276-48.01,6.335-2.437,32.169-10.4,32.169-10.4H2057.4s26.2,7.474,28.635,15.6C2087.973,836.629,2092.248,857.984,2093.486,872.961Z" transform="translate(-1994.213 -814.553)"/></g><g transform="translate(40.02 3.09)"><path class="j" d="M2195.706,592.971s13.766,2.169,11.67,23.707-14.246,19.773-15.058,19.751-12.2.393-13.085-25.9C2179.232,610.526,2178.845,591.08,2195.706,592.971Z" transform="translate(-2179.232 -592.842)"/></g><g transform="translate(44.588 37.999)"><path class="j" d="M2218.681,756.566s-.377,8.859.48,10.777-11.36,8.078-18.812,1.213c0,0,1.8-9.628,1.3-13.04S2218.681,756.566,2218.681,756.566Z" transform="translate(-2200.349 -754.23)"/></g><g transform="translate(67.577 20.133)"><path class="j" d="M2307.429,672.344s1.508-1.61,2.06.02-2.338,8.914-2.15,9.241c0,0-.275.632-.637.284S2307.429,672.344,2307.429,672.344Z" transform="translate(-2306.629 -671.635)"/></g><g transform="translate(38.035 19.836)"><path class="j" d="M2172.193,671s-1.476-1.639-2.06-.02,2.166,8.957,1.971,9.28c0,0,.263.637.632.3S2172.193,671,2172.193,671Z" transform="translate(-2170.051 -670.262)"/></g><g transform="translate(38.431)"><path class="k" d="M2201.823,602.7l-1.971,2.635s.055-5.776-.261-6.682-.8-3.673-1.064-4.325-11.822-3.891-22.03.946c0,0,.449,4.154-.53,4.523s-.5,6.765-.5,6.765l-1.62-1.828s-2.48-16.571-1.868-18.3,2.564-12.111,23.508-5.947c0,0,6.529-1.383,7.84,3.125S2201.823,602.7,2201.823,602.7Z" transform="translate(-2171.884 -578.557)"/></g><g transform="translate(44.581 51.045)"><path class="j" d="M2219.135,814.609s3.106.663-9.892,13.118c0,0-9.219-10.2-8.92-11.905S2219.135,814.609,2219.135,814.609Z" transform="translate(-2200.316 -814.542)"/></g><g transform="translate(53.508 49.252)"><path class="l" d="M2241.587,821.232l3.547,6.066,10.522-17.865-4.556-3.178Z" transform="translate(-2241.587 -806.254)"/></g><g transform="translate(40.021 50.534)"><path class="l" d="M2192.72,825.875l-8.608-13.7-4.88,3.136,8.749,16.626Z" transform="translate(-2179.232 -812.179)"/></g><g transform="translate(50.24 64.181)"><path class="l" d="M2227.077,913.268c.106,2.02.153,4.5.159,7.28h-.488c-.006-2.771-.053-5.243-.158-7.257-.8-15.2,2.883-33.684,2.906-38.017l.476.094C2229.948,879.7,2226.278,898.137,2227.077,913.268Z" transform="translate(-2226.476 -875.274)"/></g><path class="m" d="M2212.281,780.819a9.165,9.165,0,0,0,7.89,2.536c4.62-.922,6.671-3.038,6.671-3.038a8.587,8.587,0,0,1-7.165,4.992C2214.336,785.728,2212.281,780.819,2212.281,780.819Z" transform="translate(-2165.112 -736.675)"/></g><g transform="translate(294.082 96.416)"><g transform="translate(22.853 15.484)"><path class="n" d="M1467.312,525.274a.142.142,0,0,1-.031,0c-.311-.076-.8-1.565-.9-1.862-.022-.082-.071-.231-.138-.439-.386-1.192-1.289-3.983-.937-5.053.111-.337.284-.533.515-.581.494-.1,1.059.525,1.083.552l.012.013,0,.018c.128,1.174.755,7.045.484,7.315A.129.129,0,0,1,1467.312,525.274Zm-1.376-7.836a.456.456,0,0,0-.091.009c-.188.039-.332.209-.43.505-.34,1.034.587,3.9.937,4.982.067.209.116.36.139.441a5.167,5.167,0,0,0,.816,1.784s.008,0,.016-.006a56.366,56.366,0,0,0-.515-7.2A1.543,1.543,0,0,0,1465.936,517.437Z" transform="translate(-1465.228 -517.324)"/></g><g transform="translate(19.22)"><path class="o" d="M1464.383,445.766s7.578-.794,10.308,6.524,5.3,9.714,5.623,13.558c1.3,15.549,8.563,12.032,6.521,21s-3.456,10.319-3.456,10.319l-17.36-3.4-17.586.057s6.88-3.436,5.348-10.754-5.348-19.312-3.193-27.481S1459.854,446.391,1464.383,445.766Z" transform="translate(-1448.433 -445.741)"/></g><g transform="translate(44.266 15.483)"><path class="n" d="M1564.382,525.273a.129.129,0,0,1-.092-.04c-.27-.27.356-6.141.484-7.315l0-.018.012-.013c.024-.027.589-.655,1.083-.552.23.048.4.243.515.581.352,1.07-.551,3.861-.937,5.053-.067.207-.115.357-.137.436-.1.3-.588,1.789-.9,1.865A.139.139,0,0,1,1564.382,525.273Zm.5-7.324a56.144,56.144,0,0,0-.514,7.2c.007.007.011.006.015.005a5.171,5.171,0,0,0,.817-1.787c.022-.08.071-.23.138-.439.349-1.08,1.277-3.948.937-4.982-.1-.3-.242-.466-.43-.505C1565.455,517.364,1564.968,517.861,1564.886,517.949Z" transform="translate(-1564.224 -517.323)"/></g><g transform="translate(0 39.275)"><path class="p" d="M1430.376,657.977h-10.817c-2.243-4.088-4.066-7.286-4.066-7.286a32.69,32.69,0,0,0-2.589,7.286h-36.416a31.461,31.461,0,0,1-.474-7.62s-1.946,3.517-4.2,7.62h-12.234c3.247-6.079,9.33-17.149,10.713-18.592,1.736-1.819,11.8-8.773,18.982-11.043s11.272-.079,11.272-.079a85.137,85.137,0,0,1,14.2,4.035C1417.428,633.362,1424.838,647.047,1430.376,657.977Z" transform="translate(-1359.576 -627.313)"/></g><g transform="translate(24.214 4.223)"><path class="q" d="M1483.476,465.348s10.036,1.448,8.567,16.263-10.327,13.639-10.918,13.627-8.886.308-9.6-17.77C1471.521,477.468,1471.186,464.1,1483.476,465.348Z" transform="translate(-1471.52 -465.266)"/></g><g transform="translate(29.202 30.895)"><path class="q" d="M1506.005,589.246s-.621,7.706.863,10.015-1.269,5.442-6.943,4.371-5.344-4.288-5.344-4.288,1.588-4.756,1.124-8.562S1506.005,589.246,1506.005,589.246Z" transform="translate(-1494.578 -588.574)"/></g><g transform="translate(23.217 1.881)"><path class="o" d="M1478.714,462.23s4.689,4.93,6.867,7.426,2.429,7.318,2.429,7.318,3.669-4.481,2.135-9.7-5.165-15.373-14.355-12.253-9.531,16.849-8.453,23.656C1467.337,478.676,1471.462,463.648,1478.714,462.23Z" transform="translate(-1466.909 -454.436)"/></g><g transform="translate(27.774 39.499)"><path class="q" d="M1504.358,629.753s-6.96,17.628-11.19,20.691c0,0-5.557-17.979-5.168-20.611C1488,629.834,1496.382,626.549,1504.358,629.753Z" transform="translate(-1487.98 -628.35)"/></g><g transform="translate(19.724 36.64)"><path class="o" d="M1460.481,615.131s-12.407,11.039-9.187,17.926c2.748,5.878,12.492,2.273,10.885-3.886A69.328,69.328,0,0,1,1460.481,615.131Z" transform="translate(-1450.761 -615.131)"/></g><g transform="translate(31.067 32.56)"><path class="r" d="M1503.2,597.234a8.767,8.767,0,0,0,8.438-.964,5.43,5.43,0,0,1-4.219,2.727A4.158,4.158,0,0,1,1503.2,597.234Z" transform="translate(-1503.202 -596.27)"/></g></g><g transform="translate(418.93 50.551)"><g transform="translate(0 38.611)"><path class="s" d="M1953.1,412.207s-4.115,15.486-4.974,18.976a28.987,28.987,0,0,1-2.128,4.94c-.007.015-.015.03-.026.048a3.948,3.948,0,0,0-.385,1.258c-.166,1.291.33,2.309-.529,3.841l-.155.644h-8.145c.951-2.823,2.157-6.416,3.123-9.31.81-2.442,1.451-4.385,1.621-4.948.5-1.68,2.35-7.119,3.919-10.731.548-1.258,2.657-2.5,4.525-3.4C1951.623,412.729,1953.1,412.207,1953.1,412.207Z" transform="translate(-1936.762 -412.207)"/></g><g transform="translate(10.7)"><path class="t" d="M1986.422,250.195s-2.6-16.8,11.314-16.486,13.725,8.615,13.477,16.858-5.578,7.623.434,19.089-5.206,11.466-5.206,11.466l-8.7-11.962Z" transform="translate(-1986.23 -233.704)"/></g><g transform="translate(10.861 1.42)"><path class="n" d="M1996.8,240.465s-9.421,1.488-9.793,14.874,2.541,16.238,10.784,13.449,10.846-16.8,11.032-18.965S2009.5,238.853,1996.8,240.465Z" transform="translate(-1986.972 -240.269)"/></g><g transform="translate(2.144 34.137)"><path class="u" d="M1981.759,405.567c.033,4.607-5.262,15.627-6.08,19.031-.1.4-.2.762-.3,1.106h-25.71c-.133-1.587-.259-2.945-.322-3.711-.2-2.516-2.753-7.937-2.668-10.461.089-2.572,1.351-4.792,3.116-7.538.547-.851,1.125-1.717,1.7-2.561a48.72,48.72,0,0,1,4.659-6.1,14.952,14.952,0,0,1,1.876-1.5l0,0a8.663,8.663,0,0,1,1.932-1.018l8.1-1.3s5.047,1.828,7.952,2.505C1976.009,394.029,1981.674,394.858,1981.759,405.567Z" transform="translate(-1946.674 -391.524)"/></g><g transform="translate(4.475 36.45)"><path class="u" d="M1966.477,402.216l-4.693,7.4-4.332,6.827c.01-.037.3-1.07.788-4.064.093-.568.193-1.207.3-1.923a5.108,5.108,0,0,1,.136-.63h0c1.854-4.274,7.586-7.5,7.8-7.6Z" transform="translate(-1957.452 -402.216)"/></g><g transform="translate(14.869 23.712)"><path class="n" d="M2017.61,343.525c-.817,1.542-1.679,11.114-1.679,11.114s-11.522,4.355-10.343,1.892a9.416,9.416,0,0,0,.7-3.819,18.538,18.538,0,0,0-.128-2.325c-.03-.252-.053-.4-.053-.4S2018.426,341.982,2017.61,343.525Z" transform="translate(-2005.503 -343.327)"/></g><g transform="translate(10.892 1.194)"><path class="t" d="M1993.067,249.253s4.834,7.871,9.234,10.97,2.169,5.578,2.169,5.578,11.481-24.171.566-25.845-17.609-1.8-17.919,14.565C1987.117,254.521,1992.075,249.129,1993.067,249.253Z" transform="translate(-1987.117 -239.225)"/></g><g transform="translate(15.529 29.785)"><path class="v" d="M2015.124,371.4c-1.769,2.609-6.442,3.311-6.442,3.311h0a18.538,18.538,0,0,0-.128-2.325C2011.556,372.967,2015.124,371.4,2015.124,371.4Z" transform="translate(-2008.554 -371.402)"/></g><path class="w" d="M1961.551,409.781h0a9.658,9.658,0,0,0-.455,2.6l1.7-2.561s3.031-4.346,4.07-5.476a17.25,17.25,0,0,1,2.465-2.12S1963.363,405.093,1961.551,409.781Z" transform="translate(-1955.832 -365.775)"/><path class="u" d="M2059.683,417.182s7.4-2.9,9.583-3.069c0,0-1.488-11.876-8.752-10.617S2059.683,417.182,2059.683,417.182Z" transform="translate(-2031.035 -366.696)"/><path class="n" d="M1993.709,392.728s-5.429,8.348-3.592,9.078,11.786-.973,16.016-8.9C2006.133,392.9,1999.809,389.659,1993.709,392.728Z" transform="translate(-1978.279 -357.296)"/><path class="s" d="M2042.927,406.79c-.377,6.546-2.235,12.755-3.767,18.454-.222.825-.437,1.643-.636,2.446h-15.057c-.037-2.257-.03-4.248.041-5.909.759-18.169,6.516-27.723,6.516-27.723s1.839.618,7.131,2.117c3.626,1.025,5,5.639,5.495,8.437a.241.241,0,0,1,.008.033A19.983,19.983,0,0,1,2042.927,406.79Z" transform="translate(-2004.695 -359.372)"/><path class="s" d="M1959.247,397.529a43.573,43.573,0,0,0-2.239,4.492,48.788,48.788,0,0,0-4.2,17.7,104.179,104.179,0,0,1-1.206,10.69h-3a47.711,47.711,0,0,0-1.654-9.31c-.411-1.462-.788-2.553-.992-3.245-.958-3.26,2.106-7.6,3.131-9.154S1952.568,400.016,1959.247,397.529Z" transform="translate(-1943.82 -362.093)"/><path class="s" d="M2072.735,434.523h-8.085a10.707,10.707,0,0,0-.478-2.446c-1.469-5.221-5.817-15.386-5.817-15.386s-6.505-10.631-.341-13.34,8.818,4.862,9.646,8.093a.241.241,0,0,1,.008.033C2067.872,412.25,2071.543,426.245,2072.735,434.523Z" transform="translate(-2029.707 -366.205)"/></g><g transform="translate(237.902 186.59)"><g transform="translate(91.439 78.694)"><path class="n" d="M1523.337,1231.6s2.825-.04,3.831-1.128a13.205,13.205,0,0,1,3.352-2.341c.762-.371,2.87-2.421,3.135-1.42s-3.357,3.54-4.046,4.225,3.009.984,3.551,1.649-1.344,7.662-3.808,7.12-4.482-3.027-4.948-3.021a13.081,13.081,0,0,1-1.82-.311Z" transform="translate(-1522.585 -1226.438)"/></g><g transform="translate(98.326 84.555)"><path class="n" d="M1557.586,1253.535s7.354,2.246,7.658,2.883.1,1.1-.6.926-7.2-1.926-7.2-1.926,8.038,4.395,8.4,4.834c.212.257-.141,1.176-.53,1.123s-8.664-3.849-8.664-3.849,7.5,4.12,7.682,4.609c.163.428-.339,1.217-.92.959s-7.805-3.6-7.805-3.6,5.223,3.42,5.142,3.984c-.05.344-.323,1.148-1.639.213s-4.686-2.731-4.686-2.731Z" transform="translate(-1554.42 -1253.535)"/></g><g transform="translate(68.611 207.283)"><path class="x" d="M1425.156,1821.563s2.359,3.53,5.669,4.292,6.569,1.975,6.594,4.064-9.569,3.334-13.356,1.229c-5.653-3.142-6.227-2.2-6.854-3.766s.753-5.771.712-6.271C1417.871,1820.494,1425.156,1821.563,1425.156,1821.563Z" transform="translate(-1417.046 -1820.919)"/></g><g transform="translate(69.482 205.16)"><path class="y" d="M1427.944,1812.128a15.081,15.081,0,0,1,.366,1.741c-.064.036-7.458.917-7.234-.451.182-1.11.44-2.316.44-2.316Z" transform="translate(-1421.071 -1811.102)"/></g><g transform="translate(22.207 206.817)"><path class="x" d="M1210.6,1819.639s1.683,3.377,4.558,4.527c3.073,1.23,5.538,2.643,5.483,4.678s-7.514,4.1-12.94.192c-3.428-2.468-4.514-2.48-5.064-4.033s.955-5.592.934-6.08C1203.545,1818.319,1210.6,1819.639,1210.6,1819.639Z" transform="translate(-1202.515 -1818.764)"/></g><g transform="translate(23.259 204.626)"><path class="y" d="M1214.494,1809.949a16.512,16.512,0,0,1-.084,1.753c-.064.033-7.21.622-7.029-.717a11.012,11.012,0,0,1,.694-2.348Z" transform="translate(-1207.378 -1808.637)"/></g><g transform="translate(20.489 94.944)"><path class="z" d="M1230.66,1309.411s9.386,35.958,12.96,44.271c3.311,7.7,4.4,18.473,4.86,23.883.573,6.8,3.987,33.3,4.388,35.292s-11.042,1.1-11.042,1.1-7.89-45.816-11.166-52.5c-2.186-4.462-14.87-36.458-16.321-34.616s-3.251,33.9-4.326,39.224-4.375,47.373-4.375,47.373-7.378,1.089-9.348-.579c0,0-.9-35.906-.212-45.884.261-3.8-4.455-45.592,1.592-62.416C1200.866,1295.667,1230.66,1309.411,1230.66,1309.411Z" transform="translate(-1194.572 -1301.564)"/></g><g transform="translate(4.297 34.731)"><path class="aa" d="M1119.714,1065.465a21.785,21.785,0,0,0,2.016,4.422c1.813-3.626,3.237-6.6,3.7-7.7,1.528-3.608,9.4-11.878,9.4-11.878a.065.065,0,0,0,0,.017.033.033,0,0,0,0,.01.02.02,0,0,1,0,.009c0,.012.007.023.009.034s.011.043.019.071a.407.407,0,0,1,.012.044.28.28,0,0,1,.009.033c.429,1.6,3.061,11.578,3.157,16.494.107,5.352,1.5,15.254,1.5,15.254h.006l1.644.23,3.637.513.436.061,1.058.148,9.644,1.357,3.42.481.463.066,1.955.275,5.4.759,1.377.193.013,0,1.03.145,1.426.2h0c.039-.053,1.387-1.9,1.179-6-.132-2.645-.451-7.617-.319-12.228,0-.024,0-.048,0-.071,0-.059,0-.116,0-.175,0-.021,0-.039,0-.058v-.01a32.921,32.921,0,0,1,.78-6.76,27.981,27.981,0,0,0,.671-3.6l.021-.167c.024-.213.047-.423.067-.63a31.794,31.794,0,0,0,.051-5.776l.006.012c.1.213.8,2.793,1.724,5.978,1.56,5.384,3.743,12.5,4.673,12.839,1.352.5,23.264,6.987,28,7.652.547.077.865.076.895-.021.022-.069.044-.14.066-.214.575-1.9,1.365-5.117,1.492-5.637.013-.047.018-.072.018-.072l-.848-.254-23.842-7.145-10.9-31.43c-.228-.182-2.9-1.478-4.859-2.407-1.993-.949-4.4-2.343-6.573-3.536-1.11-.607-2.16-1.161-3.067-1.578l-.139-.063h0c-1.5-.687-2.5-1.141-2.5-1.141h0l-.652-.062c-2.093-.2-8.6-.809-10.778-.936-.18-.011-.33-.018-.446-.021-.1,0-.174,0-.22,0a27.2,27.2,0,0,0-3.379,1.155h0l-.2.077-.25.094-.466.179-.968.379-.344.136a69.381,69.381,0,0,0-8.528,3.82c-.634.454-2.61,4.179-4.9,8.784-2.95,9.451-6.689,23.918-6.805,27.486C1119.715,1065.36,1119.714,1065.414,1119.714,1065.465Z" transform="translate(-1119.714 -1023.191)"/></g><g transform="translate(23.578 93.816)"><path class="ab" d="M1240.917,1300.779s.726.868.936,4.544c0,0-29.836-3.481-32.99-4.852,0,0-.123-4.051.546-4.121C1210.143,1296.272,1240.917,1300.779,1240.917,1300.779Z" transform="translate(-1208.854 -1296.349)"/></g><g transform="translate(30.198 23.035)"><path class="n" d="M1239.459,979.8c.093,4.682,9.159,7.244,9.159,7.244s3.792-4.754,2.886-5.21c-.356-.179-.5-.889-.544-1.684a16.458,16.458,0,0,1,.052-2.124c.027-.331.052-.544.052-.544s-1.3-1.367-2.943-3c-2.88-2.847-6.839-6.495-6.845-5.044a1.273,1.273,0,0,0,.033.275C1242.005,972.988,1239.459,979.8,1239.459,979.8Z" transform="translate(-1239.459 -969.119)"/></g><g transform="translate(28.862 94.364)"><path class="x" d="M1235.371,1299.052s-.651,4.107-.708,5.177l-1.38-.275s.38-4.345.6-5.073Z" transform="translate(-1233.283 -1298.881)"/></g><g transform="translate(51.761 97.572)"><path class="x" d="M1340.54,1313.909s.523,3.733.536,5.143l-1.46-.19s-.3-4.662-.466-5.148Z" transform="translate(-1339.149 -1313.714)"/></g><g transform="translate(33.69 26.86)"><path class="v" d="M1255.6,986.8h0c.018.027.4.6,1.059,1.428,1.392,1.751,4.008,4.627,6.95,5.782a16.477,16.477,0,0,1,.052-2.124,4.713,4.713,0,0,0,.9-.108,27.886,27.886,0,0,0-1.971-2.886l-1.82-.544Z" transform="translate(-1255.602 -986.803)"/></g><g transform="translate(28.862 7.691)"><path class="n" d="M1236.37,913.919c.785,1.706,1.529,2.943,1.74,3.432h0a6.063,6.063,0,0,0,1.059,1.428c1.494,1.61,4.271,3.733,7,3.658a4.713,4.713,0,0,0,.9-.108,4.283,4.283,0,0,0,3.12-2.155c5.656-11.074,1.561-20.13,1.561-20.13s-15.465-4.373-17.885.282C1232.17,903.593,1234.528,909.91,1236.37,913.919Z" transform="translate(-1233.283 -898.183)"/></g><g transform="translate(26.545)"><path class="ac" d="M1243.359,872.179s1.436-.079,1.792-2.8c.351-2.691-.359-3.436-.359-3.436s-6.385-2.673-8.677-3.02-7.931-.681-9.252.83c0,0-3.211-.746-4.085,4.584-1.388,8.456,4.729,16.667,4.729,16.667s-.052-5.524,1.166-6.256,2.27,1.009,2.27,1.009l2.492.446s-3.785-8.173.755-8.476S1240.76,872.653,1243.359,872.179Z" transform="translate(-1222.572 -862.625)"/></g><g transform="translate(30.489 12.595)"><path class="n" d="M1245.16,923.186c-.237-2.434-4.638-3.363-4.344-.812s2.462,5,3.463,4.916S1245.341,925.041,1245.16,923.186Z" transform="translate(-1240.802 -920.855)"/></g><g transform="translate(4.297 35.888)"><path class="ad" d="M1121.73,1074.079c1.917,3.657,4.942,9.039,7.929,14.257-.393.734-.777,1.462-1.146,2.181a43.687,43.687,0,0,0-2.261,5.045c-.681,1.907-1.627,6.792.184,7.7l9.544,5.268s.067-.186.193-.531c.316-.857,1-2.69,1.951-5.065.031-.077.126-.3.268-.637.19-.448.464-1.087.776-1.817.141-.327.288-.672.441-1.026.172-.4.352-.822.53-1.238l.758-1.763c.651-1.516,1.16-2.7,1.16-2.7.032-.07.064-.139.1-.209q.466-1.007.953-2.017c.5-1.041,1.018-2.077,1.546-3.091.053-.1.106-.206.16-.308.094-.178.189-.356.283-.533l.176-.323.039-.072c.024-.043.047-.085.071-.128,2.759-5.033,5.867-9.241,6.859-15.413q.143-.894.273-1.776c.144-.98.276-1.948.4-2.9.045-.359.09-.713.132-1.065.5-4.118.794-7.786,1.033-10.342.746-7.962-4.13-16.582-7.874-21.908a58.98,58.98,0,0,0-4-5.115c-.008-.007-.014-.014-.019-.019l-.2.077-.25.094-.466.18c-.315.123-.639.249-.968.379l-.344.136c-3.625,1.422-11.26,3.522-12.221,4.211-.554.4-1.795,4.03-3.227,8.619a137.854,137.854,0,0,0-4.786,27.26c0,.057,0,.111,0,.161A21.785,21.785,0,0,0,1121.73,1074.079Zm14.5-1.778a16.468,16.468,0,0,1-1.465,5.976c-.023.054-.045.109-.068.163-.612-1.306-1.188-2.556-1.7-3.714a.013.013,0,0,1,0-.006c-1.42-3.179-2.4-5.659-2.45-6.64-.351-6.3,4.293-13.561,4.293-13.561a.034.034,0,0,0,0,.01.02.02,0,0,1,0,.009c0,.012.007.023.009.034s.014.046.019.071a.4.4,0,0,1,.012.044.284.284,0,0,1,.009.033C1135.841,1058.469,1136.233,1072.3,1136.233,1072.3Z" transform="translate(-1119.714 -1028.54)"/></g><path class="ae" d="M1138.794,1258.89l-27.2,12.109a3.05,3.05,0,0,1-4.027-1.546l-7.448-16.733a3.05,3.05,0,0,1,1.547-4.027l27.2-12.109a3.05,3.05,0,0,1,4.027,1.546l7.448,16.733A3.05,3.05,0,0,1,1138.794,1258.89Z" transform="translate(-1099.85 -1155.488)"/><g transform="translate(44.811 36.959)"><path class="ad" d="M1307.014,1033.546a127.514,127.514,0,0,1,2.926,14.85,0,0,0,0,0,0,0c.057.356.111.719.168,1.089.006.043.013.086.02.129.037.245.075.493.112.745,0,.03.009.059.014.089q.038.254.075.511.093.629.186,1.28c.736,5.161,1.769,13.944,2.762,22.81v0c.785,6.989,2.572,14.16,3.14,19.512,0,0,0,.007,0,.011a36.921,36.921,0,0,0,.743,4.023c.04.178.083.359.125.542,1.6,6.755,4.7,16.317,4.7,16.317l.9-.835,2.678-2.472a2.17,2.17,0,0,0,.6-2.24c-1.485-4.79-6.532-21.744-7.457-33.664a.035.035,0,0,1,0-.011c.454-4.188,1.614-9.809,1.44-10.617.011.029.022.057.032.087.531,1.478,1.12,3.085,1.714,4.649h0c1.593,4.2,3.223,8.093,3.9,8.341,1.51.556,28.636,8.558,28.833,7.442.02-.112.043-.232.069-.359s.052-.256.08-.392c.335-1.529.943-3.721,1.368-5.2l.174-.605c.178-.613.294-1,.294-1l-22.939-7.529-11.574-30.268c-.228-.18-3.181-1.77-5.137-2.7-2.036-.969-4.612-2.165-6.9-3.22-1.091-.5-2.12-.976-2.988-1.376Z" transform="translate(-1307.014 -1033.49)"/></g><g transform="translate(24.876 35.887)"><path class="af" d="M1219.259,1040.158l4.411,2.487-1.884,1.922,5.018,27.091c1.023-6.35,1.489-12.38,1.835-16.078,1.154-12.308-11.131-26.193-11.9-27.043-.59.224-1.228.471-1.886.731Z" transform="translate(-1214.856 -1028.537)"/></g><g transform="translate(44.742 36.896)"><path class="af" d="M1306.7,1033.2s1.648,5.382,3.569,18.817c.737,5.161,1.77,13.944,2.763,22.81l1.027-25.372-2.1-2.276,1.868-2.335-4-10.205c-1.092-.5-2.12-.977-2.989-1.376Z" transform="translate(-1306.699 -1033.199)"/></g><g transform="translate(26.516 33.721)"><path class="ag" d="M1222.438,1020.781l3.682-2.26s.1,2.005,9.159,7.244l-2.572,7.244Z" transform="translate(-1222.438 -1018.521)"/></g><g transform="translate(39.357 34.731)"><path class="ag" d="M1284.211,1023.192s-.142,2.165-2.409,6.234l5.02,6.544.366-10.613Z" transform="translate(-1281.802 -1023.192)"/></g><g transform="translate(38.645 40.965)"><path class="ah" d="M1279.208,1052.011s-.973,3.891-.623,4.98a4.749,4.749,0,0,0,3.677-.194A17.1,17.1,0,0,0,1279.208,1052.011Z" transform="translate(-1278.509 -1052.011)"/></g><g transform="translate(43.91 85.762)"><path class="ai" d="M1303.314,1270.436c.544-2.745.026-10.972,0-11.321l-.466.03c.005.085.536,8.514,0,11.2Z" transform="translate(-1302.852 -1259.115)"/></g><g transform="translate(40.466 95.818)"><path class="aj" d="M1287.026,1305.6s4.39.524,5.842.886l-.19,4.921-5.749-.613Z" transform="translate(-1286.929 -1305.601)"/></g><g transform="translate(39.085 44.856)"><path class="ak" d="M1282.984,1070.545a69.088,69.088,0,0,1,4.1,26.2c-.828,14.35-2.187,19.553-2.187,19.553l-3.019,3.786-1.331-4.654s4.051-18.295,1.436-36.1c-.474-3.226-1.178-9.339-1.178-9.339Z" transform="translate(-1280.545 -1070)"/></g><g transform="translate(22.039 103.777)"><path class="n" d="M1206.509,1342.417s1.051,2.1,2.1,2.452a9.1,9.1,0,0,1,2.583,2.057l-7.4,3.9s-1.97-3.852-2.057-6.3S1206.509,1342.417,1206.509,1342.417Z" transform="translate(-1201.736 -1342.4)"/></g><g transform="translate(21.604 103.992)"><path class="aa" d="M1205.637,1343.392l.49.985s-4.7,3.436-5.965,3.655l-.435-1.314Z" transform="translate(-1199.727 -1343.392)"/></g><g transform="translate(8.224 80.343)"><path class="ad" d="M1157.649,1257.753a36.06,36.06,0,0,1-6.488,4.254l-13.292-23.307,8.484-4.639S1157.415,1256,1157.649,1257.753Z" transform="translate(-1137.869 -1234.061)"/></g><g transform="translate(56.664 54.568)"><path class="z" d="M1362.963,1123.151c.163,3.32.139,6.269.139,6.269v0c0,.016,0,.106.011.254l.021-.167c.531,1.478,1.12,3.085,1.714,4.649a49.818,49.818,0,0,0,.134-5.066c-.238-9.311-3.167-14.193-3.167-14.193C1362.487,1116.522,1362.809,1120,1362.963,1123.151Z" transform="translate(-1361.815 -1114.899)"/></g></g><g transform="translate(344.568 187.171)"><g transform="translate(66.603 24.173)"><path class="n" d="M1900.934,984.438a10.963,10.963,0,0,1,.063-2.51c.348-1.379-.165-3.612,1.57-4.7s6.721,3.454,7.113,4.721-1.472,3.428-5.371,5.243S1900.934,984.438,1900.934,984.438Z" transform="translate(-1900.888 -977.067)"/></g><g transform="translate(67.751 15.273)"><path class="n" d="M1906.2,945.437a58.99,58.99,0,0,1,3.906-5.121c1.95-2.271,4.686-4.817,5.264-4.334.877.734-1.606,2.565-3.386,4.947-1.639,2.193-.944,2.037-.944,2.037s-.2.034,2.056-2.006c2.426-2.193,5.124-4.446,5.6-4.059.6.48.629.59-.119,1.531.548-.448.75-.36.961-.148,1.092,1.1-1.963,4.878-3.177,6.379.94-1.147,1.754-1.888,1.988-.785.268,1.262-4.3,6.411-5.752,8.413C1911.01,954.474,1906.2,945.437,1906.2,945.437Z" transform="translate(-1906.196 -935.922)"/></g><g transform="translate(0 206.108)"><path class="al" d="M1602.4,1818.771s4.745,2.806,6.893,3.848,10.5,1.342,11.321,2.125.523,3.279-.861,3.534-11.53,1.172-14.915.381-9.717.541-11.119.064-.5-8.035.044-9.732S1602.4,1818.771,1602.4,1818.771Z" transform="translate(-1592.975 -1818.175)"/></g><g transform="translate(1.161 203.614)"><path class="am" d="M1607,1806.641l-.4,3.09s-6.344,1.186-8.266.209l.476-3.211Z" transform="translate(-1598.343 -1806.641)"/></g><g transform="translate(0 84.516)"><path class="an" d="M1628.248,1269.568c-.068,2.14-.458,6.784-.911,11.661-.1,1.083-.208,2.179-.312,3.261-.633,6.563-1.271,12.633-1.271,12.633-.8,5.224-2.454,14.294-4.3,21.151v0c-.534,1.979-1.082,3.773-1.631,5.238a12.929,12.929,0,0,1-1.594,3.206c-3.931,5.022-12.945,49.542-12.945,49.542l-12.3-.094s2.706-30.146,5.426-37.787c3.034-8.535,8.306-20.036,7-28.267-.819-5.165-1.876-21.607-1.876-21.607s-1.028-18.475,3.8-32.006C1608.533,1253.118,1628.248,1269.568,1628.248,1269.568Z" transform="translate(-1592.977 -1256.041)"/></g><g transform="translate(34.494 207.195)"><path class="al" d="M1761.953,1823.862s4.711,2.862,6.847,3.93,10.48,1.467,11.3,2.261.483,3.285-.9,3.523-11.543,1.034-14.919.2-9.723.424-11.119-.069-.4-8.041.161-9.73S1761.953,1823.862,1761.953,1823.862Z" transform="translate(-1752.443 -1823.197)"/></g><g transform="translate(35.736 204.765)"><path class="am" d="M1766.887,1811.974l-.432,3.085s-6.357,1.11-8.268.11l.515-3.205Z" transform="translate(-1758.187 -1811.964)"/></g><g transform="translate(17.302 86.029)"><path class="an" d="M1685.389,1337.632c-.32-9.846-1.19-16.388-3.724-22.076-2.128-4.777-3.949-19.779-3.949-19.779s-5.767-17.579-4.6-31.9c.293-3.577,22.582,5.415,22.582,5.415a131.788,131.788,0,0,1,2.507,13.516c3.018,27.809,1.889,45.926,1.889,45.926-1.724,6.141,2.631,54.454,2.631,54.454h-12.545s-3.289-17.187-3.635-27.876C1686.547,1355.309,1685.265,1339.334,1685.389,1337.632Z" transform="translate(-1672.962 -1263.033)"/></g><g transform="translate(10.471 30.81)"><path class="ao" d="M1660.361,1010.158s5.845,9.583,7.554,14.93.332,20.895.634,24.019c.935,9.695,2.3,20.368,2.3,20.368l-19.6,12.516a193.814,193.814,0,0,1-6.584-18.445,86.027,86.027,0,0,1-3.285-25.592c.09-19.3,10.524-30.2,10.524-30.2Z" transform="translate(-1641.384 -1007.753)"/></g><g transform="translate(17.111 3.76)"><path class="n" d="M1691.621,886.448s4.018,4.3,2.883,5.431c-.937.934,2.756,5.22,3.282,5.94s-1.641,1.913-2,2.56-.147,7.391-2.006,8.084-11.25-.04-14.233-1.861-7.795-12.321-7.45-17.373S1684.554,878.949,1691.621,886.448Z" transform="translate(-1672.082 -882.695)"/></g><g transform="translate(22.128 11.057)"><path class="n" d="M1706,933.445s-.069.573-.161,1.461c-.034.373-.08.8-.12,1.261-.023.275-.046.567-.075.865-.005.08-.017.16-.023.241-.011.137-.023.275-.035.418-.046.647-.091,1.318-.126,1.983a20.9,20.9,0,0,0,.086,4.264c.493,2.5-10.27-8.046-10.27-8.046a123.208,123.208,0,0,0,.47-17.37C1695.3,909.329,1706,933.445,1706,933.445Z" transform="translate(-1695.273 -916.432)"/></g><g transform="translate(15.398)"><path class="ap" d="M1686.237,873.769s1.9-4.484-3.962-7.6c-6.9-3.665-14.218,5.536-15.188,6.078s-5.383,5.507-1.065,12.089c5.448,8.305,5.161,8.027,5.161,8.027s.546-6.126.51-7.309c-.065-2.161,5.6-2.417,5.6-2.417s-2.328-3.1.26-4.488S1683.17,873.466,1686.237,873.769Z" transform="translate(-1664.16 -865.313)"/></g><g transform="translate(21.251 14.744)"><path class="n" d="M1695.527,935.274c-.412-.58-1.926-3.139-3.874-.891s3.274,6.45,3.706,6.408S1699,940.152,1695.527,935.274Z" transform="translate(-1691.22 -933.475)"/></g><g transform="translate(11.187 91.393)"><path class="aq" d="M1674.512,1293.1s-.975-4.584-1.163-5.27l-28.657,4.768.294,3.7S1665.633,1295.068,1674.512,1293.1Z" transform="translate(-1644.692 -1287.832)"/></g><g transform="translate(6.118 76.467)"><path class="ar" d="M1623.777,1218.827a86.658,86.658,0,0,1-2.492,41.192c-.842,2.708,19.084-.422,19.084-.422Z" transform="translate(-1621.259 -1218.827)"/></g><g transform="translate(7.451 30.811)"><path class="ak" d="M1653.918,1092.79s-14.154,3.106-18.129,1.7a284.343,284.343,0,0,1-7.8-42.4q-.235-2.477-.4-4.944v0c-1.126-17.376,3.3-35,13.374-39.387.284.192,14.477,12.705,14.207,24.158q-.029,1.163-.035,2.332c-.009,1.408,0,2.82.032,4.227l0,0c.09,4.357.36,8.7.745,12.923.039.44.082.88.124,1.316q.1,1.064.216,2.114.152,1.4.316,2.773A94.524,94.524,0,0,1,1653.918,1092.79Z" transform="translate(-1627.42 -1007.757)"/></g><g transform="translate(33.367 41.378)"><path class="e" d="M1747.235,1056.815a157.443,157.443,0,0,1,3.683,23.837c.85,11.112,1.986,18.97,1.986,18.97l1.7,5.5.7-5.305s-.624-14.341-1.456-20.175c-.839-5.882-1.206-13.349-5.908-23.035Z" transform="translate(-1747.235 -1056.608)"/></g><g transform="translate(32.627 38.24)"><path class="as" d="M1744.254,1045.453a1.579,1.579,0,0,0,.776.375c.455.068,1.106-.66-1.219-3.728Z" transform="translate(-1743.811 -1042.1)"/></g><g transform="translate(20.997 29.224)"><path class="at" d="M1691.3,1000.42s6.59,6.207,10.512,7.576l.748,5.946-12.516-11.935Z" transform="translate(-1690.045 -1000.42)"/></g><g transform="translate(15.673 29.372)"><path class="au" d="M1676.438,1024.984c-2.6-.923-13.394-6.164-10.522-12.282s10.274-2.864,15.846-.375c5.83,2.6,19.592,10.606,20.681,9.861s5.85-7.558,6.71-9.076,6.056-11.221,6.546-11.953c.478-.715,8.026,5.624,8.026,5.624s-13.553,24.07-17.2,27.9S1676.438,1024.984,1676.438,1024.984Z" transform="translate(-1665.433 -1001.102)"/></g><g transform="translate(22.55 126.387)"><path class="al" d="M1703.152,1469.974v0c-.534,1.979-1.081,3.773-1.631,5.238l0,0-4.291-25.6C1698.313,1452.041,1703.152,1469.974,1703.152,1469.974Z" transform="translate(-1697.228 -1449.613)"/></g><g transform="translate(22.781 51.386)"><path class="av" d="M1710.712,1113.019l-12.418-10.143c3.289,1.763,11.374,5.455,12.386,5.916C1710.671,1110.2,1710.682,1111.611,1710.712,1113.019Z" transform="translate(-1698.294 -1102.876)"/></g><g transform="translate(25.005 27.904)"><path class="v" d="M1716.259,995.943c-.034.373-.08.8-.12,1.261-.023.275-.046.567-.075.865-4.115-.275-7.3-3.553-7.49-3.754C1710.247,995.645,1716.259,995.943,1716.259,995.943Z" transform="translate(-1708.574 -994.316)"/></g></g><g class="aw" transform="translate(512.07 115.369)"><path class="ax" d="M2482.422,550.725h6.52l-2-4.139h-6.52Z" transform="translate(-2455.969 -543.727)"/><path class="ax" d="M2468.319,550.725h1.553l-2-4.139h-1.553Z" transform="translate(-2444.917 -543.727)"/><path class="ax" d="M2368.234,535.434h26.4l-.876-2.07h-26.4Z" transform="translate(-2367.357 -533.365)"/></g><g transform="translate(360.585 48.074)"><rect class="ax" width="11.187" height="3.372" rx="1.686"/><g transform="translate(0 8.085)"><rect class="ax" width="11.187" height="3.372" rx="1.686"/></g><g transform="translate(0 16.169)"><path class="ax" d="M1.686,0H9.5a1.686,1.686,0,0,1,1.686,1.686v0A1.686,1.686,0,0,1,9.5,3.372H1.686A1.686,1.686,0,0,1,0,1.686v0A1.686,1.686,0,0,1,1.686,0Z"/></g><g transform="translate(15.807)"><rect class="ax" width="3.183" height="3.372" rx="1.592"/></g><g transform="translate(15.807 8.085)"><rect class="ax" width="3.183" height="3.372" rx="1.592"/></g><g transform="translate(15.807 16.169)"><path class="ax" d="M1.591,0h0A1.592,1.592,0,0,1,3.183,1.592V1.78A1.592,1.592,0,0,1,1.592,3.372h0A1.592,1.592,0,0,1,0,1.78V1.591A1.591,1.591,0,0,1,1.591,0Z"/></g></g><g transform="translate(319.665 235.201)"><path class="ax" d="M1506.746,1094.79h11.7l-3.582-7.43h-11.7Z" transform="translate(-1497.688 -1087.36)"/><path class="ax" d="M1481.429,1094.79h2.789l-3.582-7.43h-2.789Z" transform="translate(-1477.847 -1087.36)"/></g><g transform="translate(-493 -839.43)"><g transform="translate(657.011 1170.307)"><g transform="translate(0 0)"><g transform="translate(24.791 13.66)"><path class="ak" d="M609.4,1262.873c-.376.19-1.456-.382-1.853-.5a6.517,6.517,0,0,1-2.384-.885,3.678,3.678,0,0,1-1.043-2.6,7.8,7.8,0,0,1-.049-1.258,7.089,7.089,0,0,1,.963-3.359,5,5,0,0,1,.41-.581,5.983,5.983,0,0,0,.794-1.015,3.9,3.9,0,0,0,.321-1.554,15.415,15.415,0,0,0-.442-4.81c-.478-1.918-1.656-3.365-1.175-5.42a7.19,7.19,0,0,1,.566-1.489,8.851,8.851,0,0,1,.848-1.324c1.33-1.749,2.893-2.856,2.428-5.573a8.391,8.391,0,0,1,.613-4.5,33.654,33.654,0,0,1,2.119-3.926.626.626,0,0,1,.234-.273.5.5,0,0,1,.418.077c2.036.987,3.18,3.379,4.07,5.575,1.33,2.96.386,6.079-1.12,9.217-1.016,2.089-2.039,4.023-1.772,6.122a11.373,11.373,0,0,0,.485,1.833,12.3,12.3,0,0,1-1.7,10.655,23.462,23.462,0,0,0-1.73,2.423C610.02,1260.4,609.978,1262.575,609.4,1262.873Z" transform="translate(-604.061 -1223.779)"/><g transform="translate(1.73 5.033)"><path class="ay" d="M610.954,1276.556l.66.194a6.16,6.16,0,0,1,.825-4.978,10.359,10.359,0,0,0,1.672-3.366,17.615,17.615,0,0,0,.643-6.606,9.826,9.826,0,0,1,1.479-6.492c2.575-3.456,1.267-11.4,1.159-11.827.063.28.8,8.1-1.587,11.241a10.572,10.572,0,0,0-1.6,6.984,16.949,16.949,0,0,1-.631,6.283,9.854,9.854,0,0,1-1.553,3.155A7.069,7.069,0,0,0,610.954,1276.556Z" transform="translate(-610.833 -1243.481)"/></g></g><path class="az" d="M563.579,1217.813c-.355,1.05.062,3.727-.747,4.187-.528.3-2.286-.2-2.914-.266-.518-.057-1-.095-1.438-.135a8.024,8.024,0,0,1-2.267-.43,4.484,4.484,0,0,1-2.4-2.85,7.057,7.057,0,0,1,.012-5.671,5.208,5.208,0,0,1,.456-.757.189.189,0,0,1,.014-.018,5.682,5.682,0,0,0,.905-1.382,4.046,4.046,0,0,0,0-2.064,21.455,21.455,0,0,0-.9-3.292,22.8,22.8,0,0,0-1.378-3.089c-1.354-2.519-3.261-5.064-3.237-7.717,0-.057,0-.115,0-.172a7.347,7.347,0,0,1,.614-2.619c1.256-2.971,3.859-5.034,2.28-9.108a10.455,10.455,0,0,1-.305-6.175,25.327,25.327,0,0,1,2.226-5.532.751.751,0,0,1,.295-.367.967.967,0,0,1,.651.018c3.276.839,5.635,3.118,7.678,5.816,2.927,3.865,2.406,8.211,1.174,12.055-.859,2.68-1.743,5.6-.68,8.471a25.371,25.371,0,0,0,1.24,2.543c.054.108.108.216.16.325a8.858,8.858,0,0,1,.848-1.324c.09.169.181.342.269.518a18.426,18.426,0,0,1,.633,16.009c-.245.517-.513,1.013-.774,1.491a17.243,17.243,0,0,0-1.036,2.126,7.311,7.311,0,0,0-.117,1.375,11.151,11.151,0,0,1-.166,1.891,3.678,3.678,0,0,1-1.043-2.6A7.786,7.786,0,0,1,563.579,1217.813Z" transform="translate(-538.781 -1170.307)"/><path class="ak" d="M562.832,1222c-.528.3-2.286-.2-2.914-.266-.518-.057-1-.095-1.438-.135a8.024,8.024,0,0,1-2.267-.43,4.484,4.484,0,0,1-2.4-2.85,7.057,7.057,0,0,1,.012-5.671,5.208,5.208,0,0,1,.456-.757.189.189,0,0,1,.014-.018,5.682,5.682,0,0,0,.905-1.382,4.046,4.046,0,0,0,0-2.064,21.455,21.455,0,0,0-.9-3.292,22.8,22.8,0,0,0-1.378-3.089c-1.354-2.519-3.261-5.064-3.237-7.717,0-.057,0-.115,0-.172a7.347,7.347,0,0,1,.614-2.619c1.256-2.971,3.859-5.034,2.28-9.108a10.455,10.455,0,0,1-.305-6.175,25.327,25.327,0,0,1,2.226-5.532.751.751,0,0,1,.295-.367.967.967,0,0,1,.651.018c3.276.839,5.635,3.118,7.678,5.816,2.927,3.865,2.406,8.211,1.174,12.055-.859,2.68-1.743,5.6-.68,8.471a25.371,25.371,0,0,0,1.24,2.543c.054.108.108.216.16.325a17.069,17.069,0,0,1,.427,14.477c-.591,1.25-1.356,2.405-1.847,3.706-.006.015-.011.03-.016.045C563.224,1218.863,563.641,1221.541,562.832,1222Z" transform="translate(-538.781 -1170.307)"/><g transform="translate(17.806 5.868)"><path class="ay" d="M577.466,1238.554l1.042.114a5.822,5.822,0,0,1-.009-5.962,11.646,11.646,0,0,0,1.626-4.906,19.329,19.329,0,0,0-1.156-9.055,12.872,12.872,0,0,1,.033-9.694c2.782-6.207-1.783-15.308-1.956-15.774.074.3,3.66,9.475,1.066,15.269a13.831,13.831,0,0,0-.043,10.43,18.349,18.349,0,0,1,1.1,8.566,10.793,10.793,0,0,1-1.493,4.541A6.587,6.587,0,0,0,577.466,1238.554Z" transform="translate(-576.714 -1193.276)"/></g><g transform="translate(0 12.115)"><path class="az" d="M558.48,1283.486a8.024,8.024,0,0,1-2.267-.43,4.484,4.484,0,0,1-2.4-2.85,7.057,7.057,0,0,1,.012-5.671,5.208,5.208,0,0,1,.456-.757.189.189,0,0,1,.014-.018,5.682,5.682,0,0,0,.905-1.382,4.046,4.046,0,0,0,0-2.064,21.455,21.455,0,0,0-.9-3.292,22.8,22.8,0,0,0-1.378-3.089c-1.354-2.519-3.261-5.064-3.237-7.717,0-.057,0-.115,0-.172a7.347,7.347,0,0,1,.614-2.619c0,.034,0,.068,0,.1-.027,1.631.815,2.551,2.307,4.037a12.507,12.507,0,0,1,3.042,4.066,9.365,9.365,0,0,1,.093,5.7c-.087.423-.167.822-.231,1.216a13.436,13.436,0,0,0,.056,4.5,2.566,2.566,0,0,0,.281.89,1.938,1.938,0,0,0,.272.267c.076.065.154.127.231.191.1.079.194.158.289.239l.033.028a7.709,7.709,0,0,1,.718.7,7.852,7.852,0,0,1,2.008,5.36A4.07,4.07,0,0,1,558.48,1283.486Z" transform="translate(-538.781 -1244.308)"/><path class="ak" d="M524.443,1256.481c-.528.139-1.168.22-1.909.365-.454.089-1.643.567-2.125.373-.75-.3-1.186-2.406-1.759-3.15-.734-.954-1.635-1.781-2.43-2.689a14.669,14.669,0,0,1-3.694-11.209,15.342,15.342,0,0,0,.225-1.993c0-2.234-1.484-4.382-2.882-6.354-2-2.83-3.613-6.08-2.484-9.17.788-2.157,1.932-4.016,4.171-4.843a.7.7,0,0,1,.485-.052.892.892,0,0,1,.325.259,28.237,28.237,0,0,1,3.227,4.046,8.921,8.921,0,0,1,1.5,4.679,5.092,5.092,0,0,0,.823,2.9c1.258,1.992,3.619,3.306,4.64,5.784.686,1.666.312,3.356-.025,5.021-.077.376-.151.75-.211,1.124a14.858,14.858,0,0,0,.061,4.952,6.126,6.126,0,0,0,.149.662,2.739,2.739,0,0,0,.426.9,6.781,6.781,0,0,0,1.085,1,5.814,5.814,0,0,1,.556.545,6.242,6.242,0,0,1,1.594,4.28C526.129,1255.68,525.516,1256.2,524.443,1256.481Z" transform="translate(-507.011 -1217.733)"/><g transform="translate(4.958 4.542)"><path class="ay" d="M538.855,1269.72l-.755.147a5.047,5.047,0,0,0-1.66-4.5,12.619,12.619,0,0,1-2.6-3.608,15.516,15.516,0,0,1-1.659-6.9,11.281,11.281,0,0,0-2.735-7.316c-3.835-4.521-2.933-11.661-2.933-12.023.029.234-.114,7.369,3.463,11.589a12.123,12.123,0,0,1,2.948,7.871,14.731,14.731,0,0,0,1.567,6.531,11.682,11.682,0,0,0,2.4,3.34A5.863,5.863,0,0,1,538.855,1269.72Z" transform="translate(-526.422 -1235.515)"/></g></g></g><g transform="translate(4.554 46.088)"><path class="ba" d="M562.063,1370.067l-.419,1.947-4.506,20.881c-6.406,1.6-12.538,1.776-18.293,0l-4.506-20.881-.419-1.947Z" transform="translate(-531.6 -1365.126)"/><path class="bb" d="M557.622,1358.347v2.994H555.3l-.419,1.947H527.578l-.419-1.947H524.84v-2.994Z" transform="translate(-524.839 -1356.4)"/><rect class="ba" width="32.784" height="4.94"/></g></g></g></g></svg>