<svg xmlns="http://www.w3.org/2000/svg" width="147.191" height="294.074" viewBox="0 0 147.191 294.074"><defs><style>.a{fill:#00edff;}.b{fill:#1a1a1a;}.c{fill:#666;opacity:0.3;}.c,.e{mix-blend-mode:multiply;isolation:isolate;}.d{fill:#1e1e1e;}.e{fill:#112c47;opacity:0.7;}</style></defs><g transform="translate(-507.011 -1170.307)"><path class="a" d="M624.948,1376.819c-1.472.745-5.7-1.5-7.253-1.973-3.984-1.119-7.082-1.611-9.332-3.466-2.077-1.711-3.432-4.582-4.083-10.178a30.467,30.467,0,0,1-.193-4.924,27.751,27.751,0,0,1,3.768-13.149,19.552,19.552,0,0,1,1.606-2.274,23.414,23.414,0,0,0,3.108-3.974,15.272,15.272,0,0,0,1.256-6.083,60.35,60.35,0,0,0-1.731-18.828c-1.871-7.508-6.484-13.172-4.6-21.218a28.15,28.15,0,0,1,2.216-5.83,34.655,34.655,0,0,1,3.319-5.182c5.206-6.845,11.326-11.18,9.505-21.817a32.848,32.848,0,0,1,2.4-17.615c2.19-5.34,5.237-10.05,8.294-15.37a2.452,2.452,0,0,1,.917-1.067,1.947,1.947,0,0,1,1.638.3c7.97,3.863,12.45,13.226,15.931,21.825,5.2,11.586,1.512,23.8-4.383,36.082-3.979,8.179-7.981,15.749-6.937,23.965a44.488,44.488,0,0,0,1.9,7.174c4.553,12.787,1.761,30.184-6.657,41.712-2.312,3.245-4.89,5.989-6.774,9.484C627.388,1367.128,627.225,1375.651,624.948,1376.819Z"/><path class="b" d="M611.3,1372.959l2.582.76c-1.187-5.688-1.3-13.789,3.229-19.488a40.555,40.555,0,0,0,6.545-13.176,68.953,68.953,0,0,0,2.517-25.86c-.546-7.41.042-17.63,5.788-25.414,10.082-13.528,4.96-44.644,4.536-46.3.245,1.1,3.12,31.723-6.213,44-6.191,8.335-6.828,19.405-6.248,27.341a66.348,66.348,0,0,1-2.469,24.6,38.582,38.582,0,0,1-6.08,12.351C610.628,1357.947,610.275,1366.449,611.3,1372.959Z"/><path class="c" d="M604.087,1356.278c-1.389,4.111.243,14.591-2.925,16.39-2.066,1.17-8.948-.774-11.406-1.039-2.027-.222-3.9-.372-5.629-.53a31.384,31.384,0,0,1-8.876-1.684c-3.767-1.515-6.7-4.528-9.39-11.155-3-7.4-3.15-15.692.047-22.2a20.36,20.36,0,0,1,1.787-2.964.746.746,0,0,1,.055-.071c1.277-1.746,2.81-3.342,3.544-5.409.876-2.468.507-5.332-.013-8.079a84.008,84.008,0,0,0-3.532-12.886,89.24,89.24,0,0,0-5.4-12.092c-5.3-9.86-12.764-19.823-12.672-30.208,0-.222.007-.449.015-.673a28.767,28.767,0,0,1,2.4-10.253c4.916-11.63,15.1-19.706,8.924-35.656-3.094-7.989-3-16.476-1.194-24.171s5.234-14.726,8.713-21.656a2.938,2.938,0,0,1,1.154-1.437,3.783,3.783,0,0,1,2.547.069c12.825,3.285,22.059,12.207,30.056,22.768,11.458,15.132,9.419,32.144,4.594,47.19-3.361,10.492-6.822,21.9-2.664,33.161a99.307,99.307,0,0,0,4.854,9.957c.213.422.424.847.625,1.271a34.655,34.655,0,0,1,3.319-5.182c.352.662.707,1.34,1.052,2.029,10.374,20.573,11.3,44,2.476,62.669-.958,2.025-2.008,3.964-3.029,5.837a67.548,67.548,0,0,0-4.055,8.323,28.62,28.62,0,0,0-.46,5.381,43.662,43.662,0,0,1-.65,7.4c-2.077-1.711-3.432-4.582-4.083-10.178A30.467,30.467,0,0,1,604.087,1356.278Z"/><path class="a" d="M601.162,1372.668c-2.066,1.17-8.948-.774-11.406-1.039-2.027-.222-3.9-.372-5.629-.53a31.384,31.384,0,0,1-8.876-1.684c-3.767-1.515-6.7-4.528-9.39-11.155-3-7.4-3.15-15.692.047-22.2a20.36,20.36,0,0,1,1.787-2.964.746.746,0,0,1,.055-.071c1.277-1.746,2.81-3.342,3.544-5.409.876-2.468.507-5.332-.013-8.079a84.008,84.008,0,0,0-3.532-12.886,89.24,89.24,0,0,0-5.4-12.092c-5.3-9.86-12.764-19.823-12.672-30.208,0-.222.007-.449.015-.673a28.767,28.767,0,0,1,2.4-10.253c4.916-11.63,15.1-19.706,8.924-35.656-3.094-7.989-3-16.476-1.194-24.171s5.234-14.726,8.713-21.656a2.938,2.938,0,0,1,1.154-1.437,3.783,3.783,0,0,1,2.547.069c12.825,3.285,22.059,12.207,30.056,22.768,11.458,15.132,9.419,32.144,4.594,47.19-3.361,10.492-6.822,21.9-2.664,33.161a99.307,99.307,0,0,0,4.854,9.957c.213.422.424.847.625,1.271,8.948,18.617,9.6,39.9,1.671,56.672-2.314,4.893-5.31,9.415-7.231,14.506-.023.058-.043.118-.063.178C602.7,1360.389,604.33,1370.869,601.162,1372.668Z"/><path class="b" d="M579.66,1370.522l4.078.446c-3.093-6.169-5.473-15.081-.034-23.338,3.2-4.861,5.341-11.325,6.367-19.207,1.452-11.121-.11-23.383-4.524-35.447-3.452-9.467-6.242-23.744.128-37.949,10.89-24.3-6.979-59.925-7.655-61.751.289,1.191,14.328,37.093,4.174,59.773-6.867,15.319-3.885,30.657-.168,40.829,4.17,11.434,5.656,23.031,4.291,33.532-.957,7.36-2.925,13.341-5.844,17.777C574.673,1354,576.551,1363.493,579.66,1370.522Z"/><path class="c" d="M584.127,1371.1a31.384,31.384,0,0,1-8.876-1.684c-3.767-1.515-6.7-4.528-9.39-11.155-3-7.4-3.15-15.692.047-22.2a20.36,20.36,0,0,1,1.787-2.964.746.746,0,0,1,.055-.071c1.277-1.746,2.81-3.342,3.544-5.409.876-2.468.507-5.332-.013-8.079a84.008,84.008,0,0,0-3.532-12.886,89.24,89.24,0,0,0-5.4-12.092c-5.3-9.86-12.764-19.823-12.672-30.208,0-.222.007-.449.015-.673a28.767,28.767,0,0,1,2.4-10.253c0,.135,0,.268,0,.4-.107,6.384,3.19,9.987,9.03,15.8,4.255,4.244,9.082,9.051,11.91,15.916,3.278,7.95,1.728,15.572.363,22.3-.34,1.654-.653,3.216-.9,4.759a52.592,52.592,0,0,0,.22,17.6,10.045,10.045,0,0,0,1.1,3.485,7.6,7.6,0,0,0,1.066,1.047c.3.254.6.5.9.746.378.308.759.618,1.131.934l.13.11a30.208,30.208,0,0,1,2.812,2.754,30.736,30.736,0,0,1,7.859,20.981C587.539,1365.569,586.173,1368.913,584.127,1371.1Z"/><path class="a" d="M575.251,1369.415c-2.065.545-4.572.863-7.472,1.429-1.778.349-6.432,2.219-8.318,1.459-2.936-1.19-4.641-9.418-6.887-12.331-2.875-3.733-6.4-6.97-9.514-10.525-10.918-12.477-16.376-29.039-14.462-43.878a60.047,60.047,0,0,0,.88-7.8c-.007-8.745-5.811-17.156-11.283-24.875-7.848-11.079-14.142-23.8-9.723-35.9,3.085-8.444,7.563-15.722,16.326-18.958a2.751,2.751,0,0,1,1.9-.2,3.487,3.487,0,0,1,1.274,1.015c4.565,5.03,9.118,10.135,12.633,15.837s5.955,12.1,5.854,18.317a19.933,19.933,0,0,0,3.223,11.349c4.925,7.8,14.167,12.943,18.163,22.643,2.687,6.523,1.223,13.137-.1,19.657-.3,1.473-.59,2.938-.824,4.4a58.168,58.168,0,0,0,.24,19.384,23.988,23.988,0,0,0,.585,2.59,10.731,10.731,0,0,0,1.667,3.509,26.538,26.538,0,0,0,4.247,3.923,22.846,22.846,0,0,1,2.176,2.132,24.436,24.436,0,0,1,6.241,16.755C581.848,1366.28,579.448,1368.314,575.251,1369.415Z"/><path class="b" d="M575.094,1369.415l-2.954.577a19.757,19.757,0,0,0-6.5-17.62,49.4,49.4,0,0,1-10.176-14.124,60.741,60.741,0,0,1-6.493-27.026,44.16,44.16,0,0,0-10.706-28.641c-15.013-17.7-11.483-45.648-11.483-47.066.114.915-.447,28.845,13.558,45.368a47.459,47.459,0,0,1,11.54,30.812,57.664,57.664,0,0,0,6.135,25.567,45.725,45.725,0,0,0,9.381,13.075A22.954,22.954,0,0,1,575.094,1369.415Z"/><path class="d" d="M644.09,1370.067l-1.64,7.62-17.64,81.74c-25.076,6.246-49.083,6.954-71.61,0l-17.64-81.74-1.64-7.62Z"/><path class="e" d="M653.17,1358.347v11.72h-9.08l-1.64,7.62H535.56l-1.64-7.62h-9.08v-11.72Z"/><rect class="d" width="128.336" height="19.338" transform="translate(524.837 1350.725)"/></g></svg>