<svg xmlns="http://www.w3.org/2000/svg" width="282.363" height="666.472" viewBox="0 0 282.363 666.472"><defs><style>.a{fill:#e2b18d;}.b{fill:rgba(0,237,255,0.87);}.c{fill:#f4c7a2;}.d{fill:#1a1a1a;}.e,.f{fill:#1e1e1e;}.e{opacity:0.6;}.e,.i,.j{mix-blend-mode:multiply;isolation:isolate;}.g{fill:#00edff;}.h{fill:#03d3ec;}.i{fill:#4d4d4d;opacity:0.5;}.j{opacity:0.9;}.k{fill:#333;}</style></defs><g transform="translate(-2018.829 -715)"><g transform="translate(2018.829 767.169)"><path class="a" d="M2064.33,793.839s-17.476-27.953-17.677-18.063c-.042,2.089.012,3.818.125,5.247a2.878,2.878,0,0,1-4.391,2.692l-6.027-3.785c-6.2-3.895-14.76-1.3-16.944,5.425-1.542,4.747-.43,10.833,8.1,17.64,20.065,16.017,27.185,12.036,27.185,12.036Z" transform="translate(-2018.829 -773.658)"/><path class="b" d="M2235.92,849.878l-93.51-20.1-75.059-36.872-13.373,26.124,77.006,47.221,86.473,29.379s46.087,10.691,37.384-27.883A23.853,23.853,0,0,0,2235.92,849.878Z" transform="translate(-2022.718 -775.788)"/></g><g transform="translate(2106.47 715)"><path class="c" d="M2232.731,1423.384l2.961,11.7h27.773l-1.753-11.7Z" transform="translate(-2130.135 -793.373)"/><path class="a" d="M2296.114,1422.524l2.961,12.763h27.773l-1.753-12.763Z" transform="translate(-2137.148 -793.278)"/><path class="d" d="M2198.787,1050.735l41.571,173.871,42.98,157.136h32l-28.08-160.58-7.967-174.155Z" transform="translate(-2126.38 -751.732)"/><path class="d" d="M2270.629,1046.829l-6.435,32.918-2.861,17.613-2.138,13.178-17.709,109.083,17.815,162.1h-33.354l-37.63-166.953-3.552-101.861-.308-8.881v-.01l-.394-11.3v-41.48Z" transform="translate(-2124.751 -751.713)"/><path class="e" d="M2280.58,1102.869v13.189l-21.336.681-74.43,2.372-.308-8.881v-.01l.234-3.914,76.643-2.744Z" transform="translate(-2124.8 -757.913)"/><path class="f" d="M2292.114,1436.539l-26.491,7.585a11.813,11.813,0,0,0-7.931,6.484h0c-2.294,5.062,1.634,10.693,7.461,10.693h57.806c.838,0,8.382-18.006,2.127-24.762Z" transform="translate(-2132.823 -794.829)"/><path class="g" d="M2286.438,1082.214h-109.55c1.05-9.177,6.283-170.3,6.381-213.783.011-5.263,24.463-22.335,24.463-22.335l50.092.158h0a24.847,24.847,0,0,1,16.466,19.41c3.462,20.645-2.853,65.973.448,108.063C2277.445,1008.235,2282.261,1054.712,2286.438,1082.214Z" transform="translate(-2123.957 -729.504)"/><path class="c" d="M2257.417,838.729h-42.7l.957-10.551.383-4.244.819-9.041h38.385Z" transform="translate(-2128.142 -726.052)"/><rect class="h" width="49.171" height="7.728" transform="translate(84.378 109.025)"/><path class="c" d="M2212.239,758.877s-13.771,31.626-11.2,49.487,37.285,4.763,37.285,4.763l7.714-23.815-7.714-16.671Z" transform="translate(-2126.594 -719.855)"/><path class="i" d="M2247.709,797.658l-4.9,15.135-6.307,2.223s-9.934,11.53-20.708,11.061l.382-4.243.819-9.04h24.431l5.478-16.89Z" transform="translate(-2128.261 -723.951)"/><path class="c" d="M2217.04,814.894h24.431l-1.436,4.435s-13.1,4.945-23.814,4.605Z" transform="translate(-2128.309 -726.052)"/><path class="c" d="M2246.042,789.307l-.808,2.5-6.914-14.912-26.079-13.763s-10.615,24.377-11.466,42.427c-.957-18.167,11.466-46.682,11.466-46.682l26.079,13.763Z" transform="translate(-2126.594 -719.855)"/><path class="d" d="M2271.847,786.7c4.09-8.18-.782-15.38-3.667-23.776-1.953-5.687-3.958-11.472-7.534-16.306a29.7,29.7,0,0,0-14.421-10.446c-3.644-1.208-7.555-1.717-10.927-3.549-5.663-3.077-4.072-8.289-7.327-12.439-3.365-4.291-10.9-6.184-15.936-4.661-6.629,2-10.579,11.2-6.033,16.423a11.642,11.642,0,0,0-5.731,11.807c2.038,12.208,19.893,10.563,23.239,20.672,2.256,6.813-4.779,13.392-7.936,18.5-1.754,2.837,1.7,6.179,4.32,4.112l.054-.044c1.042-.845,4.628-4.46,5.494-5.485,2.884-3.416,4.387-2.7,8.622-4.131,2.346-.792,5-1.53,7.1.513a5.424,5.424,0,0,1,.9,6.258c-2.142,4.364-6.854,5.476-11.157,6.591a3.582,3.582,0,0,0-2.4,1.395,3.777,3.777,0,0,0-.321,1.7c-.358,8.711,2.318,13.3-.874,21.809,5.661.812,1.967,2.046,7.675,1.717,7.695-.442,14.305,1.474,19.979-4.908,5.732-6.448,9.968-14.667,14.541-21.946C2270.3,789.246,2271.1,787.983,2271.847,786.7Z" transform="translate(-2126.529 -715)"/><path class="j" d="M2253.76,1264.874l-8.231-45.27,18.645-96.8,5.575-2.23-13.931,89.772Z" transform="translate(-2131.552 -759.871)"/><path class="e" d="M2225.945,896.323l-13.827,97.851-34.031,71.738,0-58.975,20.208-49.989Z" transform="translate(-2124.089 -735.061)"/><g transform="translate(0 126.191)"><path class="c" d="M2135.72,1076.464s-25.972,20.3-16.115,19.469c2.082-.176,3.8-.411,5.2-.672a2.878,2.878,0,0,1,3.137,4.086l-3.135,6.39c-3.224,6.573.252,14.814,7.168,16.283,4.883,1.037,10.818-.7,16.7-9.9,13.831-21.63,9.127-28.3,9.127-28.3Z" transform="translate(-2117.373 -881.183)"/><path class="g" d="M2173.71,879.751l-10.208,95.1-28.822,78.5,27.381,10.568L2200.97,982.4l20.175-89.071s5.813-46.952-31.64-34.264A23.854,23.854,0,0,0,2173.71,879.751Z" transform="translate(-2119.288 -856.89)"/></g><path class="k" d="M2227.535,1436.539l-26.491,7.585a11.812,11.812,0,0,0-7.931,6.484h0c-2.3,5.062,1.634,10.693,7.461,10.693h57.806c.838,0,8.382-18.006,2.127-24.762Z" transform="translate(-2125.678 -794.829)"/></g></g></svg>