<svg xmlns="http://www.w3.org/2000/svg" xmlns:xlink="http://www.w3.org/1999/xlink" width="633" height="513.641" viewBox="0 0 633 513.641"><defs><style>.a{fill:#dce0e5;opacity:0.49;}.a,.g,.q,.s,.u,.w,.y{mix-blend-mode:multiply;}.a,.e,.g,.j,.n,.q,.s,.u,.w,.y{isolation:isolate;}.b{fill:#030e42;}.c{fill:#141032;}.d{fill:#1c2a6b;}.e{fill:#33226c;opacity:0.51;}.e,.j,.n{mix-blend-mode:color-dodge;}.f,.g{fill:#31236c;}.g{opacity:0.3;}.h,.s{fill:#fbb1a6;}.i,.j{fill:#f1f2f2;}.j{opacity:0.46;}.k{fill:#d1d3d4;}.l{fill:#0f1948;}.m{fill:url(#a);}.n,.y{opacity:0.1;}.n{fill:url(#b);}.o{fill:url(#c);}.p{fill:url(#d);}.q{opacity:0.44;fill:url(#e);}.r{fill:url(#f);}.s{opacity:0.26;}.t{fill:url(#i);}.u,.w{opacity:0.33;}.u{fill:url(#j);}.v{fill:#3565b9;}.w{fill:url(#k);}.x{fill:#121e57;}.z{fill:url(#m);}.aa{fill:url(#n);}</style><linearGradient id="a" x1="0.441" y1="-0.496" x2="0.555" y2="1.434" gradientUnits="objectBoundingBox"><stop offset="0" stop-color="#6ad0fb"/><stop offset="0.228" stop-color="#69cdf9"/><stop offset="0.387" stop-color="#69c3f5"/><stop offset="0.527" stop-color="#68b4ed"/><stop offset="0.654" stop-color="#679ee3"/><stop offset="0.773" stop-color="#6682d6"/><stop offset="0.885" stop-color="#645fc5"/><stop offset="0.992" stop-color="#6337b2"/><stop offset="0.995" stop-color="#6336b2"/></linearGradient><linearGradient id="b" x1="0" y1="0.5" x2="1" y2="0.5" xlink:href="#a"/><linearGradient id="c" x1="-0.115" y1="0.774" x2="1.036" y2="0.301" gradientUnits="objectBoundingBox"><stop offset="0" stop-color="#43295d"/><stop offset="1" stop-color="#1c2a6b"/></linearGradient><linearGradient id="d" x1="0.271" y1="-10.988" x2="0.775" y2="14.304" gradientUnits="objectBoundingBox"><stop offset="0" stop-color="#3565b9"/><stop offset="0.995" stop-color="#1c2a6b"/><stop offset="1" stop-color="#bb68fa"/></linearGradient><linearGradient id="e" x1="0.279" y1="-16.567" x2="0.766" y2="21.007" gradientUnits="objectBoundingBox"><stop offset="0" stop-color="#162a6f"/><stop offset="0.995" stop-color="#141032"/><stop offset="1" stop-color="#bb68fa"/></linearGradient><linearGradient id="f" x1="0.281" y1="0.283" x2="1.172" y2="1.424" gradientUnits="objectBoundingBox"><stop offset="0" stop-color="#1c2a6b"/><stop offset="1" stop-color="#141032"/></linearGradient><linearGradient id="i" x1="0.057" y1="0.317" x2="1.959" y2="0.935" gradientUnits="objectBoundingBox"><stop offset="0" stop-color="#3565b9"/><stop offset="1" stop-color="#724ce4"/></linearGradient><linearGradient id="j" y1="0.5" x2="1" y2="0.5" gradientUnits="objectBoundingBox"><stop offset="0" stop-color="#9a72f6"/><stop offset="1" stop-color="#724ce4"/></linearGradient><linearGradient id="k" x1="-0.207" y1="0.134" x2="1.899" y2="1.572" xlink:href="#j"/><linearGradient id="m" x1="0.178" y1="-0.901" x2="0.488" y2="0.704" gradientUnits="objectBoundingBox"><stop offset="0" stop-color="#43295d"/><stop offset="1" stop-color="#774b88"/></linearGradient><linearGradient id="n" x1="0.341" y1="-2.251" x2="0.558" y2="1.047" xlink:href="#m"/></defs><g transform="translate(-975 -299.359)"><ellipse class="a" cx="316.5" cy="53.5" rx="316.5" ry="53.5" transform="translate(975 706)"/><g transform="translate(1036.97 299.359)"><rect class="b" width="6.668" height="235.596" transform="translate(428.038 214.001)"/><rect class="b" width="6.668" height="235.596" transform="translate(102.613 214.001)"/><path class="c" d="M1238.083,1682.289s-9.077,23.93-3.3,27.025,59.619,0,59.619,0,4.745-9.352-9.7-12.824-21.042-12.137-21.042-12.137Z" transform="translate(-971.742 -1261.092)"/><path class="c" d="M963.895,1682.289s-9.077,23.93-3.3,27.025,59.619,0,59.619,0,4.745-9.352-9.7-12.824-21.042-12.137-21.042-12.137Z" transform="translate(-791.297 -1261.092)"/><rect class="d" width="536.388" height="5.927" rx="2.963" transform="translate(0 213.185)"/><path class="e" d="M1003.656,1073.887H470.99a1.861,1.861,0,0,0-1.861,1.861v1.648a1.861,1.861,0,0,1,1.861-1.861h532.666a1.861,1.861,0,0,1,1.861,1.861v-1.648A1.861,1.861,0,0,0,1003.656,1073.887Z" transform="translate(-469.129 -860.701)"/><rect class="b" width="6.668" height="235.596" transform="translate(512.871 214.001)"/><path class="d" d="M1379.74,866.079s16.4,27.471,16.4,45.046c0,9.971-11.607,20.985-11.607,20.985l-65.172-.094s38.058-10.66,28.475-34.039-15.51-31.9-15.51-31.9Z" transform="translate(-1028.667 -723.942)"/><path class="f" d="M1104.487,1202.6s71.61,4.965,97.538,27.685c8.147,12.348,12.592,13.336-33.836,138.789,0,0-18.275,8.89-30.622-2.47,14.323-50.873,21.238-101.252,21.238-101.252s-54.331,5.927-67.172-.988S1081.78,1215.911,1104.487,1202.6Z" transform="translate(-873.818 -945.408)"/><path class="f" d="M839.308,1202.6s71.61,4.965,97.538,27.685c8.147,12.348,12.592,13.336-33.836,138.789,0,0-18.275,8.89-30.623-2.47,14.323-50.873,21.238-101.252,21.238-101.252s-38.4,1.83-51.388-4.8C819.017,1248.7,816.6,1215.911,839.308,1202.6Z" transform="translate(-702.336 -945.408)"/><path class="g" d="M839.308,1202.6s71.61,4.965,97.538,27.685c8.147,12.348,12.592,13.336-33.836,138.789,0,0-18.275,8.89-30.623-2.47,14.323-50.873,21.238-101.252,21.238-101.252s-38.4,1.83-51.388-4.8C819.017,1248.7,816.6,1215.911,839.308,1202.6Z" transform="translate(-702.336 -945.408)"/><rect class="b" width="6.668" height="235.596" transform="translate(17.781 214.001)"/><path class="h" d="M1401.91,988.941s13.655-5.04,20.484-.964c7.656,4.569,11.113,10.751,12.965,20.744,1.482,8-9.261-5.186-11.484-6.174s-6.909,8.644-13.333,6.174-9.634-18.422-9.634-18.422" transform="translate(-1082.336 -803.116)"/><path class="i" d="M1824.194,880.646H1768.57l-27.989,65.937h55.625Z" transform="translate(-1305.875 -733.529)"/><path class="j" d="M1812.967,880.646h-34.021l-22.574,53.182a37.942,37.942,0,0,0,17.6,4.332c22.536,0,40.806-19.876,40.806-44.395A48.007,48.007,0,0,0,1812.967,880.646Z" transform="translate(-1316.267 -733.529)"/><path class="k" d="M1931.264,880.646l9.178,65.937h-37.167Z" transform="translate(-1412.944 -733.529)"/><g transform="translate(451.476 170.825)"><path class="k" d="M1855.193,952.128h-39.328a1.07,1.07,0,0,1-.985-1.488h0a1.071,1.071,0,0,1,.985-.652h39.328a1.07,1.07,0,0,1,.985,1.488h0A1.07,1.07,0,0,1,1855.193,952.128Z" transform="translate(-1806.19 -949.988)"/><path class="k" d="M1846.352,972.954h-39.328a1.07,1.07,0,0,1-.985-1.488h0a1.07,1.07,0,0,1,.985-.652h39.328a1.07,1.07,0,0,1,.985,1.488h0A1.07,1.07,0,0,1,1846.352,972.954Z" transform="translate(-1800.372 -963.694)"/><path class="k" d="M1837.512,993.781h-39.328a1.07,1.07,0,0,1-.985-1.488h0a1.069,1.069,0,0,1,.985-.652h39.328a1.07,1.07,0,0,1,.985,1.488h0A1.07,1.07,0,0,1,1837.512,993.781Z" transform="translate(-1794.555 -977.4)"/><path class="k" d="M1815.294,1011.409H1790.7a1.07,1.07,0,0,1-.985-1.488h0a1.07,1.07,0,0,1,.985-.652h24.593a1.07,1.07,0,0,1,.985,1.488h0A1.071,1.071,0,0,1,1815.294,1011.409Z" transform="translate(-1789.63 -989.001)"/><path class="k" d="M1840.835,1052.77h-24.593a1.07,1.07,0,0,1-.985-1.489h0a1.07,1.07,0,0,1,.985-.652h24.593a1.07,1.07,0,0,1,.985,1.488h0A1.07,1.07,0,0,1,1840.835,1052.77Z" transform="translate(-1806.439 -1016.221)"/></g><g transform="translate(464.821 154.594)"><g transform="translate(0)"><path class="k" d="M1835.321,902.515l-4.309,10.151h-2.349l4.309-10.151Z" transform="translate(-1828.663 -902.515)"/><path class="k" d="M1849.147,902.515l-.812,1.914h4.261l-7.137,8.237h2.552l7.433-8.629.646-1.523Z" transform="translate(-1839.717 -902.515)"/></g></g><path class="l" d="M1019.934,596.328,1040.45,450.35h256.195l-20.516,145.978Z" transform="translate(-831.615 -450.35)"/><path class="m" d="M1281.261,599.881H1032.749l19.436-138.3H1300.7Z" transform="translate(-840.049 -457.744)"/><path class="h" d="M1099.721,597.088s1.3,7.387-1.689,17.505a22.806,22.806,0,0,0,.952,15.795l.049.109a3.089,3.089,0,0,1-1.235,3.94,10.679,10.679,0,0,1-1.158.589,4.278,4.278,0,0,0-2.486,2.978l-1.8,8.08-13.665-2.634-3.787-30.293,11.36-21.074Z" transform="translate(-867.792 -543.625)"/><path class="h" d="M993.881,667.521s-4.553,5.427-5.294,16.293l-32.023-1.976,4.57-14.735,20.662-39.6,12.085-1.235S997.323,642.337,993.881,667.521Z" transform="translate(-789.912 -566.125)"/><path class="n" d="M1054.285,549.577c23.016,20.781,60.064,34.264,101.849,34.264,69.819,0,126.419-37.644,126.419-84.079,0-13.745-4.96-26.72-13.753-38.176H1066.651Z" transform="translate(-854.221 -457.744)"/><path class="o" d="M989.663,606.127a5.619,5.619,0,0,1-6.909,4.535c-6.107-1.546-14.575-5.163-13.617-13.252,1.482-12.512,3.293-33.257-4.774-32.763s-6.75,10.208-3.128,17.781-11.689,20.744-24.367,18.933c0,0,.906-7.985-5.6-16.957-8.858-12.221-11.031-19.592-11.525-26.342s2.305-15.641,11.2-18.439c2.77-8.147,17.313-21.132,58.95-6.874a23.018,23.018,0,0,0,3.906,1,21.24,21.24,0,0,0,11.231-1.041s1.831,10.781-3.541,17.953a10.669,10.669,0,0,1-9.586,4.2c-8.547-.847-12.758,3.495-14.368,9.787-1.811,7.079-4.445,30.622,2.14,34.08s10.537,4.116,10.537,4.116Z" transform="translate(-765.645 -500.384)"/><rect class="p" width="108.335" height="5.018" transform="translate(278.099 208.168)"/><rect class="q" width="108.335" height="3.263" transform="translate(278.099 209.923)"/><path class="g" d="M1257.629,1487.871c11.432-37.824,24.7-109.723,24.7-109.723l-17.651,2.733a867.162,867.162,0,0,1-17.635,87.89c-.764,4.761-1.5,9.776-2.105,14.617A22.417,22.417,0,0,0,1257.629,1487.871Z" transform="translate(-979.69 -1060.936)"/><path class="r" d="M1144.127,1385.081l-6.392,2.117a3.636,3.636,0,0,0-2.254,4.748l52.487,137.478a3.635,3.635,0,0,0,3.845,2.311h0a3.636,3.636,0,0,0,3-4.748l-46.094-139.6A3.635,3.635,0,0,0,1144.127,1385.081Z" transform="translate(-907.499 -1065.377)"/><path class="r" d="M942.106,1378.218l6.6,1.312a3.636,3.636,0,0,1,2.822,4.434l-35.134,142.9a3.635,3.635,0,0,1-3.53,2.768h0a3.636,3.636,0,0,1-3.567-4.341l28.529-144.214A3.636,3.636,0,0,1,942.106,1378.218Z" transform="translate(-758.761 -1060.936)"/><path class="r" d="M788.195,1382.881l7.274,1.995a4.073,4.073,0,0,1,2.8,5.18l-50.7,156.845a4.073,4.073,0,0,1-4.166,2.81h0a4.072,4.072,0,0,1-3.637-5.136l43.423-158.84A4.073,4.073,0,0,1,788.195,1382.881Z" transform="translate(-647.14 -1063.955)"/><path class="s" d="M1027.669,752.234l7.713.476c.741-10.866,5.293-16.293,5.293-16.293q.383-2.8.656-5.454A27.006,27.006,0,0,0,1027.669,752.234Z" transform="translate(-836.706 -635.022)"/><path class="t" d="M804.936,792.468s-21.184.247-40.446,38.772-18.513,42.148-18.513,42.148-10.133,39.841,49.136,21.566Z" transform="translate(-650.89 -675.499)"/><path class="u" d="M833.724,875.389c-2.608-9.476-4.748-15.826-4.748-15.826s-51.9,54.853-30.768,84.246c7.119.473,16.656-.767,29.407-4.7Z" transform="translate(-682.368 -719.654)"/><path class="v" d="M825.935,872.065a188.887,188.887,0,0,1,6.421-47.416c6.915-26.177,8.9-42.255,54.831-39.155S929.8,791.557,936.147,796c5.13,3.59,27.864,41.719,36.42,56.254a10.642,10.642,0,0,0,9.752,5.228c11.8-.641,35.868-1.9,39.206-1.718,4.445.247,12.1,11.854,10.372,21.979-37.537,13.335-56.145,20.5-70.382,16.3-16.612-4.9-28.689-39.237-32.477-40.5-1.023,8.573-4.824,49.261,4.571,69.395,10.372,22.226-61.754,59.27-107.68,34.08C826.429,903.181,825.935,872.065,825.935,872.065Z" transform="translate(-703.939 -670.659)"/><path class="w" d="M1153.514,951.454c-4.547,2.84-52.6,31.921-72.7,5.353-21.114-27.9-29.891-56.556-48.124-36.2s-19.858,76.161-19.423,78.423c.293,1.522,8.983,25.913,14.639,41.712,20.176-8.994,33.423-22.658,28.563-33.07-9.4-20.134-5.594-60.822-4.571-69.395,3.788,1.263,15.865,35.6,32.477,40.5,14.237,4.2,32.845-2.964,70.382-16.3A22.028,22.028,0,0,0,1153.514,951.454Z" transform="translate(-827.188 -755.303)"/><path class="d" d="M779.252,1092.728s-6.915-70.63,52.849-70.63c65.254,0,55.812,66.678,73.168,91.868,7.271,15.7,19.657,28.14,31.526,34.32s-72.88,33.884-118.524,7.909C780.734,1134.834,779.252,1092.728,779.252,1092.728Z" transform="translate(-673.061 -826.619)"/><path class="x" d="M961.022,1148.286c-11.869-6.18-24.255-18.618-31.526-34.32-17.357-25.189-7.914-91.868-73.169-91.868-20.422,0-33.057,8.248-40.843,19.107,6.975-3.975,15.78-6.418,26.891-6.418,65.254,0,55.812,66.678,73.168,91.867,6.681,14.427,17.681,26.1,28.629,32.689C957.633,1155.16,965.138,1150.429,961.022,1148.286Z" transform="translate(-697.066 -826.619)"/><path class="r" d="M1050.783,1381.612h0a7.757,7.757,0,0,0-6.021,9.461L1083.2,1547.4a4.073,4.073,0,0,0,3.955,3.1h0a4.072,4.072,0,0,0,4-4.863l-31.241-157.92A7.758,7.758,0,0,0,1050.783,1381.612Z" transform="translate(-847.805 -1063.117)"/><path class="v" d="M1911.366,913.619h-8.091l3.434-8.091h8.091Z" transform="translate(-1412.944 -749.904)"/><g class="y" transform="translate(164.848 68.778)"><path class="z" d="M1084.77,688.033l.473-2.836s-3.951-.659-10.537-4.116c-5.532-2.9-4.558-19.979-3.032-29.565a16.147,16.147,0,0,0-6.718,3.009c1.127,7.07.11,17.663-.787,25.239-.931,7.866,7.051,11.5,13.108,13.119A6.033,6.033,0,0,0,1084.77,688.033Z" transform="translate(-1025.525 -651.516)"/><path class="aa" d="M951.284,687.706q.38.536.777,1.085c6.5,8.973,5.6,16.957,5.6,16.957,12.677,1.811,27.988-11.36,24.367-18.933-.285-.594-.553-1.2-.805-1.819C971.2,692.16,960.406,691.2,951.284,687.706Z" transform="translate(-951.284 -673.55)"/></g><ellipse class="i" cx="13.172" cy="11.446" rx="13.172" ry="11.446" transform="translate(309.542 49.25) rotate(-42.99)"/><path class="i" d="M1386.917,668.619h-46.171a1.631,1.631,0,0,1-1.616-1.859l.214-1.523a1.632,1.632,0,0,1,1.616-1.4h46.171a1.632,1.632,0,0,1,1.616,1.859l-.214,1.523A1.632,1.632,0,0,1,1386.917,668.619Z" transform="translate(-1041.669 -590.844)"/><path class="i" d="M1382.321,701.557H1336.15a1.632,1.632,0,0,1-1.616-1.859l.214-1.523a1.632,1.632,0,0,1,1.616-1.4h46.171a1.632,1.632,0,0,1,1.616,1.859l-.214,1.523A1.632,1.632,0,0,1,1382.321,701.557Z" transform="translate(-1038.643 -612.52)"/><path class="d" d="M1389.72,753.554h-12.238a1.632,1.632,0,0,1-1.616-1.859l.214-1.523a1.632,1.632,0,0,1,1.616-1.4h12.238a1.632,1.632,0,0,1,1.616,1.859l-.214,1.523A1.632,1.632,0,0,1,1389.72,753.554Z" transform="translate(-1065.845 -646.739)"/></g></g></svg>