<svg xmlns="http://www.w3.org/2000/svg" width="446.523" height="409.6" viewBox="0 0 446.523 409.6">
  <g id="Group_3801" data-name="Group 3801" transform="translate(-300.714 -118.75)">
    <g id="Group_3767" data-name="Group 3767" transform="translate(542.888 129.826)">
      <path id="Path_7011" data-name="Path 7011" d="M453.181,125.723V278.161H657.53V125.723ZM647.86,268.256H462.853V135.628H647.86Z" transform="translate(-453.181 -125.723)" fill="#fff"/>
      <rect id="Rectangle_270" data-name="Rectangle 270" width="4.763" height="141.855" transform="translate(99.794 5.292)" fill="#fff"/>
      <rect id="Rectangle_271" data-name="Rectangle 271" width="197.55" height="4.763" transform="translate(3.4 73.838)" fill="#fff"/>
    </g>
    <ellipse id="Ellipse_576" data-name="Ellipse 576" cx="183.18" cy="12.285" rx="183.18" ry="12.285" transform="translate(363.2 503.78)" fill="#8494ab" opacity="0.18"/>
    <path id="Path_7012" data-name="Path 7012" d="M372.79,353.841c0,3.863-16.135,6.994-36.037,6.994s-36.039-3.131-36.039-6.994,16.135-6.992,36.039-6.992S372.79,349.98,372.79,353.841Z" transform="translate(0 134.207)" fill="#8494ab" opacity="0.18"/>
    <g id="Group_3771" data-name="Group 3771" transform="translate(509.566 118.75)">
      <g id="Group_3769" data-name="Group 3769">
        <g id="Group_3768" data-name="Group 3768">
          <path id="Path_7013" data-name="Path 7013" d="M475.738,149.6H456.32l-15.631,17.729L448.38,149.6h-14.1a2.072,2.072,0,0,1-2.073-2.073V120.823a2.072,2.072,0,0,1,2.073-2.073h41.463a2.072,2.072,0,0,1,2.073,2.073V147.53A2.072,2.072,0,0,1,475.738,149.6Z" transform="translate(-432.202 -118.75)" fill="#b3b2da"/>
        </g>
      </g>
      <g id="Group_3770" data-name="Group 3770" transform="translate(12.373 18.389)">
        <path id="Path_7014" data-name="Path 7014" d="M445.029,135.054h-5.037v-4.727h5.037Z" transform="translate(-439.992 -130.327)" fill="#fff"/>
        <path id="Path_7015" data-name="Path 7015" d="M450.01,135.054h-5.037v-4.727h5.037Z" transform="translate(-437.061 -130.327)" fill="#fff"/>
        <path id="Path_7016" data-name="Path 7016" d="M454.992,135.054h-5.037v-4.727h5.037Z" transform="translate(-434.13 -130.327)" fill="#fff"/>
      </g>
    </g>
    <g id="Group_3783" data-name="Group 3783" transform="translate(387.344 167.331)">
      <g id="Group_3780" data-name="Group 3780" transform="translate(0 11.499)">
        <g id="Group_3774" data-name="Group 3774" transform="translate(43.767)">
          <rect id="Rectangle_272" data-name="Rectangle 272" width="230.277" height="143.172" rx="5.593" fill="#111b34"/>
          <rect id="Rectangle_273" data-name="Rectangle 273" width="203.553" height="112.526" transform="translate(13.137 9.755)" fill="#f9f9f9"/>
          <g id="Group_3772" data-name="Group 3772" transform="translate(126.152 27.598)">
            <rect id="Rectangle_274" data-name="Rectangle 274" width="65.821" height="83.367" fill="#cecde9"/>
            <rect id="Rectangle_275" data-name="Rectangle 275" width="53.42" height="8.308" transform="translate(6.2 7.853)" fill="#1c2a6b"/>
            <rect id="Rectangle_276" data-name="Rectangle 276" width="53.42" height="8.308" transform="translate(6.2 23.248)" fill="#3565b9"/>
            <rect id="Rectangle_277" data-name="Rectangle 277" width="53.42" height="8.308" transform="translate(6.2 38.643)" fill="#fff"/>
            <rect id="Rectangle_278" data-name="Rectangle 278" width="53.42" height="8.308" transform="translate(6.2 54.038)" fill="#fff"/>
            <rect id="Rectangle_279" data-name="Rectangle 279" width="53.42" height="8.308" transform="translate(6.2 69.433)" fill="#fff"/>
          </g>
          <path id="Path_7026" data-name="Path 7026" d="M506.874,250.393H482.95s56.517-44.195,57.628-45.442v12.675C534.328,224.115,506.874,250.393,506.874,250.393Z" transform="translate(-323.888 -128.112)" fill="#f9f9f9" opacity="0.55" style="mix-blend-mode: screen;isolation: isolate"/>
          <path id="Path_7027" data-name="Path 7027" d="M574.469,170.007v17.887c-4.254,5.207-100.05,77.5-105.9,83.112H425.349C436.906,261.844,570.051,173.317,574.469,170.007Z" transform="translate(-357.779 -148.672)" fill="#f9f9f9" opacity="0.55" style="mix-blend-mode: screen;isolation: isolate"/>
          <path id="Path_7028" data-name="Path 7028" d="M505.9,162.716h22.711c-.165.14-.335.272-.5.413C518.67,171.236,425.2,263.945,414.721,275.243l-21.7.052C407.013,260.781,479.746,188.011,505.9,162.716Z" transform="translate(-376.801 -152.962)" fill="#f9f9f9" opacity="0.55" style="mix-blend-mode: screen;isolation: isolate"/>
          <path id="Path_7029" data-name="Path 7029" d="M391.079,218.423V196.488c11.354-11.281,23.355-23.15,34.155-33.772h22.209C431.138,178.662,409.3,200.262,391.079,218.423Z" transform="translate(-377.942 -152.962)" fill="#f9f9f9" opacity="0.55" style="mix-blend-mode: screen;isolation: isolate"/>
          <g id="Group_3802" data-name="Group 3802" transform="translate(36.59 27.598)">
            <rect id="Rectangle_274-2" data-name="Rectangle 274" width="65.821" height="83.367" fill="#cecde9"/>
            <rect id="Rectangle_275-2" data-name="Rectangle 275" width="53.42" height="8.308" transform="translate(6.2 7.853)" fill="#3565b9"/>
            <rect id="Rectangle_276-2" data-name="Rectangle 276" width="53.42" height="8.308" transform="translate(6.2 23.248)" fill="#1c2a6b"/>
            <rect id="Rectangle_277-2" data-name="Rectangle 277" width="53.42" height="8.308" transform="translate(6.2 38.643)" fill="#fff"/>
            <rect id="Rectangle_278-2" data-name="Rectangle 278" width="53.42" height="8.308" transform="translate(6.2 54.038)" fill="#fff"/>
            <rect id="Rectangle_279-2" data-name="Rectangle 279" width="53.42" height="8.308" transform="translate(6.2 69.433)" fill="#fff"/>
          </g>
        </g>
        <path id="Path_7030" data-name="Path 7030" d="M444.138,248.118s-2.613-3.833-10.539-2.526-12.54,14.651-12.54,14.651h22.469S445.531,249.946,444.138,248.118Z" transform="translate(-316.536 -104.36)" fill="#ef8b67"/>
        <path id="Path_7031" data-name="Path 7031" d="M475.215,248.118s2.611-3.833,10.537-2.526,12.542,14.651,12.542,14.651H475.823S473.82,249.946,475.215,248.118Z" transform="translate(-284.963 -104.36)" fill="#ef8b67"/>
        <path id="Path_7032" data-name="Path 7032" d="M451.743,222.961s-7.837.173-13.585,4.528-28.219,40.13-29.264,43.024,4.69,5.3,12.1,5.3,10.895.664,13.681-2.4,19.3-16.883,23.652-26.812S455.819,222.443,451.743,222.961Z" transform="translate(-323.767 -117.524)" fill="#00edff"/>
        <path id="Path_7033" data-name="Path 7033" d="M478.621,222.961s7.839.173,13.587,4.528,28.219,40.13,29.264,43.024-4.69,5.3-12.1,5.3-10.893.664-13.681-2.4-19.3-16.883-23.652-26.812S474.545,222.443,478.621,222.961Z" transform="translate(-287.362 -117.524)" fill="#00edff"/>
        <path id="Path_7034" data-name="Path 7034" d="M465.641,209.645H452.456l-2.324,12.18h17.832Z" transform="translate(-299.43 -125.35)" fill="#ef8b67"/>
        <path id="Path_7035" data-name="Path 7035" d="M462.268,186.83c-.048,0-.084.01-.132.011s-.084-.011-.133-.011c-7.165,0-17.116,4.085-17.116,15.834s2.919,27.088,17.161,27.088c.032,0,.057-.006.089-.006s.057.006.087.006c14.241,0,17.161-15.337,17.161-27.088S469.433,186.83,462.268,186.83Z" transform="translate(-302.517 -138.774)" fill="#111b34"/>
        <g id="Group_3775" data-name="Group 3775" transform="translate(120.868 287.057)">
          <path id="Path_7036" data-name="Path 7036" d="M450.193,337.3l-10.8,6.62s3.833,6.619,2.322,8.593-9.986,11.613-10.336,16.373,2.324,7.664,3.717,7.2,26.824-18.581,26.245-21.716S450.193,337.3,450.193,337.3Z" transform="translate(-431.35 -337.299)"/>
          <path id="Path_7037" data-name="Path 7037" d="M471.678,337.3l10.8,6.62s-3.831,6.619-2.322,8.593,9.988,11.613,10.336,16.373-2.322,7.664-3.715,7.2-26.826-18.581-26.245-21.716S471.678,337.3,471.678,337.3Z" transform="translate(-414.186 -337.299)"/>
        </g>
        <g id="Group_3777" data-name="Group 3777" transform="translate(0 155.884)">
          <g id="Group_3776" data-name="Group 3776" transform="translate(17.48 0.002)">
            <rect id="Rectangle_280" data-name="Rectangle 280" width="9.565" height="181.349" fill="#141032"/>
            <rect id="Rectangle_281" data-name="Rectangle 281" width="9.566" height="181.349" transform="translate(272.834)" fill="#141032"/>
          </g>
          <rect id="Rectangle_282" data-name="Rectangle 282" width="317.81" height="4.808" fill="#141032"/>
        </g>
        <path id="Path_7038" data-name="Path 7038" d="M504.827,273.913c-6.867-3.947-42.5-3.947-49.368,0s-42.168,29.844-42.168,36.116,38.321,78.151,38.321,78.151l14.052-7.17s-23.393-60.182-20.552-62.795,35.03-4.587,35.03-4.587,32.188,1.974,35.03,4.587-20.55,62.795-20.55,62.795l14.051,7.17s38.321-71.882,38.321-78.151S511.692,277.861,504.827,273.913Z" transform="translate(-321.107 -89.279)" fill="#3565b9"/>
        <path id="Path_7039" data-name="Path 7039" d="M468.7,214.435c-.6-.6-5.674-.21-8.2-.21s-7.6-.388-8.2.21-4.643,9.619-4.643,9.619l12.844,2.721,12.844-2.721S469.3,215.033,468.7,214.435Z" transform="translate(-300.885 -122.728)" fill="#3c4db5"/>
        <g id="Group_3778" data-name="Group 3778" transform="translate(110.735 97.076)">
          <path id="Path_7040" data-name="Path 7040" d="M509.737,370.455c-3.367-4.829-29.031-23.5-29.031-23.5H460.6s-25.665,18.676-29.032,23.5-2.664,9.823,1.28,9.823h12.588a1.575,1.575,0,0,0,1.557-1.239,16.421,16.421,0,0,0,.33-3.458,1.608,1.608,0,0,0-1.356-1.59c-.791-.111-1.666-.3-1.722-.594-.126-.677.308-1.909,2.885-4.034,4.644-3.833,15.72-12.31,15.72-12.31l7.8.232,7.8-.232s11.076,8.477,15.722,12.31c2.576,2.125,3.008,3.358,2.883,4.034-.054.294-.929.483-1.72.594a1.608,1.608,0,0,0-1.356,1.59,16.217,16.217,0,0,0,.33,3.458,1.572,1.572,0,0,0,1.557,1.239h12.586C512.4,380.277,513.1,375.283,509.737,370.455Z" transform="translate(-422.353 -141.64)" fill="#111b34"/>
          <path id="Path_7041" data-name="Path 7041" d="M458.8,297.82h-9.239l4.619,83.378h9.239l4.62-83.378Z" transform="translate(-410.501 -170.547)" fill="#111b34"/>
          <path id="Path_7042" data-name="Path 7042" d="M464.522,295.554H439.839s2.511,28.392,24.683,28.392,24.685-28.392,24.685-28.392Z" transform="translate(-416.222 -171.88)" fill="#111b34"/>
          <path id="Path_7043" data-name="Path 7043" d="M515.013,227.678c-6.271-8.361-43.148-9.986-43.148-9.986s-36.877,1.625-43.148,9.986,10.917,77.571,16.722,88.72,26.426,10.915,26.426,10.915,20.62.232,26.426-10.915S521.283,236.039,515.013,227.678Z" transform="translate(-423.564 -217.692)" fill="#1c2a6b"/>
          <path id="Path_7044" data-name="Path 7044" d="M472.828,270.795c-2.111-1.407-23.039-1.407-25.149,0-2.44,1.625,3.483,40.991,4.412,44.94s15.395,3.949,16.324,0S475.266,272.42,472.828,270.795Z" transform="translate(-411.953 -187.069)" fill="#111b34"/>
          <rect id="Rectangle_283" data-name="Rectangle 283" width="96.602" height="12.89" transform="translate(0 118.97)" fill="#111b34"/>
        </g>
        <rect id="Rectangle_284" data-name="Rectangle 284" width="59.659" height="9.546" transform="translate(18.386 146.337)" fill="#0400a3"/>
        <rect id="Rectangle_285" data-name="Rectangle 285" width="59.659" height="9.547" transform="translate(11.854 136.791)" fill="#3565b9"/>
        <g id="Group_3779" data-name="Group 3779" transform="translate(257.72 129.088)">
          <path id="Path_7045" data-name="Path 7045" d="M533.837,240.481h-3.4v1.876h2.494a5.092,5.092,0,0,1,5.092,5.092v.1a5.092,5.092,0,0,1-5.092,5.092h-2.494v1.876h3.4a6.95,6.95,0,0,0,6.949-6.949v-.14A6.95,6.95,0,0,0,533.837,240.481Z" transform="translate(-509.902 -236.296)" fill="#8494ab"/>
          <path id="Path_7046" data-name="Path 7046" d="M537,264.643H521.595a4.087,4.087,0,0,1-4.087-4.087V237.846h23.581v22.711A4.087,4.087,0,0,1,537,264.643Z" transform="translate(-517.508 -237.846)" fill="#8494ab"/>
          <path id="Path_7047" data-name="Path 7047" d="M527.731,260.86V239.047h-8.912v19.477a3.505,3.505,0,0,0,3.506,3.506h5.618A4.228,4.228,0,0,1,527.731,260.86Z" transform="translate(-516.737 -237.139)" fill="#00edff"/>
          <path id="Path_7048" data-name="Path 7048" d="M528.134,239.047v20.538a3.783,3.783,0,0,1-.894,2.444h2.622a3.505,3.505,0,0,0,3.506-3.506V239.047Z" transform="translate(-511.782 -237.139)" fill="#c8ced9"/>
        </g>
      </g>
      <g id="Group_3782" data-name="Group 3782" transform="translate(68.805)">
        <g id="Group_3781" data-name="Group 3781">
          <path id="Rectangle_286" data-name="Rectangle 286" d="M1.495,0H50.73a1.494,1.494,0,0,1,1.494,1.494V33.834a1.494,1.494,0,0,1-1.494,1.494H1.495A1.495,1.495,0,0,1,0,33.834V1.495A1.495,1.495,0,0,1,1.495,0Z" fill="#1c2a6b"/>
          <rect id="Rectangle_287" data-name="Rectangle 287" width="47.476" height="29.7" transform="translate(2.374 2.814)" fill="#fff"/>
        </g>
        <rect id="Rectangle_288" data-name="Rectangle 288" width="37.42" height="2.154" transform="translate(7.902 8.51)" fill="#3c49b9"/>
        <rect id="Rectangle_289" data-name="Rectangle 289" width="37.42" height="2.154" transform="translate(7.902 16.51)" fill="#3c49b9"/>
        <rect id="Rectangle_290" data-name="Rectangle 290" width="37.42" height="2.154" transform="translate(7.902 24.51)" fill="#3c49b9"/>
      </g>
    </g>
    <g id="Group_3788" data-name="Group 3788" transform="translate(570.215 144.955)">
      <g id="Group_3785" data-name="Group 3785">
        <g id="Group_3784" data-name="Group 3784">
          <path id="Path_7050" data-name="Path 7050" d="M472.836,171.708H500.7l-11.527,13.921,24.849-13.921h7.813a2.45,2.45,0,0,0,2.449-2.451V137.7a2.45,2.45,0,0,0-2.449-2.451H472.836a2.451,2.451,0,0,0-2.451,2.451v31.558A2.451,2.451,0,0,0,472.836,171.708Z" transform="translate(-470.385 -135.248)" fill="#3565b9"/>
        </g>
      </g>
      <g id="Group_3787" data-name="Group 3787" transform="translate(19.005 8.088)">
        <g id="Group_3786" data-name="Group 3786">
          <path id="Path_7051" data-name="Path 7051" d="M498.235,146.466c0,4.082-5.135,5.285-5.135,6.874v.632h-5.135v-1.5c0-2.192,3.9-3.453,3.9-5.885a1.971,1.971,0,0,0-1.981-2.1c-1.623,0-1.954,1.261-1.954,2.522a7.261,7.261,0,0,0,.03.81h-5.524c-.03-.391-.091-.751-.091-1.14,0-3.9,3.485-6.336,8.2-6.336C495.141,140.34,498.235,142.743,498.235,146.466Zm-4.686,14.893h-5.944V155.8h5.944Z" transform="translate(-482.35 -140.34)" fill="#fff"/>
        </g>
      </g>
    </g>
    <g id="Group_3754" data-name="Group 3754" transform="translate(-230.395 -768.617)">
      <g id="Group_3753" data-name="Group 3753" transform="translate(541.011 1170.307)">
        <g id="Group_3751" data-name="Group 3751">
          <g id="Group_3747" data-name="Group 3747" transform="translate(29.492 16.25)">
            <path id="Path_6952" data-name="Path 6952" d="M610.408,1270.286c-.447.227-1.732-.454-2.2-.6a7.75,7.75,0,0,1-2.836-1.053c-.631-.52-1.043-1.392-1.241-3.093a9.257,9.257,0,0,1-.059-1.5,8.434,8.434,0,0,1,1.145-4,5.934,5.934,0,0,1,.488-.691,7.115,7.115,0,0,0,.944-1.208,4.642,4.642,0,0,0,.382-1.849,18.34,18.34,0,0,0-.526-5.722c-.569-2.282-1.97-4-1.4-6.448a8.557,8.557,0,0,1,.673-1.772,10.536,10.536,0,0,1,1.009-1.575c1.582-2.08,3.442-3.4,2.888-6.63a9.982,9.982,0,0,1,.73-5.353,40.044,40.044,0,0,1,2.52-4.671.745.745,0,0,1,.279-.324.591.591,0,0,1,.5.091c2.422,1.174,3.784,4.019,4.841,6.632,1.582,3.521.459,7.232-1.332,10.965-1.209,2.485-2.425,4.786-2.108,7.283a13.51,13.51,0,0,0,.577,2.18,14.634,14.634,0,0,1-2.023,12.676,27.881,27.881,0,0,0-2.059,2.882C611.15,1267.341,611.1,1269.931,610.408,1270.286Z" transform="translate(-604.061 -1223.779)" fill="#00edff"/>
            <g id="Group_3746" data-name="Group 3746" transform="translate(2.058 5.987)">
              <path id="Path_6953" data-name="Path 6953" d="M610.976,1282.828l.785.231c-.361-1.729-.394-4.19.981-5.922a12.326,12.326,0,0,0,1.989-4,20.954,20.954,0,0,0,.765-7.859c-.166-2.252.013-5.358,1.759-7.723,3.064-4.111,1.507-13.567,1.379-14.07.074.333.948,9.64-1.888,13.372-1.881,2.533-2.075,5.9-1.9,8.309a20.162,20.162,0,0,1-.75,7.474,11.726,11.726,0,0,1-1.848,3.754A8.409,8.409,0,0,0,610.976,1282.828Z" transform="translate(-610.833 -1243.481)" fill="#1a1a1a"/>
            </g>
          </g>
          <path id="Path_6954" data-name="Path 6954" d="M566.215,1226.822c-.422,1.249.074,4.434-.889,4.981-.628.356-2.719-.235-3.466-.316-.616-.067-1.184-.113-1.711-.161a9.536,9.536,0,0,1-2.7-.512c-1.145-.46-2.037-1.376-2.854-3.39a8.4,8.4,0,0,1,.014-6.746,6.173,6.173,0,0,1,.543-.9.224.224,0,0,1,.017-.022,6.761,6.761,0,0,0,1.077-1.644,4.815,4.815,0,0,0,0-2.455,25.531,25.531,0,0,0-1.073-3.916,27.12,27.12,0,0,0-1.64-3.675c-1.611-3-3.879-6.024-3.851-9.18,0-.068,0-.136,0-.2a8.741,8.741,0,0,1,.731-3.116c1.494-3.534,4.59-5.989,2.712-10.835a12.436,12.436,0,0,1-.363-7.345,30.128,30.128,0,0,1,2.648-6.581.892.892,0,0,1,.351-.437,1.149,1.149,0,0,1,.774.021c3.9,1,6.7,3.71,9.134,6.919,3.482,4.6,2.862,9.768,1.4,14.341-1.021,3.188-2.073,6.656-.81,10.077a30.134,30.134,0,0,0,1.475,3.026c.065.128.129.258.19.386a10.518,10.518,0,0,1,1.008-1.575c.107.2.215.407.32.616,3.153,6.252,3.435,13.371.752,19.045-.291.615-.61,1.2-.92,1.774a20.519,20.519,0,0,0-1.232,2.529,8.7,8.7,0,0,0-.14,1.635,13.253,13.253,0,0,1-.2,2.249c-.631-.52-1.043-1.392-1.241-3.093A9.277,9.277,0,0,1,566.215,1226.822Z" transform="translate(-536.714 -1170.307)" fill="#666" opacity="0.3" style="mix-blend-mode: multiply;isolation: isolate"/>
          <path id="Path_6955" data-name="Path 6955" d="M565.326,1231.8c-.628.356-2.719-.235-3.466-.316-.616-.067-1.184-.113-1.711-.161a9.536,9.536,0,0,1-2.7-.512c-1.145-.46-2.037-1.376-2.854-3.39a8.4,8.4,0,0,1,.014-6.746,6.173,6.173,0,0,1,.543-.9.224.224,0,0,1,.017-.022,6.761,6.761,0,0,0,1.077-1.644,4.815,4.815,0,0,0,0-2.455,25.531,25.531,0,0,0-1.073-3.916,27.12,27.12,0,0,0-1.64-3.675c-1.611-3-3.879-6.024-3.851-9.18,0-.068,0-.136,0-.2a8.741,8.741,0,0,1,.731-3.116c1.494-3.534,4.59-5.989,2.712-10.835a12.436,12.436,0,0,1-.363-7.345,30.128,30.128,0,0,1,2.648-6.581.892.892,0,0,1,.351-.437,1.149,1.149,0,0,1,.774.021c3.9,1,6.7,3.71,9.134,6.919,3.482,4.6,2.862,9.768,1.4,14.341-1.021,3.188-2.073,6.656-.81,10.077a30.134,30.134,0,0,0,1.475,3.026c.065.128.129.258.19.386,2.719,5.657,2.918,12.124.508,17.222-.7,1.487-1.614,2.861-2.2,4.408-.007.017-.013.036-.019.054C565.792,1228.071,566.288,1231.256,565.326,1231.8Z" transform="translate(-536.714 -1170.307)" fill="#00edff"/>
          <g id="Group_3748" data-name="Group 3748" transform="translate(21.182 6.98)">
            <path id="Path_6956" data-name="Path 6956" d="M577.609,1247.139l1.239.136c-.94-1.875-1.663-4.583-.01-7.092a13.852,13.852,0,0,0,1.935-5.837,22.993,22.993,0,0,0-1.375-10.772,15.313,15.313,0,0,1,.039-11.532c3.309-7.384-2.121-18.211-2.326-18.766.088.362,4.354,11.272,1.268,18.165a16.454,16.454,0,0,0-.051,12.407,21.83,21.83,0,0,1,1.3,10.19,12.841,12.841,0,0,1-1.776,5.4A7.837,7.837,0,0,0,577.609,1247.139Z" transform="translate(-576.714 -1193.276)" fill="#1a1a1a"/>
          </g>
          <g id="Group_3750" data-name="Group 3750" transform="translate(0 14.413)">
            <path id="Path_6957" data-name="Path 6957" d="M560.149,1289.186a9.545,9.545,0,0,1-2.7-.512c-1.145-.461-2.037-1.376-2.854-3.39a8.4,8.4,0,0,1,.014-6.746,6.186,6.186,0,0,1,.543-.9.237.237,0,0,1,.017-.021,6.762,6.762,0,0,0,1.077-1.644,4.815,4.815,0,0,0,0-2.455,25.531,25.531,0,0,0-1.073-3.916,27.127,27.127,0,0,0-1.64-3.675c-1.611-3-3.879-6.024-3.851-9.18,0-.067,0-.136,0-.2a8.741,8.741,0,0,1,.731-3.116c0,.041,0,.081,0,.122-.032,1.94.969,3.035,2.744,4.8a14.88,14.88,0,0,1,3.62,4.837c1,2.416.525,4.732.11,6.776-.1.5-.2.977-.275,1.446a15.981,15.981,0,0,0,.067,5.349,3.05,3.05,0,0,0,.334,1.059,2.3,2.3,0,0,0,.324.318c.091.077.183.151.275.227.115.094.231.188.344.284l.039.034a9.211,9.211,0,0,1,.855.837,9.34,9.34,0,0,1,2.388,6.376A4.841,4.841,0,0,1,560.149,1289.186Z" transform="translate(-536.714 -1242.579)" fill="#666" opacity="0.3" style="mix-blend-mode: multiply;isolation: isolate"/>
            <path id="Path_6958" data-name="Path 6958" d="M527.749,1263.828c-.628.166-1.389.262-2.271.434-.54.106-1.955.674-2.528.443-.892-.362-1.41-2.862-2.093-3.747-.874-1.134-1.945-2.118-2.891-3.2a17.45,17.45,0,0,1-4.395-13.334,18.261,18.261,0,0,0,.267-2.371c0-2.658-1.766-5.214-3.429-7.559-2.385-3.367-4.3-7.233-2.955-10.909.938-2.566,2.3-4.778,4.961-5.761a.836.836,0,0,1,.577-.062,1.059,1.059,0,0,1,.387.308,33.593,33.593,0,0,1,3.839,4.813,10.613,10.613,0,0,1,1.779,5.567,6.057,6.057,0,0,0,.979,3.449c1.5,2.37,4.305,3.933,5.52,6.881.817,1.982.372,3.992-.029,5.974-.091.448-.179.893-.25,1.337a17.681,17.681,0,0,0,.073,5.891,7.276,7.276,0,0,0,.178.787,3.261,3.261,0,0,0,.507,1.066,8.062,8.062,0,0,0,1.291,1.192,6.929,6.929,0,0,1,.661.648,7.427,7.427,0,0,1,1.9,5.092C529.754,1262.875,529.024,1263.493,527.749,1263.828Z" transform="translate(-507.012 -1217.733)" fill="#00edff"/>
            <g id="Group_3749" data-name="Group 3749" transform="translate(5.899 5.404)">
              <path id="Path_6959" data-name="Path 6959" d="M541.213,1276.206l-.9.175a6,6,0,0,0-1.975-5.354,15.009,15.009,0,0,1-3.092-4.292,18.458,18.458,0,0,1-1.973-8.213,13.42,13.42,0,0,0-3.253-8.7c-4.562-5.379-3.49-13.872-3.49-14.3.035.278-.136,8.766,4.12,13.787a14.422,14.422,0,0,1,3.507,9.363,17.525,17.525,0,0,0,1.864,7.77,13.9,13.9,0,0,0,2.851,3.973A6.975,6.975,0,0,1,541.213,1276.206Z" transform="translate(-526.422 -1235.515)" fill="#1a1a1a"/>
            </g>
          </g>
        </g>
        <g id="Group_3752" data-name="Group 3752" transform="translate(5.417 54.828)">
          <path id="Path_6960" data-name="Path 6960" d="M567.4,1370.067l-.5,2.316-5.361,24.84c-7.62,1.9-14.916,2.113-21.762,0l-5.361-24.84-.5-2.316Z" transform="translate(-531.16 -1364.189)" fill="#1e1e1e"/>
          <path id="Path_6961" data-name="Path 6961" d="M563.838,1358.347v3.562h-2.759l-.5,2.316H528.1l-.5-2.316H524.84v-3.562Z" transform="translate(-524.839 -1356.031)" fill="#112c47" opacity="0.7" style="mix-blend-mode: multiply;isolation: isolate"/>
          <rect id="Rectangle_260" data-name="Rectangle 260" width="39" height="5.877" fill="#1e1e1e"/>
        </g>
      </g>
    </g>
  </g>
</svg>
